<svg xmlns="http://www.w3.org/2000/svg" xmlns:xlink="http://www.w3.org/1999/xlink" width="95" height="27.127" viewBox="0 0 95 27.127">
  <defs>
    <clipPath id="clip-path">
      <rect id="Rectangle_96" data-name="Rectangle 96" width="95" height="27.127" fill="none"/>
    </clipPath>
  </defs>
  <g id="Group_124" data-name="Group 124" clip-path="url(#clip-path)">
    <path id="Path_81" data-name="Path 81" d="M139.449,10.434a7.211,7.211,0,1,0,7.21,7.211,7.219,7.219,0,0,0-7.21-7.211m0,10.4a3.19,3.19,0,1,1,3.191-3.19,3.194,3.194,0,0,1-3.191,3.19" transform="translate(-51.66 -4.076)" fill="#fb1d14"/>
    <path id="Path_82" data-name="Path 82" d="M19.833,5.6a2.8,2.8,0,1,0-2.8-2.8,2.8,2.8,0,0,0,2.8,2.8" transform="translate(-6.654 0)" fill="#fb1d14"/>
    <path id="Path_83" data-name="Path 83" d="M116.653,0a2.8,2.8,0,0,0-2.8,2.8V6.545L113.62,6.5a7.276,7.276,0,0,0-1.4-.139,7.211,7.211,0,0,0-7.2,7.492,7.234,7.234,0,0,0,6.923,6.923,7.211,7.211,0,0,0,7.492-7.2,3.39,3.39,0,0,0,.021-.344V2.8a2.8,2.8,0,0,0-2.8-2.8M112.22,16.755a3.19,3.19,0,1,1,3.19-3.19,3.194,3.194,0,0,1-3.19,3.19" transform="translate(-41.023 -0.002)" fill="#fb1d14"/>
    <path id="Path_84" data-name="Path 84" d="M45.07,10.421a7.215,7.215,0,0,0,0,14.429h4.46A2.758,2.758,0,0,0,52.284,22.1v-4.46a7.223,7.223,0,0,0-7.215-7.215m0,10.372a3.138,3.138,0,1,1,3.138-3.138,3.141,3.141,0,0,1-3.138,3.138" transform="translate(-14.788 -4.071)" fill="#fb1d14"/>
    <path id="Path_85" data-name="Path 85" d="M72.578,10.426c-.1,0-.19-.005-.284-.005a7.21,7.21,0,0,0-7.208,7.21,3.392,3.392,0,0,0-.021.344V28.4a2.8,2.8,0,1,0,5.6,0V24.656l.233.046a7.208,7.208,0,0,0,8.6-7.353,7.234,7.234,0,0,0-6.923-6.923m-.282,10.4a3.19,3.19,0,1,1,3.19-3.19,3.194,3.194,0,0,1-3.19,3.19" transform="translate(-25.418 -4.071)" fill="#fb1d14"/>
    <path id="Path_86" data-name="Path 86" d="M95.093,10.435a2.8,2.8,0,0,0-2.8,2.8v8.823a2.8,2.8,0,0,0,5.6,0V13.234a2.8,2.8,0,0,0-2.8-2.8" transform="translate(-36.055 -4.077)" fill="#fb1d14"/>
    <path id="Path_87" data-name="Path 87" d="M95.093,0a2.8,2.8,0,1,0,2.8,2.8,2.8,2.8,0,0,0-2.8-2.8" transform="translate(-36.055 0)" fill="#fb1d14"/>
    <path id="Path_88" data-name="Path 88" d="M25.194,5.1a2.821,2.821,0,0,0,.629-3.939A2.821,2.821,0,0,0,21.884.537,15.857,15.857,0,0,0,15.9,9.012l-.041.141H10.495l-.041-.141A15.854,15.854,0,0,0,4.474.537,2.82,2.82,0,0,0,1.164,5.1a10.334,10.334,0,0,1,4.12,6.514A10.3,10.3,0,0,1,3.549,19.5a2.82,2.82,0,0,0,4.608,3.254,16.021,16.021,0,0,0,2.881-7.781l.016-.178H15.3l.016.178a16.017,16.017,0,0,0,2.88,7.781A2.82,2.82,0,1,0,22.809,19.5,10.366,10.366,0,0,1,25.194,5.1" transform="translate(0 0)" fill="#fb1d14"/>
  </g>
</svg>
