<svg xmlns="http://www.w3.org/2000/svg" xmlns:xlink="http://www.w3.org/1999/xlink" width="24" height="24" viewBox="0 0 24 24">
  <defs>
    <clipPath id="clip-path">
      <rect id="Rectangle_175" data-name="Rectangle 175" width="24" height="24" transform="translate(306 2423)" fill="#fff" stroke="#707070" stroke-width="1"/>
    </clipPath>
  </defs>
  <g id="Mask_Group_52" data-name="Mask Group 52" transform="translate(-306 -2423)" clip-path="url(#clip-path)">
    <g id="layer1" transform="translate(306 2423)">
      <path id="path23303" d="M13.455,1.45A12,12,0,1,0,25.45,13.455a1.091,1.091,0,1,0-2.181,0,9.819,9.819,0,1,1-9.813-9.824,1.091,1.091,0,0,0,0-2.181Zm4.139.82a1.092,1.092,0,0,0-.4,2.1c.013.005.021.012.032.017a1.092,1.092,0,1,0,.846-2.013c-.016-.007-.033-.018-.047-.023a1.088,1.088,0,0,0-.426-.083Zm3.549,2.36A1.095,1.095,0,0,0,20.378,6.5l.023.023a1.09,1.09,0,1,0,1.546-1.538l-.032-.032a1.091,1.091,0,0,0-.773-.322ZM13.455,5.814a1.091,1.091,0,0,0-1.1,1.095v6.546a1.091,1.091,0,0,0,.6.973l4.362,2.181a1.093,1.093,0,1,0,.976-1.955l-3.76-1.877V6.909a1.091,1.091,0,0,0-1.086-1.095ZM23.526,8.16A1.1,1.1,0,0,0,22.51,9.679c.005.013.012.021.017.032a1.092,1.092,0,0,0,2.021-.829l-.017-.04a1.092,1.092,0,0,0-1.005-.682Z" transform="translate(-1.45 -1.45)"/>
    </g>
  </g>
</svg>
