<svg xmlns="http://www.w3.org/2000/svg" xmlns:xlink="http://www.w3.org/1999/xlink" width="32" height="32" viewBox="0 0 32 32">
  <defs>
    <clipPath id="clip-path">
      <rect id="Rectangle_340" data-name="Rectangle 340" width="32" height="32" transform="translate(6800 933)" fill="#fff" stroke="#707070" stroke-width="1"/>
    </clipPath>
  </defs>
  <g id="Mask_Group_85" data-name="Mask Group 85" transform="translate(-6800 -933)" clip-path="url(#clip-path)">
    <g id="location" transform="translate(6800 933)">
      <g id="Group_394" data-name="Group 394">
        <g id="Group_393" data-name="Group 393">
          <path id="Path_791" data-name="Path 791" d="M21.342,21.143c3.405-5.343,2.977-4.677,3.075-4.816a10.236,10.236,0,0,0,1.895-5.952A10.313,10.313,0,1,0,7.637,16.4l3.021,4.74c-3.23.5-8.72,1.975-8.72,5.232,0,1.187.775,2.879,4.466,4.2A29.591,29.591,0,0,0,16,32c6.752,0,14.063-1.9,14.063-5.625C30.063,23.118,24.579,21.64,21.342,21.143ZM9.2,15.372q-.015-.024-.032-.047A8.437,8.437,0,1,1,22.9,15.229c-.09.119.381-.613-6.9,10.807ZM16,30.125c-7.375,0-12.187-2.168-12.187-3.75,0-1.063,2.473-2.812,7.953-3.494l3.444,5.4a.937.937,0,0,0,1.581,0l3.444-5.4c5.48.682,7.953,2.43,7.953,3.494C28.188,27.944,23.418,30.125,16,30.125Z"/>
        </g>
      </g>
      <g id="Group_396" data-name="Group 396">
        <g id="Group_395" data-name="Group 395">
          <path id="Path_792" data-name="Path 792" d="M16,5.688a4.688,4.688,0,1,0,4.688,4.688A4.693,4.693,0,0,0,16,5.688Zm0,7.5a2.813,2.813,0,1,1,2.813-2.812A2.816,2.816,0,0,1,16,13.188Z"/>
        </g>
      </g>
    </g>
  </g>
</svg>
