<svg xmlns="http://www.w3.org/2000/svg" xmlns:xlink="http://www.w3.org/1999/xlink" width="90" height="90" viewBox="0 0 90 90">
  <defs>
    <clipPath id="clip-path">
      <rect id="Rectangle_148" data-name="Rectangle 148" width="90" height="90" transform="translate(-0.034)" fill="#760a0a"/>
    </clipPath>
  </defs>
  <g id="Mask_Group_41" data-name="Mask Group 41" transform="translate(0.034)" clip-path="url(#clip-path)">
    <g id="parking-03" transform="translate(6.825 0)">
      <path id="Path_311" data-name="Path 311" d="M82.282,28.533a2.915,2.915,0,0,1-2.908-2.908,1.457,1.457,0,0,0-1.454-1.454H60.488V11.1a8.735,8.735,0,0,0-8.723-8.723H16.9A8.735,8.735,0,0,0,8.175,11.1V83.753A8.735,8.735,0,0,0,16.9,92.477H51.765a8.735,8.735,0,0,0,8.723-8.723V64.866h8.723a1.457,1.457,0,0,0,1.454-1.454A2.915,2.915,0,0,1,73.573,60.5a1.457,1.457,0,0,0,1.454-1.454V56.143h2.908a1.457,1.457,0,0,0,1.454-1.454A2.915,2.915,0,0,1,82.3,51.782a1.457,1.457,0,0,0,1.454-1.454V29.987A1.457,1.457,0,0,0,82.3,28.533ZM57.58,83.74a5.812,5.812,0,0,1-5.815,5.815H16.9a5.812,5.812,0,0,1-5.815-5.815V11.1A5.812,5.812,0,0,1,16.9,5.285H51.765A5.812,5.812,0,0,1,57.58,11.1V24.172H54.672V11.1a2.915,2.915,0,0,0-2.908-2.908H44.5a1.381,1.381,0,0,0-.8.24L39.707,11.1H28.956L24.968,8.432a1.443,1.443,0,0,0-.8-.24H16.9A2.915,2.915,0,0,0,13.991,11.1V82.3a4.363,4.363,0,0,0,4.362,4.362H50.311A4.363,4.363,0,0,0,54.672,82.3V64.866H57.58V83.753ZM31.437,32.895V31.254a5.851,5.851,0,0,0,4.175-4.175h7.443v5.815Zm0,29.064V59.051H28.529v2.908H26.889a5.851,5.851,0,0,0-4.175-4.175V39.977A5.851,5.851,0,0,0,26.889,35.8h1.641V38.71h2.908V35.8h2.908V61.959Zm2.908-37.774a1.457,1.457,0,0,0-1.454,1.454,2.915,2.915,0,0,1-2.908,2.908A1.457,1.457,0,0,0,28.529,30v2.908H25.622a1.457,1.457,0,0,0-1.454,1.454A2.915,2.915,0,0,1,21.26,37.27a1.457,1.457,0,0,0-1.454,1.454V59.064a1.457,1.457,0,0,0,1.454,1.454,2.915,2.915,0,0,1,2.908,2.908,1.457,1.457,0,0,0,1.454,1.454H51.778V82.313a1.457,1.457,0,0,1-1.454,1.454H18.352A1.457,1.457,0,0,1,16.9,82.313V11.1h6.829l3.988,2.668a1.443,1.443,0,0,0,.8.24H40.134a1.381,1.381,0,0,0,.8-.24L44.922,11.1h6.829V24.172H34.318Zm37.774,33.6a5.851,5.851,0,0,0-4.175,4.175H37.253V35.8H67.944a5.851,5.851,0,0,0,4.175,4.175Zm8.723-8.723a5.851,5.851,0,0,0-4.175,4.175H75.026V38.71a1.457,1.457,0,0,0-1.454-1.454,2.915,2.915,0,0,1-2.908-2.908,1.457,1.457,0,0,0-1.454-1.454H45.962V27.079H76.654a5.851,5.851,0,0,0,4.175,4.175V49.061Z" transform="translate(-8.175 -2.377)"/>
      <path id="Path_312" data-name="Path 312" d="M54.578,38.137l-4.255-.654L48.4,33.4a1.453,1.453,0,0,0-2.628,0l-1.921,4.081-4.255.654a1.457,1.457,0,0,0-1.214,1.654,1.434,1.434,0,0,0,.4.8l3.121,3.2-.734,4.535a1.458,1.458,0,0,0,1.2,1.667,1.419,1.419,0,0,0,.934-.16L47.1,47.74l3.788,2.094a1.45,1.45,0,0,0,1.974-.574,1.418,1.418,0,0,0,.16-.934l-.734-4.535,3.121-3.2a1.453,1.453,0,0,0-.027-2.054,1.478,1.478,0,0,0-.8-.4h0Zm-4.9,4.148a1.488,1.488,0,0,0-.4,1.254l.373,2.308-1.867-1.04a1.452,1.452,0,0,0-1.4,0l-1.867,1.04.373-2.308a1.422,1.422,0,0,0-.4-1.254l-1.654-1.694,2.227-.333a1.474,1.474,0,0,0,1.094-.814L47.1,37.47l.934,1.974a1.414,1.414,0,0,0,1.094.814l2.227.333L49.7,42.285Z" transform="translate(-0.585 5.213)"/>
      <rect id="Rectangle_151" data-name="Rectangle 151" width="2.908" height="2.908" transform="translate(20.354 39.228)"/>
      <rect id="Rectangle_152" data-name="Rectangle 152" width="2.908" height="2.908" transform="translate(20.354 45.043)"/>
      <rect id="Rectangle_153" data-name="Rectangle 153" width="2.908" height="2.908" transform="translate(20.354 50.859)"/>
      <path id="Path_313" data-name="Path 313" d="M29.964,67.986A4.362,4.362,0,1,0,25.6,63.624,4.363,4.363,0,0,0,29.964,67.986Zm0-5.815a1.454,1.454,0,1,1-1.454,1.454A1.457,1.457,0,0,1,29.964,62.17Z" transform="translate(-3.794 11.923)"/>
    </g>
  </g>
</svg>
