<svg xmlns="http://www.w3.org/2000/svg" xmlns:xlink="http://www.w3.org/1999/xlink" width="90" height="90" viewBox="0 0 90 90">
  <defs>
    <clipPath id="clip-path">
      <rect id="Rectangle_145" data-name="Rectangle 145" width="90" height="90" transform="translate(-0.258)" fill="#760a0a"/>
    </clipPath>
  </defs>
  <g id="Mask_Group_39" data-name="Mask Group 39" transform="translate(0.258)" clip-path="url(#clip-path)">
    <g id="parking-01" transform="translate(0 0)">
      <path id="Path_309" data-name="Path 309" d="M46.073,20.726H29.96V67.1h5.28V52.405H46.073A15.587,15.587,0,0,0,61.64,36.838v-.546A15.587,15.587,0,0,0,46.073,20.726ZM56.36,36.838A10.294,10.294,0,0,1,46.073,47.125H35.24V26.006H46.073A10.294,10.294,0,0,1,56.36,36.293v.546Z" transform="translate(3.466 1.144)"/>
      <path id="Path_310" data-name="Path 310" d="M80.156,16.442A45.052,45.052,0,0,0,16.442,80.156,45.052,45.052,0,0,0,80.156,16.442ZM76.417,76.4A39.766,39.766,0,1,1,20.18,20.167,39.766,39.766,0,1,1,76.417,76.4Z" transform="translate(-3.249 -3.249)"/>
    </g>
  </g>
</svg>
