<svg xmlns="http://www.w3.org/2000/svg" xmlns:xlink="http://www.w3.org/1999/xlink" width="90" height="90" viewBox="0 0 90 90">
  <defs>
    <clipPath id="clip-path">
      <rect id="Rectangle_146" data-name="Rectangle 146" width="90" height="90" transform="translate(0.411)" fill="#760a0a"/>
    </clipPath>
  </defs>
  <g id="Mask_Group_40" data-name="Mask Group 40" transform="translate(-0.411)" clip-path="url(#clip-path)">
    <path id="parking-02" d="M92.124,58.776h-.957V56.833a4.463,4.463,0,0,0-4.462-4.462H59.863A4.463,4.463,0,0,0,55.4,56.833v1.942h-.957a2.466,2.466,0,0,0-2.463,2.463v4.406a2.466,2.466,0,0,0,2.463,2.463H55.4V89.18a1.448,1.448,0,0,0,1.45,1.45h.31v1.042a2.92,2.92,0,0,0,2.914,2.914h2.013A2.92,2.92,0,0,0,65,91.671V90.63H81.568v1.042a2.92,2.92,0,0,0,2.914,2.914h2.013a2.92,2.92,0,0,0,2.914-2.914V90.63h.31a1.448,1.448,0,0,0,1.45-1.45V68.108h.957a2.466,2.466,0,0,0,2.463-2.463V61.239a2.466,2.466,0,0,0-2.463-2.463h0Zm-3.871-1.942V72.3H74.727V55.285H86.691a1.568,1.568,0,0,1,1.562,1.562h0ZM58.286,87.716V75.2H88.254V87.716Zm1.562-32.445H71.813V72.289H58.286V56.819a1.568,1.568,0,0,1,1.562-1.562ZM54.866,65.18v-3.5h.521v3.5Zm7.207,26.491H60.046V90.615h2.027Zm24.422,0H84.467V90.615h2.027Zm5.18-26.491h-.521v-3.5h.521ZM63.142,77.469a3.983,3.983,0,1,0,3.983,3.983,3.989,3.989,0,0,0-3.983-3.983Zm0,5.053a1.07,1.07,0,1,1,1.07-1.07A1.069,1.069,0,0,1,63.142,82.522Zm20.269-5.053a3.983,3.983,0,1,0,3.983,3.983A3.989,3.989,0,0,0,83.411,77.469Zm0,5.053a1.07,1.07,0,1,1,1.07-1.07A1.069,1.069,0,0,1,83.411,82.522Zm-5.982-1.07a1.448,1.448,0,0,1-1.45,1.45H70.574a1.45,1.45,0,0,1,0-2.9h5.405A1.448,1.448,0,0,1,77.429,81.452ZM16.1,50.992H88.155a1.448,1.448,0,0,0,1.45-1.45V36.775a1.444,1.444,0,0,0-1.056-1.394C64.775,28.527,57.639,21.953,51.417,10.665A11.607,11.607,0,0,0,40.987,4.5H18.479A11.772,11.772,0,0,0,6.965,13.381L4.882,21.348a11.521,11.521,0,0,0-.394,3.026V39.407a11.618,11.618,0,0,0,11.6,11.6ZM7.4,24.36a8.314,8.314,0,0,1,.3-2.28l2.083-7.967a8.893,8.893,0,0,1,8.7-6.714H40.987a8.785,8.785,0,0,1,7.882,4.659c3.8,6.9,7.77,11.472,13.288,15.286,5.729,3.969,13.33,7.221,24.534,10.515V48.078H16.1a8.7,8.7,0,0,1-8.7-8.7V24.346ZM69.209,43.081c1.717.507,3.519,1.013,5.335,1.492a1.719,1.719,0,0,0,.366.042,1.431,1.431,0,0,0,.887-.3,1.482,1.482,0,0,0,.563-1.154V37a1.443,1.443,0,0,0-.971-1.365c-1.858-.647-3.6-1.323-5.222-2a1.47,1.47,0,0,0-1.365.127,1.435,1.435,0,0,0-.647,1.211v6.714a1.448,1.448,0,0,0,1.042,1.394Zm1.872-5.954c.774.3,1.576.605,2.393.9V41.28c-.8-.225-1.6-.45-2.393-.676Zm-11.3,2.843c1.844.676,3.744,1.323,5.658,1.942a1.586,1.586,0,0,0,.45.07,1.458,1.458,0,0,0,.859-.282,1.415,1.415,0,0,0,.591-1.168V33.3a1.457,1.457,0,0,0-.816-1.309,52.881,52.881,0,0,1-5.447-3,1.463,1.463,0,0,0-2.238,1.225v8.389a1.457,1.457,0,0,0,.957,1.365h0Zm1.957-7.193c.859.479,1.759.957,2.688,1.422v4.321c-.9-.31-1.8-.619-2.688-.929ZM78.654,45.615c1.633.394,3.322.788,5.025,1.168a1.155,1.155,0,0,0,.31.028,1.469,1.469,0,0,0,1.464-1.45v-5.49A1.444,1.444,0,0,0,84.4,38.478c-1.717-.493-3.392-1-4.955-1.492a1.463,1.463,0,0,0-1.295.211,1.415,1.415,0,0,0-.591,1.168v5.841a1.447,1.447,0,0,0,1.112,1.408h0Zm1.8-5.278c.676.211,1.379.422,2.083.619v2.576c-.7-.155-1.394-.324-2.083-.493V40.322ZM50.319,36.071c1.9.887,3.913,1.745,5.982,2.562a1.387,1.387,0,0,0,.535.1,1.434,1.434,0,0,0,.816-.253,1.45,1.45,0,0,0,.633-1.2V27.767a1.463,1.463,0,0,0-.549-1.14,35,35,0,0,1-5.673-5.6,1.446,1.446,0,0,0-1.619-.45,1.47,1.47,0,0,0-.971,1.365V34.734a1.454,1.454,0,0,0,.845,1.323h0Zm2.069-10.318a36.739,36.739,0,0,0,3,2.717v6.658c-1.013-.422-2.027-.859-3-1.309Zm-39.046-1.52H40.9a2.83,2.83,0,0,0,2.8-3.294l-.943-5.8a6.929,6.929,0,0,0-7.066-5.574H19.113A7.2,7.2,0,0,0,12.075,15l-1.492,5.673a2.839,2.839,0,0,0,2.745,3.561Zm1.548-8.488a4.268,4.268,0,0,1,4.223-3.266H35.694a4.067,4.067,0,0,1,4.195,3.125l.929,5.715H13.412l1.464-5.588Zm-.042,23.676a5.476,5.476,0,1,0-5.476-5.476A5.482,5.482,0,0,0,14.848,39.422Zm0-8.037a2.562,2.562,0,1,1-2.562,2.562A2.562,2.562,0,0,1,14.848,31.384Zm23.31-2.9a5.476,5.476,0,1,0,5.476,5.476A5.482,5.482,0,0,0,38.158,28.485Zm0,8.037a2.562,2.562,0,1,1,2.562-2.562A2.562,2.562,0,0,1,38.158,36.522Zm8.431,19.439H43.8V54.1a1.448,1.448,0,0,0-1.45-1.45H35.483a1.448,1.448,0,0,0-1.45,1.45v1.858H18.522V54.1a1.448,1.448,0,0,0-1.45-1.45H10.2a1.448,1.448,0,0,0-1.45,1.45v1.858H5.966a1.448,1.448,0,0,0-1.45,1.45V62.2a1.448,1.448,0,0,0,1.45,1.45H46.589a1.448,1.448,0,0,0,1.45-1.45V57.41a1.448,1.448,0,0,0-1.45-1.45Zm-1.45,4.786H7.4V58.86h2.787a1.448,1.448,0,0,0,1.45-1.45V55.552h3.969v1.858a1.448,1.448,0,0,0,1.45,1.45H35.469a1.448,1.448,0,0,0,1.45-1.45V55.552h3.969v1.858a1.448,1.448,0,0,0,1.45,1.45h2.787v1.886Z" transform="translate(-4.151 -4.492)"/>
  </g>
</svg>
