<svg xmlns="http://www.w3.org/2000/svg" xmlns:xlink="http://www.w3.org/1999/xlink" width="90" height="90" viewBox="0 0 90 90">
  <defs>
    <clipPath id="clip-path">
      <rect id="Rectangle_147" data-name="Rectangle 147" width="90" height="90" transform="translate(-0.365)" fill="#760a0a"/>
    </clipPath>
  </defs>
  <g id="Mask_Group_42" data-name="Mask Group 42" transform="translate(0.365)" clip-path="url(#clip-path)">
    <g id="parking-04" transform="translate(-0.101 1.238)">
      <path id="Path_314" data-name="Path 314" d="M54.816,52.545a1.771,1.771,0,1,0,1.771,1.771h0A1.771,1.771,0,0,0,54.816,52.545Z" transform="translate(10.418 9.068)"/>
      <path id="Path_315" data-name="Path 315" d="M61.149,52.545a1.771,1.771,0,1,0,1.771,1.771h0A1.771,1.771,0,0,0,61.149,52.545Z" transform="translate(12.01 9.068)"/>
      <path id="Path_316" data-name="Path 316" d="M67.481,52.545a1.771,1.771,0,1,0,1.771,1.771h0A1.771,1.771,0,0,0,67.481,52.545Z" transform="translate(13.602 9.068)"/>
      <path id="Path_317" data-name="Path 317" d="M37.527,34.547A3.234,3.234,0,0,0,40.75,37.77h4.928a3.191,3.191,0,0,0,2.61-1.345,12.611,12.611,0,0,0,4.5.866H59A8.213,8.213,0,0,0,67.2,29.1V24.6a5.911,5.911,0,0,0-5.9-5.9H59.663V14.916a4.428,4.428,0,0,0-4.422-4.422c-2.863,0-3.916,2.757-4.315,3.8l-1.532,4.022a2.44,2.44,0,0,1-.679,1.119,3.228,3.228,0,0,0-3.023-2.1H40.764a3.234,3.234,0,0,0-3.223,3.223v14ZM48.9,23.093c1.319-.253,2.824-1.052,3.769-3.543L54.2,15.542c.586-1.532.892-1.532,1.026-1.532a.907.907,0,0,1,.906.906v5.54a1.756,1.756,0,0,0,1.758,1.758h3.4a2.379,2.379,0,0,1,2.384,2.371v4.5A4.681,4.681,0,0,1,59,33.761H52.79A8.3,8.3,0,0,1,48.9,32.8V23.08Zm-7.858-2.251h4.329V34.254H41.043Z" transform="translate(6.517 -1.503)"/>
      <path id="Path_318" data-name="Path 318" d="M88.355,56.611H65.82a30.44,30.44,0,0,0-.626-4.262c.266-.04.533-.08.8-.133A24.659,24.659,0,0,0,75.423,7.639,24.66,24.66,0,0,0,51.236,5.548a1.758,1.758,0,1,0,1.465,3.2A21.323,21.323,0,0,1,57.616,7.2,21.115,21.115,0,0,1,82.255,24.1,21.13,21.13,0,0,1,53.967,47.727a1.771,1.771,0,0,0-1.425.08,16.764,16.764,0,0,1-10.229,1.585,16.444,16.444,0,0,0,1.625-9.243,1.9,1.9,0,0,0-.266-.8,21.141,21.141,0,0,1-1.2-20.577,1.763,1.763,0,0,0-3.17-1.545,24.258,24.258,0,0,0-2.464,10.2c-.906-.08-1.811-.12-2.7-.12A31.811,31.811,0,1,0,56.63,81.61a32.068,32.068,0,0,0,4.209-5.194,4.111,4.111,0,0,0,1.718.386H88.382a4.047,4.047,0,0,0,4.049-4.049V60.686a4.047,4.047,0,0,0-4.049-4.049h0Zm-45.03-3.569a10.141,10.141,0,1,1-4.435-4.715c-.226.453-.493.919-.786,1.412a1.76,1.76,0,0,0,1.079,2.6,24.359,24.359,0,0,0,4.129.706h0ZM14.118,79.106a28.288,28.288,0,0,1,20-48.293c.959,0,1.931.053,2.89.147.067.506.133,1.012.226,1.518a24.683,24.683,0,0,0,3.21,8.364,13.6,13.6,0,0,1-.28,4.169A13.493,13.493,0,0,0,34.122,43.6,13.634,13.634,0,0,0,23.734,66.067a20.022,20.022,0,0,0-9.2,13.425l-.4-.4h0Zm20,8.284a27.977,27.977,0,0,1-16.368-5.221,16.433,16.433,0,0,1,8.737-13.625,13.595,13.595,0,0,0,15.263,0A16.486,16.486,0,0,1,50.5,82.182,28.112,28.112,0,0,1,34.122,87.4h0Zm20-8.284-.4.4A20.01,20.01,0,0,0,44.511,66.08a13.589,13.589,0,0,0,3.25-8.83,13.425,13.425,0,0,0-.679-4.235,19.95,19.95,0,0,0,6.34-1.731,24.41,24.41,0,0,0,8.231,1.345,29.016,29.016,0,0,1,.639,4,4.053,4.053,0,0,0-3.809,4.035V61.9l-5.021,3.33a1.759,1.759,0,0,0,0,2.93l5.021,3.33v1.239a3.5,3.5,0,0,0,.053.653,28.245,28.245,0,0,1-4.422,5.727h0ZM88.9,72.726a.534.534,0,0,1-.533.533H62.544a.532.532,0,0,1-.519-.533V70.542a1.75,1.75,0,0,0-.786-1.465l-3.6-2.384,3.6-2.384a1.75,1.75,0,0,0,.786-1.465V60.66a.532.532,0,0,1,.519-.533H88.368a.534.534,0,0,1,.533.533V72.726Z" transform="translate(-2.331 -3.309)"/>
      <path id="Path_319" data-name="Path 319" d="M37.177,12.033a1.763,1.763,0,1,0-1.239-3.01h0a1.765,1.765,0,0,0,1.239,3.01Z" transform="translate(5.988 -2.003)"/>
    </g>
  </g>
</svg>
