<svg xmlns="http://www.w3.org/2000/svg" xmlns:xlink="http://www.w3.org/1999/xlink" width="90" height="90" viewBox="0 0 90 90">
  <defs>
    <clipPath id="clip-path">
      <rect id="Rectangle_149" data-name="Rectangle 149" width="90" height="90" transform="translate(0.303)" fill="#760a0a"/>
    </clipPath>
  </defs>
  <g id="Mask_Group_43" data-name="Mask Group 43" transform="translate(-0.303)" clip-path="url(#clip-path)">
    <g id="parking-05" transform="translate(7.982 0)">
      <path id="Path_320" data-name="Path 320" d="M68.786,35.031c-1.757,0-3.258,1.406-3.988,3.664H63.19a18.66,18.66,0,0,0-3.177-7.652l1.136-1.136c2.122,1.068,4.177,1.014,5.421-.23h0c1.811-1.811,1.081-5.259-1.676-8.03a8.253,8.253,0,0,0-5.462-2.663h0a3.539,3.539,0,0,0-2.569.987c-1.244,1.244-1.3,3.3-.23,5.421L55.5,26.528a18.845,18.845,0,0,0-7.652-3.177V21.742C50.1,21,51.51,19.5,51.51,17.754c0-2.555-2.947-4.488-6.867-4.488s-6.867,1.933-6.867,4.488c0,1.757,1.406,3.258,3.664,3.988v1.609a18.66,18.66,0,0,0-7.652,3.177l-1.136-1.136c1.068-2.122,1.014-4.177-.23-5.421-1.811-1.8-5.259-1.068-8.03,1.676a8.248,8.248,0,0,0-2.663,5.475,3.486,3.486,0,0,0,.987,2.541c1.23,1.244,3.285,1.311,5.421.23l1.136,1.136a18.845,18.845,0,0,0-3.177,7.652H24.486c-.744-2.258-2.244-3.664-3.988-3.664-2.555,0-4.488,2.947-4.488,6.867s1.933,6.867,4.488,6.867c1.757,0,3.258-1.406,3.988-3.664h1.609a18.66,18.66,0,0,0,3.177,7.652l-1.136,1.136c-2.122-1.081-4.177-1.014-5.421.23-2.109,2.1-.554,5.8,1.676,8.03s5.921,3.772,8.03,1.676c1.244-1.244,1.311-3.3.23-5.421l1.136-1.136a18.639,18.639,0,0,0,7.652,3.163v1.609c-2.258.744-3.664,2.244-3.664,3.988,0,2.555,2.947,4.488,6.867,4.488s6.867-1.933,6.867-4.488c0-1.757-1.406-3.258-3.664-3.988V60.419A18.66,18.66,0,0,0,55.5,57.242l1.149,1.149c-1.081,2.122-1.014,4.177.23,5.407a3.507,3.507,0,0,0,2.555.987h0a8.31,8.31,0,0,0,5.475-2.663c2.758-2.758,3.488-6.219,1.676-8.03-1.244-1.244-3.3-1.3-5.421-.216l-1.136-1.149A18.845,18.845,0,0,0,63.2,45.075h1.609c.744,2.258,2.244,3.664,3.988,3.664,2.555,0,4.488-2.947,4.488-6.867S71.355,35,68.8,35h0ZM46.319,57.9a16.1,16.1,0,0,1-3.38-32.026h0a16.119,16.119,0,0,1,17.79,16.006v.027A16.114,16.114,0,0,1,46.305,57.9h0Zm11.3-29.646,1.69-1.69a1.37,1.37,0,0,0,.162-1.73c-1-1.487-1-2.636-.689-2.947a.957.957,0,0,1,.635-.189h0a5.564,5.564,0,0,1,3.528,1.866c1.757,1.757,2.176,3.677,1.676,4.164-.311.311-1.46.311-2.947-.689a1.371,1.371,0,0,0-1.717.176l-1.676,1.676s-.635-.635-.662-.649h0ZM44.169,23.067V20.688a1.362,1.362,0,0,0-1.1-1.338c-1.757-.351-2.569-1.163-2.569-1.6,0-.7,1.649-1.757,4.137-1.757s4.137,1.054,4.137,1.757c0,.446-.811,1.257-2.569,1.6a1.362,1.362,0,0,0-1.1,1.338v2.379h-.933ZM27.6,27.055c-1.487,1-2.636,1-2.961.676a.921.921,0,0,1-.189-.622,5.618,5.618,0,0,1,1.866-3.542c1.757-1.757,3.677-2.163,4.164-1.69.379.379.216,1.609-.676,2.961a1.369,1.369,0,0,0,.162,1.717l1.676,1.69c-.23.216-.446.433-.662.662L29.3,27.231a1.319,1.319,0,0,0-.96-.406,1.417,1.417,0,0,0-.757.23h0Zm-4.164,15.3a1.362,1.362,0,0,0-1.338,1.1c-.351,1.757-1.163,2.569-1.609,2.569-.7,0-1.757-1.649-1.757-4.137s1.054-4.137,1.757-4.137c.446,0,1.257.811,1.609,2.569a1.362,1.362,0,0,0,1.338,1.1h2.379v.933H23.432ZM29.8,58.932c1,1.487,1,2.636.689,2.947-.5.5-2.42.081-4.177-1.676a5.612,5.612,0,0,1-1.866-3.555.856.856,0,0,1,.189-.622.9.9,0,0,1,.622-.176,4.5,4.5,0,0,1,2.325.865,1.355,1.355,0,0,0,1.73-.176l1.676-1.676c.216.23.433.446.662.662L29.975,57.2a1.371,1.371,0,0,0-.176,1.717ZM45.088,60.7v2.379a1.362,1.362,0,0,0,1.1,1.338c1.757.351,2.569,1.163,2.569,1.6,0,.7-1.649,1.757-4.137,1.757s-4.137-1.054-4.137-1.757c0-.446.811-1.257,2.569-1.6a1.362,1.362,0,0,0,1.1-1.338V60.7h.933Zm16.587-3.988c1.338-.906,2.569-1.054,2.947-.689.5.5.081,2.42-1.676,4.177A5.618,5.618,0,0,1,59.4,62.068h0a.908.908,0,0,1-.635-.189c-.311-.311-.311-1.46.689-2.947a1.354,1.354,0,0,0-.176-1.717l-1.69-1.69c.23-.216.446-.433.662-.662l1.69,1.69a1.37,1.37,0,0,0,1.73.162h0Zm7.1-10.693c-.446,0-1.257-.811-1.609-2.569a1.362,1.362,0,0,0-1.338-1.1H63.447v-.933h2.379a1.362,1.362,0,0,0,1.338-1.1c.351-1.757,1.163-2.569,1.609-2.569.7,0,1.757,1.649,1.757,4.137s-1.054,4.137-1.757,4.137h0Z" transform="translate(-7.344 -0.29)"/>
      <path id="Path_321" data-name="Path 321" d="M36.869,36.119a4.38,4.38,0,1,0-4.38,4.38A4.388,4.388,0,0,0,36.869,36.119Zm-4.38,1.649a1.649,1.649,0,1,1,1.649-1.649A1.656,1.656,0,0,1,32.489,37.768Z" transform="translate(-4.303 4.354)"/>
      <path id="Path_322" data-name="Path 322" d="M44.593,36.421a4.11,4.11,0,1,0-4.11,4.11,4.116,4.116,0,0,0,4.11-4.11ZM40.483,37.8a1.379,1.379,0,1,1,1.379-1.379A1.385,1.385,0,0,1,40.483,37.8Z" transform="translate(-2.225 4.498)"/>
      <path id="Path_323" data-name="Path 323" d="M39.222,32.156a3.968,3.968,0,1,0-3.961-3.974A3.981,3.981,0,0,0,39.222,32.156Zm0-5.2a1.237,1.237,0,1,1,0,2.474,1.237,1.237,0,0,1,0-2.474Z" transform="translate(-2.505 2.464)"/>
      <path id="Path_324" data-name="Path 324" d="M46.751,29.524A3.853,3.853,0,1,0,50.6,33.377a3.86,3.86,0,0,0-3.853-3.853h0Zm0,4.988a1.122,1.122,0,1,1,1.122-1.122A1.119,1.119,0,0,1,46.751,34.513Z" transform="translate(-0.585 3.797)"/>
      <path id="Path_325" data-name="Path 325" d="M44.877,40.036A3.664,3.664,0,1,0,48.54,43.7,3.666,3.666,0,0,0,44.877,40.036Zm0,4.6a.933.933,0,1,1,.933-.933A.935.935,0,0,1,44.877,44.632Z" transform="translate(-1.009 6.44)"/>
      <path id="Path_326" data-name="Path 326" d="M35.783,39.744a3.738,3.738,0,1,0,3.745,3.731A3.739,3.739,0,0,0,35.783,39.744Zm0,4.745a1,1,0,0,1-1-1.014.99.99,0,0,1,1-1,1.007,1.007,0,1,1,0,2.014Z" transform="translate(-3.312 6.366)"/>
      <path id="Path_327" data-name="Path 327" d="M76.584,11.493A50.76,50.76,0,0,1,50.236,4.017a7.208,7.208,0,0,0-7.719,0A50.513,50.513,0,0,1,16.2,11.493a7.228,7.228,0,0,0-7.111,7.246v20.67C9.085,62.485,22.212,83.128,42.517,92c.338.149.689.3,1.041.446a7.41,7.41,0,0,0,5.624,0c.351-.149.7-.3,1.041-.446,20.332-8.882,33.472-29.525,33.472-52.587V18.739a7.228,7.228,0,0,0-7.111-7.246h0Zm4.38,27.916c0,21.981-12.491,41.637-31.836,50.086-.324.149-.662.284-.987.419a4.624,4.624,0,0,1-3.528,0c-.338-.135-.662-.284-.987-.419C24.307,81.059,11.816,61.39,11.816,39.409V18.739a4.481,4.481,0,0,1,4.394-4.515A53.278,53.278,0,0,0,43.963,6.329a4.488,4.488,0,0,1,4.813,0,53.44,53.44,0,0,0,27.781,7.895,4.472,4.472,0,0,1,4.394,4.515v20.67Z" transform="translate(-9.085 -2.897)"/>
    </g>
  </g>
</svg>
