<svg id="Group_343" data-name="Group 343" xmlns="http://www.w3.org/2000/svg" xmlns:xlink="http://www.w3.org/1999/xlink" width="400" height="432.358" viewBox="0 0 400 432.358">
  <defs>
    <clipPath id="clip-path">
      <rect id="Rectangle_97" data-name="Rectangle 97" width="400" height="432.358" fill="#fc1c15"/>
    </clipPath>
  </defs>
  <g id="Group_126" data-name="Group 126" transform="translate(0 0)" clip-path="url(#clip-path)">
    <path id="Path_89" data-name="Path 89" d="M120.239,132.4A44.916,44.916,0,1,0,75.322,87.483,44.972,44.972,0,0,0,120.239,132.4Z" transform="translate(121.517 68.675)" fill="#fc1c15"/>
    <path id="Path_90" data-name="Path 90" d="M425.952,61.273a45.257,45.257,0,0,0-63.2-10.087A254.454,254.454,0,0,0,266.8,187.179l-.661,2.261H179.991l-.661-2.261A254.44,254.44,0,0,0,83.377,51.185a45.254,45.254,0,0,0-53.11,73.287,165.84,165.84,0,0,1,66.1,104.535A165.344,165.344,0,0,1,68.536,355.447a45.257,45.257,0,1,0,73.938,52.211A256.981,256.981,0,0,0,188.7,282.8l.259-2.854h68.212l.256,2.854a257.024,257.024,0,0,0,46.227,124.858,45.257,45.257,0,1,0,73.938-52.211,166.361,166.361,0,0,1,38.272-230.974,45.256,45.256,0,0,0,10.087-63.2Z" transform="translate(18.693 68.669)" fill="#fc1c15"/>
  </g>
</svg>
