<svg xmlns="http://www.w3.org/2000/svg" width="62" height="42" viewBox="421 188 62 42"><g data-name="Group 166"><g data-name="Group 165"><path d="M427 188h50a6 6 0 0 1 6 6v30a6 6 0 0 1-6 6h-50a6 6 0 0 1-6-6v-30a6 6 0 0 1 6-6z" fill="rgba(212,213,215,0.2 )" fill-rule="evenodd" data-name="Rectangle 20"/><path d="M445.823 219.64h-1.545c-.355 0-.593 0-.95-.12-.474-.12-1.068-.24-1.543-.359-.95-.24-1.781-.719-2.612-1.198-1.07-.719-2.138-1.677-2.85-2.755-.713-.958-1.188-1.916-1.663-3.114-.237-.6-.356-1.318-.475-2.036 0-.36-.119-.72-.119-.959 0-.599 0-1.198.12-1.796 0-.36 0-.839.118-1.198.237-.839.475-1.557.831-2.396.475-1.078 1.188-2.036 2.019-2.995.475-.479.95-.958 1.544-1.317.356-.24.83-.48 1.187-.719l1.425-.719c.713-.24 1.425-.359 2.138-.479.475 0 .95-.12 1.425-.12h1.306c.475 0 .831.12 1.306.12.95.12 1.781.48 2.613.839.712.36 1.425.719 2.018 1.317l-.118.12a9.534 9.534 0 0 0-1.544 1.557c-.713.839-1.188 1.677-1.663 2.636-.593 1.437-.95 2.874-.95 4.312v.718c0 .48 0 .839.12 1.318.237 1.318.593 2.516 1.305 3.594.594 1.078 1.425 2.036 2.375 2.994l.357.36-.12.12c-.95.718-1.9 1.197-2.968 1.676-.831.24-1.662.48-2.612.6h-.475Z" fill="red" fill-rule="evenodd" data-name="Vector"/><path d="M452 217.245c.95-.719 1.663-1.557 2.375-2.516a11.13 11.13 0 0 0 1.781-4.791c.119-.958.119-1.917 0-2.875a12.725 12.725 0 0 0-.712-2.875c-.594-1.317-1.307-2.515-2.257-3.473-.356-.36-.712-.719-1.068-.959 1.544-1.197 3.206-1.916 5.106-2.275.594-.12 1.069-.12 1.662-.12h1.07c.474 0 .95.12 1.305.24.594.12 1.188.359 1.782.598 2.375.959 4.275 2.636 5.581 4.911.594.959.95 2.037 1.188 3.235v3.114c0 .36 0 .719-.12 1.078-.118.599-.237 1.198-.474 1.797-.713 2.036-1.9 3.713-3.563 5.03-1.662 1.318-3.562 2.037-5.7 2.276H458.175c-.119 0-.238 0-.356-.12-.356-.12-.831-.12-1.188-.239-.712-.12-1.543-.48-2.256-.719-.95-.24-1.662-.718-2.375-1.317Z" fill="#f90" fill-rule="evenodd" data-name="Vector"/></g><path d="M452 199.757c.356.359.831.718 1.188 1.078.95 1.078 1.78 2.156 2.256 3.473.356.959.594 1.797.712 2.875.119.958.119 1.917 0 2.875-.237 1.677-.831 3.354-1.781 4.791a8.684 8.684 0 0 1-2.256 2.396H452l-.356-.36c-.95-.838-1.782-1.796-2.375-2.994-.594-1.198-1.069-2.396-1.307-3.594-.118-.479-.118-.838-.118-1.317v-.719c0-1.557.356-2.994.95-4.312.475-.958.95-1.797 1.662-2.635a9.534 9.534 0 0 1 1.544-1.557c-.119 0-.119 0 0 0Z" fill="#ff4f00" fill-rule="evenodd" data-name="Vector"/></g></svg>