<svg xmlns="http://www.w3.org/2000/svg" xmlns:xlink="http://www.w3.org/1999/xlink" width="82" height="82" viewBox="0 0 82 82">
  <defs>
    <clipPath id="clip-path">
      <rect id="Rectangle_562" data-name="Rectangle 562" width="82" height="82" transform="translate(735 262)" fill="#fff" stroke="#707070" stroke-width="1"/>
    </clipPath>
  </defs>
  <g id="Mask_Group_104" data-name="Mask Group 104" transform="translate(-735 -262)" clip-path="url(#clip-path)">
    <g id="letter-i" transform="translate(735 262)">
      <circle id="Ellipse_11" data-name="Ellipse 11" cx="41" cy="41" r="41" fill="#fc1c15"/>
      <circle id="Ellipse_12" data-name="Ellipse 12" cx="36.355" cy="36.355" r="36.355" transform="translate(4.645 4.645)" fill="#fff"/>
      <path id="Path_1005" data-name="Path 1005" d="M58.073,34.641a4.5,4.5,0,0,1-3.043-1.089,3.862,3.862,0,0,1-1.265-3.091,3.9,3.9,0,0,1,1.3-2.995A4.317,4.317,0,0,1,58.073,26.3a4.528,4.528,0,0,1,2.947,1.057A3.807,3.807,0,0,1,62.3,30.445a3.892,3.892,0,0,1-1.249,3.075A4.369,4.369,0,0,1,58.073,34.641ZM62.3,43.465v24.68a5.489,5.489,0,0,1-1.217,3.876,4.036,4.036,0,0,1-3.091,1.313,3.881,3.881,0,0,1-3.059-1.345,5.658,5.658,0,0,1-1.169-3.844V43.706a5.458,5.458,0,0,1,1.169-3.812,3.965,3.965,0,0,1,3.059-1.281,4.107,4.107,0,0,1,3.091,1.281A5,5,0,0,1,62.3,43.465Z" transform="translate(-17.025 -8.327)" fill="#fc1c15"/>
    </g>
  </g>
</svg>
