<svg xmlns="http://www.w3.org/2000/svg" width="14.02" height="14.02" viewBox="1193 116 14.02 14.02"><g data-name="Group 32"><path d="M1200.01 130.02a7.016 7.016 0 0 1-7.01-7.01 7.016 7.016 0 0 1 7.01-7.01 7.016 7.016 0 0 1 7.01 7.01 7.016 7.016 0 0 1-7.01 7.01Zm0-13.042a6.04 6.04 0 0 0-6.032 6.032 6.04 6.04 0 0 0 6.032 6.032 6.04 6.04 0 0 0 6.032-6.032 6.04 6.04 0 0 0-6.032-6.032Z" fill="#3c4a53" fill-rule="evenodd" data-name="Vector"/><path d="M1202.618 123.499h-5.216a.493.493 0 0 1-.49-.49c0-.266.222-.488.49-.488h5.216c.268 0 .49.222.49.489s-.222.489-.49.489Z" fill="#3c4a53" fill-rule="evenodd" data-name="Vector"/><path d="M1200.01 126.107a.493.493 0 0 1-.49-.489v-5.216c0-.268.223-.49.49-.49s.489.222.489.49v5.216c0 .268-.222.49-.49.49Z" fill="#3c4a53" fill-rule="evenodd" data-name="Vector"/></g></svg>