<svg xmlns="http://www.w3.org/2000/svg" xmlns:xlink="http://www.w3.org/1999/xlink" width="72" height="72" viewBox="0 0 72 72">
  <defs>
    <clipPath id="clip-path">
      <circle id="Ellipse_7" data-name="Ellipse 7" cx="36" cy="36" r="36" transform="translate(154 5219)" fill="#fff" stroke="#707070" stroke-width="1"/>
    </clipPath>
  </defs>
  <g id="Mask_Group_88" data-name="Mask Group 88" transform="translate(-154 -5219)" clip-path="url(#clip-path)">
    <g id="user" transform="translate(154 5219)">
      <g id="Group_422" data-name="Group 422">
        <path id="Path_795" data-name="Path 795" d="M47.463,70.126c-.375.127-.752.25-1.132.362C46.712,70.374,47.088,70.251,47.463,70.126Z" fill="#f9ede0"/>
        <path id="Path_796" data-name="Path 796" d="M49.344,69.435c-.4.161-.809.32-1.222.467C48.534,69.754,48.94,69.6,49.344,69.435Z" fill="#f9ede0"/>
      </g>
      <circle id="Ellipse_8" data-name="Ellipse 8" cx="36" cy="36" r="36" fill="#efece8"/>
      <g id="Group_423" data-name="Group 423">
        <path id="Path_797" data-name="Path 797" d="M45.6,70.694q-.551.153-1.111.289Q45.054,70.847,45.6,70.694Z" fill="#f9ede0"/>
        <path id="Path_798" data-name="Path 798" d="M33.392,71.9c-.439-.031-.878-.065-1.311-.112C32.515,71.831,32.954,71.865,33.392,71.9Z" fill="#f9ede0"/>
        <path id="Path_799" data-name="Path 799" d="M27.505,70.982q-.559-.136-1.111-.289Q26.947,70.847,27.505,70.982Z" fill="#f9ede0"/>
        <path id="Path_800" data-name="Path 800" d="M31.336,71.69c-.394-.051-.786-.1-1.176-.168C30.549,71.585,30.943,71.638,31.336,71.69Z" fill="#f9ede0"/>
        <path id="Path_801" data-name="Path 801" d="M36,72c-.663,0-1.32-.021-1.974-.056C34.68,71.979,35.337,72,36,72Z" fill="#f9ede0"/>
        <path id="Path_802" data-name="Path 802" d="M29.392,71.384c-.377-.07-.754-.144-1.126-.226C28.639,71.24,29.015,71.315,29.392,71.384Z" fill="#f9ede0"/>
        <path id="Path_803" data-name="Path 803" d="M22.129,69.227q-.84-.352-1.658-.741Q21.29,68.877,22.129,69.227Z" fill="#f9ede0"/>
        <path id="Path_804" data-name="Path 804" d="M23.877,69.9c-.411-.148-.817-.305-1.222-.467C23.06,69.6,23.466,69.754,23.877,69.9Z" fill="#f9ede0"/>
        <path id="Path_805" data-name="Path 805" d="M37.974,71.944C37.32,71.979,36.663,72,36,72,36.663,72,37.32,71.979,37.974,71.944Z" fill="#f9ede0"/>
        <path id="Path_806" data-name="Path 806" d="M39.919,71.784c-.434.047-.873.081-1.311.112C39.046,71.865,39.485,71.831,39.919,71.784Z" fill="#f9ede0"/>
        <path id="Path_807" data-name="Path 807" d="M43.735,71.158c-.374.082-.749.156-1.126.226C42.985,71.315,43.361,71.24,43.735,71.158Z" fill="#f9ede0"/>
        <path id="Path_808" data-name="Path 808" d="M41.841,71.521c-.39.063-.782.117-1.176.168C41.057,71.638,41.451,71.585,41.841,71.521Z" fill="#f9ede0"/>
        <path id="Path_809" data-name="Path 809" d="M51.522,68.488q-.814.389-1.651.739C50.429,68.993,50.98,68.749,51.522,68.488Z" fill="#f9ede0"/>
        <path id="Path_810" data-name="Path 810" d="M25.669,70.488c-.381-.114-.757-.237-1.132-.362C24.912,70.251,25.288,70.374,25.669,70.488Z" fill="#f9ede0"/>
        <path id="Path_811" data-name="Path 811" d="M49.871,69.227c-.174.073-.351.138-.526.207C49.519,69.365,49.7,69.3,49.871,69.227Z" fill="#f9ede0"/>
        <path id="Path_812" data-name="Path 812" d="M51.572,68.466l-.05.022C51.538,68.481,51.556,68.474,51.572,68.466Z" fill="#f9ede0"/>
        <path id="Path_813" data-name="Path 813" d="M28.265,71.158q-.382-.084-.76-.175Q27.883,71.075,28.265,71.158Z" fill="#f9ede0"/>
        <path id="Path_814" data-name="Path 814" d="M30.159,71.521c-.257-.042-.513-.089-.768-.137C29.648,71.431,29.9,71.48,30.159,71.521Z" fill="#f9ede0"/>
        <path id="Path_815" data-name="Path 815" d="M34.026,71.944c-.212-.011-.423-.034-.634-.048C33.6,71.911,33.814,71.933,34.026,71.944Z" fill="#f9ede0"/>
        <path id="Path_816" data-name="Path 816" d="M32.081,71.784c-.25-.027-.5-.062-.745-.094C31.584,71.722,31.831,71.757,32.081,71.784Z" fill="#f9ede0"/>
        <path id="Path_817" data-name="Path 817" d="M20.472,68.486l-.042-.019Z" fill="#f9ede0"/>
        <path id="Path_818" data-name="Path 818" d="M38.608,71.9c-.212.015-.422.037-.634.048C38.186,71.933,38.4,71.911,38.608,71.9Z" fill="#f9ede0"/>
        <path id="Path_819" data-name="Path 819" d="M46.331,70.488c-.241.072-.483.139-.726.206C45.848,70.627,46.09,70.56,46.331,70.488Z" fill="#f9ede0"/>
        <path id="Path_820" data-name="Path 820" d="M48.123,69.9c-.218.078-.439.149-.659.223C47.684,70.051,47.9,69.98,48.123,69.9Z" fill="#f9ede0"/>
        <path id="Path_821" data-name="Path 821" d="M22.656,69.435c-.175-.07-.353-.135-.526-.207C22.3,69.3,22.481,69.365,22.656,69.435Z" fill="#f9ede0"/>
        <path id="Path_822" data-name="Path 822" d="M24.537,70.126c-.22-.074-.442-.145-.659-.223C24.1,69.98,24.316,70.051,24.537,70.126Z" fill="#f9ede0"/>
        <path id="Path_823" data-name="Path 823" d="M40.664,71.69c-.248.032-.5.068-.745.094C40.169,71.757,40.416,71.722,40.664,71.69Z" fill="#f9ede0"/>
        <path id="Path_824" data-name="Path 824" d="M44.495,70.982q-.378.091-.76.175Q44.117,71.075,44.495,70.982Z" fill="#f9ede0"/>
        <path id="Path_825" data-name="Path 825" d="M42.608,71.384c-.256.047-.51.1-.768.137C42.1,71.48,42.352,71.431,42.608,71.384Z" fill="#f9ede0"/>
        <path id="Path_826" data-name="Path 826" d="M26.4,70.694c-.242-.067-.485-.134-.726-.206C25.91,70.56,26.152,70.627,26.4,70.694Z" fill="#f9ede0"/>
      </g>
      <path id="Path_827" data-name="Path 827" d="M44.24,38.475a14.9,14.9,0,1,0-16.481,0h0a0,0,0,0,1,0,0A28.585,28.585,0,0,0,8.278,58.964h0c.392.473.8.935,1.215,1.388.1.11.206.216.309.324.32.34.644.675.977,1,.138.135.278.266.418.4.308.293.619.582.937.864.158.139.318.277.477.413q.467.4.948.785c.169.135.339.268.509.4q.488.376.989.732c.173.123.343.248.518.369.353.243.711.477,1.073.708.163.1.322.21.485.312.417.257.842.5,1.27.744.113.063.223.132.338.194q.83.454,1.687.868l.042.019q.817.391,1.658.741c.174.073.351.138.526.207.4.161.809.32,1.222.467.218.078.439.149.659.223.375.127.752.25,1.132.362.241.072.483.139.726.206q.551.153,1.111.289.378.091.76.175c.374.082.749.156,1.126.226.256.047.51.1.768.137.39.063.782.117,1.176.168.248.032.5.068.745.094.434.047.873.081,1.311.112.212.015.422.037.634.048C34.68,71.979,35.337,72,36,72s1.32-.021,1.974-.056c.212-.011.423-.034.634-.048.439-.031.878-.065,1.311-.112.25-.027.5-.062.745-.094.394-.051.786-.1,1.176-.168.257-.042.513-.089.768-.137.377-.07.754-.144,1.126-.226q.382-.084.76-.175.559-.136,1.111-.289c.242-.067.485-.134.726-.206.381-.114.757-.237,1.132-.362.22-.074.442-.145.659-.223.411-.148.817-.305,1.222-.467.175-.07.353-.135.526-.207.557-.233,1.109-.478,1.651-.739l.05-.022q.857-.412,1.687-.868c.114-.062.225-.13.338-.194.428-.241.853-.487,1.27-.744.164-.1.324-.207.485-.312.361-.231.72-.466,1.073-.708.174-.12.345-.245.518-.369q.5-.359.989-.732c.171-.132.34-.266.509-.4q.48-.384.948-.785c.16-.137.32-.274.477-.413.318-.282.629-.571.937-.864.139-.133.281-.264.418-.4q.5-.492.977-1c.1-.109.207-.215.309-.324.416-.453.823-.915,1.215-1.388h0A28.581,28.581,0,0,0,44.24,38.475Z" fill="#c6c3bd"/>
    </g>
  </g>
</svg>
