<svg xmlns="http://www.w3.org/2000/svg" xmlns:xlink="http://www.w3.org/1999/xlink" width="26" height="21" viewBox="0 0 26 21">
  <defs>
    <clipPath id="clip-path">
      <rect id="Rectangle_665" data-name="Rectangle 665" width="26" height="21" transform="translate(17087 -1614.527)" fill="#fff" stroke="#707070" stroke-width="1"/>
    </clipPath>
  </defs>
  <g id="Mask_Group_158" data-name="Mask Group 158" transform="translate(-17087 1614.527)" clip-path="url(#clip-path)">
    <g id="simpleline" transform="translate(17086.133 -1617.894)">
      <rect id="Rectangle_666" data-name="Rectangle 666" width="21.667" height="13" rx="1.733" transform="translate(1.3 10.833)" fill="#f9c33d"/>
      <path id="Path_1093" data-name="Path 1093" d="M1.3,13.867H22.967V16.9H1.3Z" fill="#f7931e"/>
      <path id="Path_1094" data-name="Path 1094" d="M22.967,22.1a1.733,1.733,0,0,1-1.733,1.733H3.033A1.733,1.733,0,0,1,1.3,22.1V12.567a1.733,1.733,0,0,1,1.733-1.733H3.9v9.533A1.733,1.733,0,0,0,5.633,22.1Z" fill="#f7a83e"/>
      <path id="Path_1095" data-name="Path 1095" d="M1.3,13.867H3.9V16.9H1.3Z" fill="#f47621"/>
      <circle id="Ellipse_17" data-name="Ellipse 17" cx="6.933" cy="6.933" r="6.933" transform="translate(12.567 3.9)" fill="#f7616c"/>
      <path id="Path_1096" data-name="Path 1096" d="M24.548,15.6a6.933,6.933,0,1,1-7.5-11.267,6.933,6.933,0,0,0,5.048,11.7,6.842,6.842,0,0,0,2.448-.433Z" fill="#ea3d53"/>
      <rect id="Rectangle_667" data-name="Rectangle 667" width="2.6" height="6.067" rx="1.3" transform="translate(18.2 5.633)" fill="#fff"/>
      <circle id="Ellipse_18" data-name="Ellipse 18" cx="1.3" cy="1.3" r="1.3" transform="translate(18.2 13.433)" fill="#fff"/>
      <rect id="Rectangle_668" data-name="Rectangle 668" width="4.333" height="2.6" rx="0.867" transform="translate(4.767 19.067)" fill="#f7931e"/>
      <path id="Path_1097" data-name="Path 1097" d="M17.767,23.4H16.9a.433.433,0,0,0,0,.867h.867a.433.433,0,1,0,0-.867Z"/>
      <path id="Path_1098" data-name="Path 1098" d="M22.967,18.343a.433.433,0,0,0-.433.433V22.1a1.3,1.3,0,0,1-1.3,1.3H19.5a.433.433,0,0,0,0,.867h1.733A2.167,2.167,0,0,0,23.4,22.1V18.776A.433.433,0,0,0,22.967,18.343Z"/>
      <path id="Path_1099" data-name="Path 1099" d="M15.167,23.4H3.033a1.3,1.3,0,0,1-1.3-1.3V17.333H13.316a.433.433,0,1,0,0-.867H1.733V14.3h9.646a.433.433,0,0,0,0-.867H1.733v-.867a1.3,1.3,0,0,1,1.3-1.3h7.8a.433.433,0,1,0,0-.867h-7.8A2.167,2.167,0,0,0,.867,12.567V22.1a2.167,2.167,0,0,0,2.167,2.167H15.167a.433.433,0,1,0,0-.867Z"/>
      <path id="Path_1100" data-name="Path 1100" d="M19.5,3.467a7.367,7.367,0,1,0,7.367,7.367A7.367,7.367,0,0,0,19.5,3.467Zm0,13.867a6.5,6.5,0,1,1,6.5-6.5,6.5,6.5,0,0,1-6.5,6.5Z"/>
      <path id="Path_1101" data-name="Path 1101" d="M19.5,5.2a1.733,1.733,0,0,0-1.733,1.733V10.4a1.733,1.733,0,0,0,3.467,0V6.933A1.733,1.733,0,0,0,19.5,5.2Zm.867,5.2a.867.867,0,0,1-1.733,0V6.933a.867.867,0,1,1,1.733,0Z"/>
      <path id="Path_1102" data-name="Path 1102" d="M19.5,13a1.733,1.733,0,1,0,1.733,1.733A1.733,1.733,0,0,0,19.5,13Zm0,2.6a.867.867,0,1,1,.867-.867A.867.867,0,0,1,19.5,15.6Z"/>
      <path id="Path_1103" data-name="Path 1103" d="M5.633,18.633a1.3,1.3,0,0,0-1.3,1.3V20.8a1.3,1.3,0,0,0,1.3,1.3h2.6a1.3,1.3,0,0,0,1.3-1.3v-.867a1.3,1.3,0,0,0-1.3-1.3Zm3.033,1.3V20.8a.433.433,0,0,1-.433.433h-2.6A.433.433,0,0,1,5.2,20.8v-.867a.433.433,0,0,1,.433-.433h2.6A.433.433,0,0,1,8.667,19.933Z"/>
    </g>
  </g>
</svg>
