<svg xmlns="http://www.w3.org/2000/svg" xmlns:xlink="http://www.w3.org/1999/xlink" width="36.16" height="35.191" viewBox="0 0 36.16 35.191">
  <defs>
    <clipPath id="clip-path">
      <rect id="Rectangle_21" data-name="Rectangle 21" width="36.16" height="35.191" fill="#fff"/>
    </clipPath>
  </defs>
  <g id="Group_9" data-name="Group 9" clip-path="url(#clip-path)">
    <path id="Path_13" data-name="Path 13" d="M24.517,73.885a3.775,3.775,0,1,0,3.775,3.775,3.775,3.775,0,0,0-3.775-3.775m0,5.872a2.1,2.1,0,1,1,2.1-2.1,2.1,2.1,0,0,1-2.1,2.1" transform="translate(-12.982 -46.243)" fill="#fff"/>
    <path id="Path_14" data-name="Path 14" d="M67.121,73.885A3.775,3.775,0,1,0,70.9,77.66a3.775,3.775,0,0,0-3.775-3.775m0,5.872a2.1,2.1,0,1,1,2.1-2.1,2.1,2.1,0,0,1-2.1,2.1" transform="translate(-39.647 -46.243)" fill="#fff"/>
    <path id="Path_15" data-name="Path 15" d="M35.989,5.621a1.048,1.048,0,0,0-.671-.336L8.011,4.908,7.256,2.6A3.859,3.859,0,0,0,3.649,0H.839a.839.839,0,0,0,0,1.678h2.81A2.181,2.181,0,0,1,5.663,3.146l5.327,16.065-.419.965a4.027,4.027,0,0,0,.377,3.649,3.9,3.9,0,0,0,3.146,1.762H30.41a.839.839,0,0,0,0-1.678H14.093A2.139,2.139,0,0,1,12.332,22.9a2.306,2.306,0,0,1-.21-2.014l.336-.755,17.659-1.846A4.614,4.614,0,0,0,34.1,14.765l2.013-8.431a.713.713,0,0,0-.126-.713m-3.523,8.766a2.852,2.852,0,0,1-2.559,2.223l-17.449,1.8L8.557,6.585l25.712.378Z" transform="translate(0 0)" fill="#fff"/>
  </g>
</svg>
