<svg xmlns="http://www.w3.org/2000/svg" xmlns:xlink="http://www.w3.org/1999/xlink" width="32" height="32" viewBox="0 0 32 32">
  <defs>
    <clipPath id="clip-path">
      <rect id="Rectangle_347" data-name="Rectangle 347" width="32" height="32" transform="translate(-114 811)" fill="#fff" stroke="#707070" stroke-width="1"/>
    </clipPath>
  </defs>
  <g id="Mask_Group_25" data-name="Mask Group 25" transform="translate(114 -811)" clip-path="url(#clip-path)">
    <g id="shopping-cart" transform="translate(-114 811)">
      <g id="Group_481" data-name="Group 481">
        <g id="Group_480" data-name="Group 480">
          <path id="Path_822" data-name="Path 822" d="M10.208,24.89a3.341,3.341,0,1,0,3.341,3.341A3.341,3.341,0,0,0,10.208,24.89Zm0,5.2a1.856,1.856,0,1,1,1.856-1.856A1.856,1.856,0,0,1,10.208,30.087Z"/>
          <path id="Path_823" data-name="Path 823" d="M24.313,24.89a3.341,3.341,0,1,0,3.341,3.341A3.341,3.341,0,0,0,24.313,24.89Zm0,5.2a1.856,1.856,0,1,1,1.856-1.856A1.856,1.856,0,0,1,24.313,30.087Z"/>
          <path id="Path_824" data-name="Path 824" d="M31.849,5.4a.928.928,0,0,0-.594-.3L7.09,4.771,6.422,2.73A3.415,3.415,0,0,0,3.229.428H.742a.742.742,0,1,0,0,1.485H3.229a1.93,1.93,0,0,1,1.782,1.3L9.725,17.429l-.371.854a3.563,3.563,0,0,0,.334,3.229,3.452,3.452,0,0,0,2.784,1.559h14.44a.742.742,0,0,0,0-1.485H12.472a1.893,1.893,0,0,1-1.559-.891,2.041,2.041,0,0,1-.186-1.782l.3-.668,15.627-1.633a4.083,4.083,0,0,0,3.526-3.118L31.96,6.033A.631.631,0,0,0,31.849,5.4ZM28.731,13.16a2.524,2.524,0,0,1-2.264,1.967l-15.442,1.6L7.572,6.256l22.754.334Z"/>
        </g>
      </g>
    </g>
  </g>
</svg>
