<svg xmlns="http://www.w3.org/2000/svg" xmlns:xlink="http://www.w3.org/1999/xlink" width="32" height="32" viewBox="0 0 32 32">
  <defs>
    <clipPath id="clip-path">
      <rect id="Rectangle_350" data-name="Rectangle 350" width="32" height="32" transform="translate(-369 816)" fill="#fff" stroke="#707070" stroke-width="1"/>
    </clipPath>
  </defs>
  <g id="Mask_Group_28" data-name="Mask Group 28" transform="translate(369 -816)" clip-path="url(#clip-path)">
    <path id="categories" d="M15.385,3.692H6.769A3.081,3.081,0,0,0,3.692,6.769v8.615a3.081,3.081,0,0,0,3.077,3.077h8.615a3.081,3.081,0,0,0,3.077-3.077V6.769a3.081,3.081,0,0,0-3.077-3.077Zm1.846,11.692a1.846,1.846,0,0,1-1.846,1.846H6.769a1.846,1.846,0,0,1-1.846-1.846V6.769A1.846,1.846,0,0,1,6.769,4.923h8.615a1.846,1.846,0,0,1,1.846,1.846ZM32.615,3.692H24a3.081,3.081,0,0,0-3.077,3.077v8.615A3.081,3.081,0,0,0,24,18.462h8.615a3.081,3.081,0,0,0,3.077-3.077V6.769a3.081,3.081,0,0,0-3.077-3.077Zm1.846,11.692a1.846,1.846,0,0,1-1.846,1.846H24a1.846,1.846,0,0,1-1.846-1.846V6.769A1.846,1.846,0,0,1,24,4.923h8.615a1.846,1.846,0,0,1,1.846,1.846ZM15.385,20.923H6.769A3.081,3.081,0,0,0,3.692,24v8.615a3.081,3.081,0,0,0,3.077,3.077h8.615a3.081,3.081,0,0,0,3.077-3.077V24a3.081,3.081,0,0,0-3.077-3.077Zm1.846,11.692a1.846,1.846,0,0,1-1.846,1.846H6.769a1.846,1.846,0,0,1-1.846-1.846V24a1.846,1.846,0,0,1,1.846-1.846h8.615A1.846,1.846,0,0,1,17.231,24ZM28.308,20.923a7.385,7.385,0,1,0,7.385,7.385A7.385,7.385,0,0,0,28.308,20.923Zm0,13.538a6.154,6.154,0,1,1,6.154-6.154,6.154,6.154,0,0,1-6.154,6.154Z" transform="translate(-372.692 812.308)"/>
  </g>
</svg>
