<svg xmlns="http://www.w3.org/2000/svg" xmlns:xlink="http://www.w3.org/1999/xlink" width="26" height="21" viewBox="0 0 26 21">
  <defs>
    <clipPath id="clip-path">
      <rect id="Rectangle_670" data-name="Rectangle 670" width="26" height="21" transform="translate(137 71)" fill="#fff" stroke="#707070" stroke-width="1"/>
    </clipPath>
  </defs>
  <g id="Mask_Group_160" data-name="Mask Group 160" transform="translate(-137 -71)" clip-path="url(#clip-path)">
    <g id="code" transform="translate(136.58 68.081)">
      <g id="Group_601" data-name="Group 601">
        <path id="Path_1104" data-name="Path 1104" d="M.839,6.71H26v3.355H.839Z" fill="#57a4ff"/>
        <path id="Path_1105" data-name="Path 1105" d="M2.516,13.419h7.548v2.935H2.516Z" fill="#57a4ff"/>
        <path id="Path_1106" data-name="Path 1106" d="M18.032,12.161a5.453,5.453,0,1,0,5.452,5.452,5.453,5.453,0,0,0-5.452-5.452Z" fill="#57a4ff"/>
      </g>
      <g id="Group_602" data-name="Group 602">
        <path id="Path_1107" data-name="Path 1107" d="M24.952,3.355H1.887A1.469,1.469,0,0,0,.419,4.823V19.5a1.469,1.469,0,0,0,1.468,1.468h11.33a5.866,5.866,0,0,0,9.63,0h2.1A1.469,1.469,0,0,0,26.419,19.5V4.823A1.469,1.469,0,0,0,24.952,3.355Zm-6.919,19.29a5.032,5.032,0,1,1,5.032-5.032,5.032,5.032,0,0,1-5.032,5.032ZM25.581,19.5a.63.63,0,0,1-.629.629H23.336a5.871,5.871,0,1,0-10.608,0H1.887a.63.63,0,0,1-.629-.629V10.484H25.581Zm0-9.855H1.258V7.129H25.581Zm0-3.355H1.258V4.823a.63.63,0,0,1,.629-.629H24.952a.63.63,0,0,1,.629.629Z" fill="#004fac"/>
        <path id="Path_1108" data-name="Path 1108" d="M10.065,13H2.516a.419.419,0,0,0-.419.419v2.935a.419.419,0,0,0,.419.419h7.548a.419.419,0,0,0,.419-.419V13.419A.419.419,0,0,0,10.065,13Zm-.419,2.935H2.935v-2.1h6.71Z" fill="#004fac"/>
        <path id="Path_1109" data-name="Path 1109" d="M15.935,16.774a.419.419,0,0,0,0-.839H14.677a.419.419,0,0,0-.419.419V19.29a.419.419,0,0,0,.419.419h1.258a.419.419,0,1,0,0-.839H15.1v-2.1Z" fill="#004fac"/>
        <path id="Path_1110" data-name="Path 1110" d="M18.986,15.952a.419.419,0,0,0-.518.288l-.436,1.524L17.6,16.24a.419.419,0,1,0-.806.231l.839,2.935a.419.419,0,0,0,.806,0l.839-2.935a.419.419,0,0,0-.288-.519Z" fill="#004fac"/>
        <path id="Path_1111" data-name="Path 1111" d="M21.922,15.952a.419.419,0,0,0-.518.288l-.436,1.524-.436-1.524a.419.419,0,1,0-.806.231l.839,2.935a.419.419,0,0,0,.806,0l.839-2.935a.419.419,0,0,0-.288-.519Z" fill="#004fac"/>
        <path id="Path_1112" data-name="Path 1112" d="M6.29,17.194H2.516a.419.419,0,1,0,0,.839H6.29a.419.419,0,1,0,0-.839Z" fill="#004fac"/>
        <path id="Path_1113" data-name="Path 1113" d="M3.774,18.452H2.516a.419.419,0,1,0,0,.839H3.774a.419.419,0,1,0,0-.839Z" fill="#004fac"/>
      </g>
    </g>
  </g>
</svg>
