<svg xmlns="http://www.w3.org/2000/svg" xmlns:xlink="http://www.w3.org/1999/xlink" width="32" height="32" viewBox="0 0 32 32">
  <defs>
    <clipPath id="clip-path">
      <rect id="Rectangle_349" data-name="Rectangle 349" width="32" height="32" transform="translate(-284 816)" fill="#fff" stroke="#707070" stroke-width="1"/>
    </clipPath>
  </defs>
  <g id="Mask_Group_26" data-name="Mask Group 26" transform="translate(284 -816)" clip-path="url(#clip-path)">
    <g id="a" transform="translate(-284.008 816.002)">
      <g id="Group_482" data-name="Group 482">
        <path id="Path_825" data-name="Path 825" d="M28.281,12.149c.224-.2,1.364-1.2,1.557-1.374.312.348.6.662.64.7a.526.526,0,0,0,.587.044,3.008,3.008,0,0,0,.831-.729.538.538,0,0,0,.039-.594c-.06-.1-1.283-1.578-1.426-1.734s-1.409-1.6-1.5-1.67a.524.524,0,0,0-.587-.044,2.817,2.817,0,0,0-.449.326,2.857,2.857,0,0,0-.382.4.538.538,0,0,0-.039.594c.028.046.295.376.592.737-.178.149-1.3,1.113-1.5,1.287l1.638,2.059Z" fill="#454565"/>
        <path id="Path_826" data-name="Path 826" d="M22.285,7.884c.031-.256.325-1.584.351-1.811.71-.013,1.355-.029,1.436-.042a.916.916,0,0,0,.714-.548,3.509,3.509,0,0,0,.179-.727,3.222,3.222,0,0,0,.025-.727.635.635,0,0,0-.559-.548c-.171-.027-3.067-.073-3.389-.064-.319-.009-3.227.037-3.406.064a.917.917,0,0,0-.714.548,3.509,3.509,0,0,0-.179.727,3.221,3.221,0,0,0-.025.727.635.635,0,0,0,.559.548c.078.012.719.029,1.424.042-.037.227-.342,1.554-.382,1.811h3.965Z" fill="#454565"/>
        <rect id="Rectangle_352" data-name="Rectangle 352" width="2.364" height="2.364" rx="1.182" transform="translate(0.998 14.106)" fill="#f04760"/>
        <path id="Path_827" data-name="Path 827" d="M20.453,7.619a11.664,11.664,0,0,0-6.044,1.749l-4.222,0H2.867a1.179,1.179,0,0,0-1.179,1.179v.012a1.179,1.179,0,0,0,1.179,1.179l5.8,0a1.178,1.178,0,0,1,1.093,1.176v.012A1.179,1.179,0,0,1,8.579,14.1H5.331a1.179,1.179,0,0,0-1.179,1.179V15.3a1.179,1.179,0,0,0,1.179,1.179H6.606a1.179,1.179,0,0,1,1.179,1.179v.012a1.179,1.179,0,0,1-1.179,1.179H1.186A1.179,1.179,0,0,0,.008,20.022v.012a1.179,1.179,0,0,0,1.179,1.179H7.54a1.178,1.178,0,0,1,1.179,1.179V22.4A1.179,1.179,0,0,1,7.54,23.582H4.453a1.179,1.179,0,0,0-1.179,1.179v.012a1.179,1.179,0,0,0,1.179,1.179h6.481a9.11,9.11,0,0,0,6.572,2.629A12.471,12.471,0,0,0,29.461,18.1,8.9,8.9,0,0,0,20.452,7.615Z" fill="#e03757"/>
        <path id="Path_828" data-name="Path 828" d="M8.477,23.119A17.3,17.3,0,0,0,24.655,8.554a9.569,9.569,0,0,0-4.2-.935,11.664,11.664,0,0,0-6.044,1.749l-4.222,0H2.867a1.179,1.179,0,0,0-1.179,1.179v.012a1.179,1.179,0,0,0,1.179,1.179l5.8,0a1.178,1.178,0,0,1,1.093,1.176v.012A1.179,1.179,0,0,1,8.579,14.1H5.331a1.179,1.179,0,0,0-1.179,1.179V15.3a1.179,1.179,0,0,0,1.179,1.179H6.606a1.179,1.179,0,0,1,1.179,1.179v.012a1.179,1.179,0,0,1-1.179,1.179H1.186A1.179,1.179,0,0,0,.008,20.022v.012a1.179,1.179,0,0,0,1.179,1.179H7.54a1.178,1.178,0,0,1,1.179,1.179V22.4a1.171,1.171,0,0,1-.242.713Z" fill="#f04760"/>
        <path id="Path_829" data-name="Path 829" d="M24.36,17.037l-4.939,7.62a.616.616,0,0,1-.517.281h-.387a.615.615,0,0,1-.6-.761l1.217-5.022H16.17a.549.549,0,0,1-.534-.678l1.646-6.795a.549.549,0,0,1,.534-.42H21.23a.549.549,0,0,1,.534.678l-1,4.146h3.084a.616.616,0,0,1,.517.951Z" fill="#fff"/>
      </g>
    </g>
  </g>
</svg>
