<svg xmlns="http://www.w3.org/2000/svg" xmlns:xlink="http://www.w3.org/1999/xlink" width="32" height="32" viewBox="0 0 32 32">
  <defs>
    <clipPath id="clip-path">
      <rect id="Rectangle_351" data-name="Rectangle 351" width="32" height="32" transform="translate(-454 816)" fill="#fff" stroke="#707070" stroke-width="1"/>
    </clipPath>
  </defs>
  <g id="Mask_Group_29" data-name="Mask Group 29" transform="translate(454 -816)" clip-path="url(#clip-path)">
    <g id="_9-Home" data-name="9-Home" transform="translate(-456.28 813.722)">
      <path id="Path_832" data-name="Path 832" d="M24.928,34.274H11.63a5.712,5.712,0,0,1-5.918-5.438V21.707a1.142,1.142,0,1,1,2.285,0v7.129a3.427,3.427,0,0,0,3.633,3.153h13.3a3.427,3.427,0,0,0,3.633-3.153V21.707a1.142,1.142,0,0,1,2.285,0v7.129a5.712,5.712,0,0,1-5.918,5.438ZM33.942,19.09a1.142,1.142,0,0,0,0-1.622L19.09,2.616a1.142,1.142,0,0,0-1.622,0L2.616,17.468A1.147,1.147,0,0,0,4.239,19.09L18.279,5.038,32.32,19.09a1.142,1.142,0,0,0,1.622,0Z"/>
    </g>
  </g>
</svg>
