<svg xmlns="http://www.w3.org/2000/svg" xmlns:xlink="http://www.w3.org/1999/xlink" width="32" height="32" viewBox="0 0 32 32">
  <defs>
    <clipPath id="clip-path">
      <rect id="Rectangle_686" data-name="Rectangle 686" width="32" height="32" transform="translate(444 358)" fill="#fff" stroke="#707070" stroke-width="1"/>
    </clipPath>
  </defs>
  <g id="Mask_Group_173" data-name="Mask Group 173" transform="translate(-444 -358)" clip-path="url(#clip-path)">
    <g id="letter-i" transform="translate(444 358)">
      <circle id="Ellipse_20" data-name="Ellipse 20" cx="16" cy="16" r="16" fill="#cff4fc"/>
      <circle id="Ellipse_21" data-name="Ellipse 21" cx="14.188" cy="14.188" r="14.188" transform="translate(1.813 1.813)" fill="#fff"/>
      <path id="Path_1146" data-name="Path 1146" d="M16.019,10.269a1.756,1.756,0,0,1-1.187-.425,1.507,1.507,0,0,1-.494-1.206,1.521,1.521,0,0,1,.506-1.169,1.685,1.685,0,0,1,1.175-.456,1.767,1.767,0,0,1,1.15.412,1.486,1.486,0,0,1,.5,1.206,1.519,1.519,0,0,1-.487,1.2A1.705,1.705,0,0,1,16.019,10.269Zm1.65,3.444v9.631a2.142,2.142,0,0,1-.475,1.513,1.575,1.575,0,0,1-1.206.513,1.515,1.515,0,0,1-1.194-.525,2.208,2.208,0,0,1-.456-1.5V13.806a2.13,2.13,0,0,1,.456-1.488,1.547,1.547,0,0,1,1.194-.5,1.6,1.6,0,0,1,1.206.5,1.951,1.951,0,0,1,.475,1.394Z" fill="#028191"/>
    </g>
  </g>
</svg>
