<svg xmlns="http://www.w3.org/2000/svg" xmlns:xlink="http://www.w3.org/1999/xlink" width="11.597" height="13.194" viewBox="0 0 11.597 13.194">
  <defs>
    <clipPath id="clip-path">
      <rect id="Rectangle_254" data-name="Rectangle 254" width="11.597" height="13.194"/>
    </clipPath>
  </defs>
  <g id="Group_302" data-name="Group 302" clip-path="url(#clip-path)">
    <path id="Path_535" data-name="Path 535" d="M8,8.717c1.4-2.2,1.227-1.928,1.268-1.986a4.219,4.219,0,0,0,.781-2.454,4.252,4.252,0,1,0-7.7,2.486L3.6,8.717c-1.332.2-3.6.815-3.6,2.157,0,.49.32,1.187,1.842,1.731a12.2,12.2,0,0,0,3.957.588c2.784,0,5.8-.785,5.8-2.319,0-1.343-2.261-1.952-3.6-2.157M3,6.338l-.013-.02a3.479,3.479,0,1,1,5.66-.039C8.6,6.328,8.8,6.027,5.8,10.736Zm2.8,6.083c-3.041,0-5.025-.894-5.025-1.546,0-.438,1.019-1.16,3.279-1.44l1.42,2.228a.387.387,0,0,0,.652,0l1.42-2.228c2.26.281,3.279,1,3.279,1.44,0,.647-1.966,1.546-5.025,1.546" transform="translate(0 0)"/>
    <path id="Path_536" data-name="Path 536" d="M15.67,8.334A1.933,1.933,0,1,0,17.6,10.267,1.935,1.935,0,0,0,15.67,8.334m0,3.092a1.16,1.16,0,1,1,1.16-1.16,1.161,1.161,0,0,1-1.16,1.16" transform="translate(-9.872 -5.989)"/>
  </g>
</svg>
