<svg xmlns="http://www.w3.org/2000/svg" xmlns:xlink="http://www.w3.org/1999/xlink" width="28.153" height="35.191" viewBox="0 0 28.153 35.191">
  <defs>
    <clipPath id="clip-path">
      <rect id="Rectangle_20" data-name="Rectangle 20" width="28.153" height="35.191" fill="#fff"/>
    </clipPath>
  </defs>
  <g id="Group_7" data-name="Group 7" clip-path="url(#clip-path)">
    <path id="Path_11" data-name="Path 11" d="M9.271,0a8.211,8.211,0,1,0,8.211,8.211A8.208,8.208,0,0,0,9.271,0M3.406,8.211a5.865,5.865,0,1,1,5.865,5.865A5.868,5.868,0,0,1,3.406,8.211" transform="translate(4.805 0.002)" fill="#fff" fill-rule="evenodd"/>
    <path id="Path_12" data-name="Path 12" d="M0,13.673A10.282,10.282,0,0,1,10.281,3.392h7.592A10.282,10.282,0,0,1,28.153,13.673a6.142,6.142,0,0,1-6.142,6.142H6.142A6.142,6.142,0,0,1,0,13.673M10.281,5.738a7.934,7.934,0,0,0-7.935,7.935,3.8,3.8,0,0,0,3.8,3.8H22.011a3.8,3.8,0,0,0,3.8-3.8,7.935,7.935,0,0,0-7.935-7.935Z" transform="translate(0 15.379)" fill="#fff" fill-rule="evenodd"/>
  </g>
</svg>
