<svg xmlns="http://www.w3.org/2000/svg" xmlns:xlink="http://www.w3.org/1999/xlink" width="155.906" height="44.518" viewBox="0 0 155.906 44.518">
  <defs>
    <clipPath id="clip-path">
      <rect id="Rectangle_1" data-name="Rectangle 1" width="155.906" height="44.518" transform="translate(0 0)" fill="#fff"/>
    </clipPath>
  </defs>
  <g id="Group_1" data-name="Group 1" transform="translate(0 0)" clip-path="url(#clip-path)">
    <path id="Path_1" data-name="Path 1" d="M144.072,10.434A11.834,11.834,0,1,0,155.9,22.268a11.848,11.848,0,0,0-11.833-11.834m0,17.069a5.236,5.236,0,1,1,5.236-5.235,5.241,5.241,0,0,1-5.236,5.235" fill="#fff"/>
    <path id="Path_2" data-name="Path 2" d="M21.628,9.188a4.593,4.593,0,1,0-4.594-4.594,4.6,4.6,0,0,0,4.594,4.594" fill="#fff"/>
    <path id="Path_3" data-name="Path 3" d="M124.117,0A4.6,4.6,0,0,0,119.523,4.6v6.141l-.383-.076a11.941,11.941,0,0,0-2.3-.228A11.834,11.834,0,0,0,105.019,22.73a11.872,11.872,0,0,0,11.362,11.362,11.834,11.834,0,0,0,12.295-11.824,5.563,5.563,0,0,0,.034-.564V4.6A4.6,4.6,0,0,0,124.117,0m-7.274,27.49a5.235,5.235,0,1,1,5.235-5.235,5.241,5.241,0,0,1-5.235,5.235" fill="#fff"/>
    <path id="Path_4" data-name="Path 4" d="M49.695,10.421a11.84,11.84,0,0,0,0,23.68h7.319a4.526,4.526,0,0,0,4.521-4.521V22.261a11.854,11.854,0,0,0-11.84-11.84m0,17.021a5.149,5.149,0,1,1,5.15-5.149,5.154,5.154,0,0,1-5.15,5.149" fill="#fff"/>
    <path id="Path_5" data-name="Path 5" d="M77.394,10.43c-.156-.006-.312-.009-.466-.009A11.832,11.832,0,0,0,65.1,22.254a5.567,5.567,0,0,0-.034.564V39.924a4.593,4.593,0,1,0,9.187,0V33.783l.383.076A11.829,11.829,0,0,0,88.756,21.792,11.872,11.872,0,0,0,77.394,10.43M76.932,27.5a5.235,5.235,0,1,1,5.235-5.235A5.241,5.241,0,0,1,76.932,27.5" fill="#fff"/>
    <path id="Path_6" data-name="Path 6" d="M96.888,10.435a4.6,4.6,0,0,0-4.594,4.594V29.508a4.594,4.594,0,0,0,9.187,0V15.029a4.6,4.6,0,0,0-4.593-4.594" fill="#fff"/>
    <path id="Path_7" data-name="Path 7" d="M96.888,0a4.593,4.593,0,1,0,4.594,4.594A4.6,4.6,0,0,0,96.888,0" fill="#fff"/>
    <path id="Path_8" data-name="Path 8" d="M41.346,8.377a4.63,4.63,0,0,0,1.032-6.464A4.629,4.629,0,0,0,35.914.882,26.024,26.024,0,0,0,26.1,14.79l-.068.231h-8.81l-.068-.231A26.019,26.019,0,0,0,7.342.882,4.628,4.628,0,0,0,1.91,8.377,16.959,16.959,0,0,1,8.671,19.068,16.907,16.907,0,0,1,5.824,32a4.629,4.629,0,0,0,7.562,5.34,26.292,26.292,0,0,0,4.728-12.77l.026-.292h6.976l.027.292a26.286,26.286,0,0,0,4.727,12.77A4.629,4.629,0,1,0,37.432,32,17.013,17.013,0,0,1,41.346,8.377" fill="#fff"/>
  </g>
</svg>
