<svg xmlns="http://www.w3.org/2000/svg" width="21.007" height="21.007" viewBox="16.497 9.526 21.007 21.007"><path d="M31.365 30.53h-8.73a3.75 3.75 0 0 1-3.885-3.57v-4.68a.75.75 0 0 1 1.5 0v4.68a2.25 2.25 0 0 0 2.385 2.07h8.73a2.25 2.25 0 0 0 2.385-2.07v-4.68a.75.75 0 0 1 1.5 0v4.68a3.75 3.75 0 0 1-3.885 3.57Zm5.673-9.803a.75.75 0 0 1-.82-.164L27 11.338l-9.218 9.225a.753.753 0 1 1-1.065-1.065l9.75-9.75a.75.75 0 0 1 1.065 0l9.75 9.75a.75.75 0 0 1-.244 1.23Z" fill="#3c4a53" fill-rule="evenodd" data-name="Vector"/></svg>