<?xml version="1.0" encoding="utf-8"?>
<!-- Generator: Adobe Illustrator 24.3.0, SVG Export Plug-In . SVG Version: 6.00 Build 0)  -->
<svg version="1.1" id="Layer_1" xmlns="http://www.w3.org/2000/svg" xmlns:xlink="http://www.w3.org/1999/xlink" x="0px" y="0px"
	 viewBox="0 0 288 288" style="enable-background:new 0 0 288 288;" xml:space="preserve">
<style type="text/css">
	.st0{fill:url(#SVGID_1_);}
	.st1{fill:url(#SVGID_2_);}
	.st2{fill:url(#SVGID_3_);}
	.st3{fill:url(#SVGID_4_);}
	.st4{fill:url(#SVGID_5_);}
	.st5{fill:url(#SVGID_6_);}
	.st6{fill:url(#SVGID_7_);}
	.st7{fill:url(#SVGID_8_);}
	.st8{fill:url(#SVGID_9_);}
	.st9{fill:url(#SVGID_10_);}
	.st10{fill:url(#SVGID_11_);}
	.st11{fill:url(#SVGID_12_);}
	.st12{fill:url(#SVGID_13_);}
	.st13{fill:url(#SVGID_14_);}
	.st14{fill:url(#SVGID_15_);}
	.st15{fill:url(#SVGID_16_);}
	.st16{fill:url(#SVGID_17_);}
	.st17{fill:url(#SVGID_18_);}
	.st18{fill:url(#SVGID_19_);}
	.st19{fill:url(#SVGID_20_);}
	.st20{fill:url(#SVGID_21_);}
	.st21{fill:url(#SVGID_22_);}
	.st22{fill:url(#SVGID_23_);}
	.st23{fill:url(#SVGID_24_);}
	.st24{fill:url(#SVGID_25_);}
	.st25{fill:url(#SVGID_26_);}
	.st26{fill:url(#SVGID_27_);}
	.st27{fill:url(#SVGID_28_);}
	.st28{fill:url(#SVGID_29_);}
	.st29{fill:url(#SVGID_30_);}
	.st30{fill:url(#SVGID_31_);}
	.st31{fill:url(#SVGID_32_);}
	.st32{fill:url(#SVGID_33_);}
	.st33{fill:url(#SVGID_34_);}
	.st34{fill:url(#SVGID_35_);}
	.st35{fill:url(#SVGID_36_);}
	.st36{fill:url(#SVGID_37_);}
	.st37{fill:url(#SVGID_38_);}
	.st38{fill:url(#SVGID_39_);}
	.st39{fill:url(#SVGID_40_);}
	.st40{fill:url(#SVGID_41_);}
	.st41{fill:url(#SVGID_42_);}
	.st42{fill:url(#SVGID_43_);}
	.st43{fill:url(#SVGID_44_);}
	.st44{fill:url(#SVGID_45_);}
	.st45{fill:url(#SVGID_46_);}
	.st46{fill:url(#SVGID_47_);}
	.st47{fill:url(#SVGID_48_);}
	.st48{fill:url(#SVGID_49_);}
	.st49{fill:url(#SVGID_50_);}
	.st50{fill:url(#SVGID_51_);}
	.st51{fill:url(#SVGID_52_);}
	.st52{fill:url(#SVGID_53_);}
	.st53{fill:url(#SVGID_54_);}
	.st54{fill:url(#SVGID_55_);}
	.st55{fill:url(#SVGID_56_);}
	.st56{fill:url(#SVGID_57_);}
	.st57{fill:url(#SVGID_58_);}
	.st58{fill:url(#SVGID_59_);}
	.st59{fill:url(#SVGID_60_);}
	.st60{fill:url(#SVGID_61_);}
	.st61{fill:url(#SVGID_62_);}
	.st62{fill:url(#SVGID_63_);}
	.st63{fill:url(#SVGID_64_);}
	.st64{fill:url(#SVGID_65_);}
	.st65{fill:url(#SVGID_66_);}
	.st66{fill:url(#SVGID_67_);}
	.st67{fill:url(#SVGID_68_);}
	.st68{fill:url(#SVGID_69_);}
	.st69{fill:url(#SVGID_70_);}
	.st70{fill:url(#SVGID_71_);}
	.st71{fill:url(#SVGID_72_);}
	.st72{fill:url(#SVGID_73_);}
	.st73{fill:url(#SVGID_74_);}
	.st74{fill:url(#SVGID_75_);}
	.st75{fill:url(#SVGID_76_);}
	.st76{fill:url(#SVGID_77_);}
	.st77{fill:url(#SVGID_78_);}
	.st78{fill:url(#SVGID_79_);}
	.st79{fill:url(#SVGID_80_);}
	.st80{fill:url(#SVGID_81_);}
	.st81{fill:url(#SVGID_82_);}
	.st82{fill:url(#SVGID_83_);}
	.st83{fill:url(#SVGID_84_);}
	.st84{fill:url(#SVGID_85_);}
	.st85{fill:url(#SVGID_86_);}
	.st86{fill:url(#SVGID_87_);}
	.st87{fill:url(#SVGID_88_);}
	.st88{fill:url(#SVGID_89_);}
	.st89{fill:url(#SVGID_90_);}
	.st90{fill:url(#SVGID_91_);}
	.st91{fill:url(#SVGID_92_);}
	.st92{fill:url(#SVGID_93_);}
	.st93{fill:url(#SVGID_94_);}
	.st94{fill:url(#SVGID_95_);}
	.st95{fill:url(#SVGID_96_);}
	.st96{fill:url(#SVGID_97_);}
	.st97{fill:url(#SVGID_98_);}
	.st98{fill:url(#SVGID_99_);}
	.st99{fill:url(#SVGID_100_);}
	.st100{fill:url(#SVGID_101_);}
	.st101{fill:url(#SVGID_102_);}
	.st102{fill:url(#SVGID_103_);}
	.st103{fill:url(#SVGID_104_);}
	.st104{fill:url(#SVGID_105_);}
	.st105{fill:url(#SVGID_106_);}
	.st106{fill:url(#SVGID_107_);}
	.st107{fill:url(#SVGID_108_);}
	.st108{fill:url(#SVGID_109_);}
	.st109{fill:url(#SVGID_110_);}
	.st110{fill:url(#SVGID_111_);}
	.st111{fill:url(#SVGID_112_);}
	.st112{fill:url(#SVGID_113_);}
	.st113{fill:url(#SVGID_114_);}
	.st114{fill:url(#SVGID_115_);}
	.st115{fill:url(#SVGID_116_);}
</style>
<g>
	<linearGradient id="SVGID_1_" gradientUnits="userSpaceOnUse" x1="78.6305" y1="235.8044" x2="82.1854" y2="235.8044">
		<stop  offset="4.469269e-03" style="stop-color:#F63A20"/>
		<stop  offset="1" style="stop-color:#B26257"/>
	</linearGradient>
	<path class="st0" d="M79.06,233.6c-1.82,3.06,2.66,6.39,3.1,3.04C82.49,234.13,79.2,233.37,79.06,233.6z M81.87,236.67
		c-0.34,2.1-2.47,0.58-2.77-0.43C77.88,232.1,82.27,234.22,81.87,236.67z"/>
	<linearGradient id="SVGID_2_" gradientUnits="userSpaceOnUse" x1="82.2847" y1="235.7883" x2="85.7845" y2="235.7883">
		<stop  offset="4.469269e-03" style="stop-color:#F63A20"/>
		<stop  offset="1" style="stop-color:#B26257"/>
	</linearGradient>
	<path class="st1" d="M82.94,238.01c2.58,0.03,3.46-2.5,2.42-4.44C81.21,233.83,82.23,238,82.94,238.01z M85.37,236.11
		c-0.35,1.57-3.27,2.71-2.81-0.2C82.79,234.43,86.23,232.25,85.37,236.11z"/>
	<linearGradient id="SVGID_3_" gradientUnits="userSpaceOnUse" x1="83.5504" y1="212.8569" x2="88.4357" y2="212.8569">
		<stop  offset="4.469269e-03" style="stop-color:#F63A20"/>
		<stop  offset="1" style="stop-color:#B26257"/>
	</linearGradient>
	<path class="st2" d="M84.46,214.1c1.79,1.19,4.3-0.91,3.94-1.39C86.09,209.58,81.63,212.22,84.46,214.1z M87.63,213.42
		c-2.26,1.94-5.44-0.38-2.77-1.73C86.05,211.08,88.99,212.25,87.63,213.42z"/>
	<linearGradient id="SVGID_4_" gradientUnits="userSpaceOnUse" x1="75.947" y1="212.8437" x2="81.0549" y2="212.8437">
		<stop  offset="4.469269e-03" style="stop-color:#F63A20"/>
		<stop  offset="1" style="stop-color:#B26257"/>
	</linearGradient>
	<path class="st3" d="M81.02,212.95c0.43-0.75-2.95-3.46-5.07-0.11C76.8,214.36,79.52,215.56,81.02,212.95z M78.34,211.51
		c1.01-0.22,1.89,0.45,2.4,1.33C78.81,216.05,73.77,212.5,78.34,211.51z"/>
	<linearGradient id="SVGID_5_" gradientUnits="userSpaceOnUse" x1="82.2523" y1="216.0372" x2="85.8181" y2="216.0372">
		<stop  offset="4.469269e-03" style="stop-color:#F63A20"/>
		<stop  offset="1" style="stop-color:#B26257"/>
	</linearGradient>
	<path class="st4" d="M82.28,215.2c-0.33,2.47,2.94,3.31,3.11,3.03C87.21,215.26,82.72,211.82,82.28,215.2z M82.57,215.13
		c0.36-2.02,2.46-0.52,2.75,0.46C86.56,219.68,82.13,217.58,82.57,215.13z"/>
	<linearGradient id="SVGID_6_" gradientUnits="userSpaceOnUse" x1="78.6563" y1="216.0405" x2="82.1618" y2="216.0405">
		<stop  offset="4.469269e-03" style="stop-color:#F63A20"/>
		<stop  offset="1" style="stop-color:#B26257"/>
	</linearGradient>
	<path class="st5" d="M81.5,213.83c-3.73,0.03-3.04,4.57-2.08,4.41C83.01,217.69,82.34,213.83,81.5,213.83z M79.5,217.96
		c-0.7,0.14-1.34-3.66,1.85-3.84C81.92,214.09,82.82,217.3,79.5,217.96z"/>
	<linearGradient id="SVGID_7_" gradientUnits="userSpaceOnUse" x1="87.3432" y1="232.4399" x2="92.2109" y2="232.4399">
		<stop  offset="4.469269e-03" style="stop-color:#F63A20"/>
		<stop  offset="1" style="stop-color:#B26257"/>
	</linearGradient>
	<path class="st6" d="M91.33,231.22c-1.88-1.26-4.26,0.96-3.96,1.37C89.66,235.72,94.1,233.09,91.33,231.22z M90.15,233.82
		c-0.72,0.06-3.59-0.85-1.73-2.14C91.31,229.67,93.47,233.55,90.15,233.82z"/>
	<linearGradient id="SVGID_8_" gradientUnits="userSpaceOnUse" x1="89.9289" y1="229.2682" x2="93.5195" y2="229.2682">
		<stop  offset="4.469269e-03" style="stop-color:#F63A20"/>
		<stop  offset="1" style="stop-color:#B26257"/>
	</linearGradient>
	<path class="st7" d="M90.39,227.08c-1.87,2.92,2.5,6.24,3.08,3.2C93.98,227.59,90.53,226.85,90.39,227.08z M93.19,230.22
		c-0.38,1.95-2.46,0.5-2.76-0.53C89.24,225.52,93.66,227.81,93.19,230.22z"/>
	<linearGradient id="SVGID_9_" gradientUnits="userSpaceOnUse" x1="72.166" y1="232.4693" x2="76.9509" y2="232.4693">
		<stop  offset="4.469269e-03" style="stop-color:#F63A20"/>
		<stop  offset="1" style="stop-color:#B26257"/>
	</linearGradient>
	<path class="st8" d="M75.31,231c-1.67-0.63-4.74,1.09-2.13,2.74C75.1,234.96,79.25,232.49,75.31,231z M73.51,233.61
		c-2.75-1.41,0.94-4.03,3.23-1.26C77.04,232.71,74.98,234.37,73.51,233.61z"/>
	<linearGradient id="SVGID_10_" gradientUnits="userSpaceOnUse" x1="70.9085" y1="229.2649" x2="74.494" y2="229.2649">
		<stop  offset="4.469269e-03" style="stop-color:#F63A20"/>
		<stop  offset="1" style="stop-color:#B26257"/>
	</linearGradient>
	<path class="st9" d="M71.66,228.05c-1.13,1.05-1.21,4.4,1.41,3.11C75.29,230.07,74.98,224.97,71.66,228.05z M71.62,231.19
		c-1.16-2,0.37-3.69,2.14-3.86C74.21,227.29,74.93,231.26,71.62,231.19z"/>
	<linearGradient id="SVGID_11_" gradientUnits="userSpaceOnUse" x1="82.3024" y1="222.7142" x2="85.7655" y2="222.7142">
		<stop  offset="4.469269e-03" style="stop-color:#F63A20"/>
		<stop  offset="1" style="stop-color:#B26257"/>
	</linearGradient>
	<path class="st10" d="M82.92,224.94c2.75,0,3.37-2.57,2.44-4.44C81.4,220.49,82.14,224.94,82.92,224.94z M82.57,222.79
		c0.19-1.07,3-3.54,2.91-0.57C85.39,224.76,82.03,225.82,82.57,222.79z"/>
	<linearGradient id="SVGID_12_" gradientUnits="userSpaceOnUse" x1="78.6221" y1="222.7147" x2="82.193" y2="222.7147">
		<stop  offset="4.469269e-03" style="stop-color:#F63A20"/>
		<stop  offset="1" style="stop-color:#B26257"/>
	</linearGradient>
	<path class="st11" d="M79.92,224.56c2.6,1.42,2.72-1.86,1.6-2.98C78.27,218.36,77.78,223.39,79.92,224.56z M79.17,220.96
		c0.19-0.53,3.1,0.48,2.69,2.69C81.45,225.89,78.08,224.02,79.17,220.96z"/>
	<linearGradient id="SVGID_13_" gradientUnits="userSpaceOnUse" x1="82.2373" y1="229.1436" x2="85.8238" y2="229.1436">
		<stop  offset="4.469269e-03" style="stop-color:#F63A20"/>
		<stop  offset="1" style="stop-color:#B26257"/>
	</linearGradient>
	<path class="st12" d="M84.08,227.09c-2.31-0.81-2.13,2.21-1.16,3.17C86.29,233.63,86.79,228.04,84.08,227.09z M82.96,227.22
		c3.21-0.41,3.66,5.98,0.27,2.96C82.32,229.37,82.38,228.08,82.96,227.22z"/>
	<linearGradient id="SVGID_14_" gradientUnits="userSpaceOnUse" x1="78.6701" y1="229.1348" x2="82.1353" y2="229.1348">
		<stop  offset="4.469269e-03" style="stop-color:#F63A20"/>
		<stop  offset="1" style="stop-color:#B26257"/>
	</linearGradient>
	<path class="st13" d="M81.52,226.91c-2.65-0.04-3.42,2.45-2.44,4.44C82.96,231.36,82.35,226.93,81.52,226.91z M81.89,228.88
		c-0.17,1.76-3.83,3.71-2.81-0.12C79.48,227.27,82.15,226.2,81.89,228.88z"/>
	<linearGradient id="SVGID_15_" gradientUnits="userSpaceOnUse" x1="83.5127" y1="225.9137" x2="88.221" y2="225.9137">
		<stop  offset="4.469269e-03" style="stop-color:#F63A20"/>
		<stop  offset="1" style="stop-color:#B26257"/>
	</linearGradient>
	<path class="st14" d="M85.98,227.55c4.28-0.59,1.52-3.91-0.85-3.2C81.91,225.33,84.19,227.8,85.98,227.55z M88.09,225.82
		c0.28,0.36-2.69,3.02-4.4,0.1C84.89,223.96,86.88,224.33,88.09,225.82z"/>
	<linearGradient id="SVGID_16_" gradientUnits="userSpaceOnUse" x1="76.1552" y1="225.9263" x2="80.9272" y2="225.9263">
		<stop  offset="4.469269e-03" style="stop-color:#F63A20"/>
		<stop  offset="1" style="stop-color:#B26257"/>
	</linearGradient>
	<path class="st15" d="M79.22,227.51c3.44-0.89,0.96-3.75-1.14-3.15C73.99,225.53,77.42,227.97,79.22,227.51z M77.43,226.92
		c-2.64-1.4,0.94-2.75,2.12-2.17C81.99,225.93,79.58,228.07,77.43,226.92z"/>
	<linearGradient id="SVGID_17_" gradientUnits="userSpaceOnUse" x1="70.911" y1="222.5787" x2="74.4652" y2="222.5787">
		<stop  offset="4.469269e-03" style="stop-color:#F63A20"/>
		<stop  offset="1" style="stop-color:#B26257"/>
	</linearGradient>
	<path class="st16" d="M73.13,220.71c-2.74-1.42-2.54,2.03-1.54,3.02C74.86,226.96,75.29,221.83,73.13,220.71z M73.93,224.36
		c-0.18,0.48-3.05-0.53-2.69-2.66C71.61,219.39,75.05,221.28,73.93,224.36z"/>
	<linearGradient id="SVGID_18_" gradientUnits="userSpaceOnUse" x1="70.9063" y1="216.1779" x2="74.4534" y2="216.1779">
		<stop  offset="4.469269e-03" style="stop-color:#F63A20"/>
		<stop  offset="1" style="stop-color:#B26257"/>
	</linearGradient>
	<path class="st17" d="M73.28,217.97c1.95-1.16,1.54-6.22-1.74-2.88C70.44,216.22,70.62,219.56,73.28,217.97z M73.85,214.24
		c1.46,2.87-2.25,5.41-2.63,2.76C71,215.41,72.49,214.42,73.85,214.24z"/>
	<linearGradient id="SVGID_19_" gradientUnits="userSpaceOnUse" x1="72.1875" y1="219.3727" x2="76.9462" y2="219.3727">
		<stop  offset="4.469269e-03" style="stop-color:#F63A20"/>
		<stop  offset="1" style="stop-color:#B26257"/>
	</linearGradient>
	<path class="st18" d="M73.48,217.94c-2.98,1.37-0.18,3.79,2.08,2.79C79.02,219.22,75.11,217.19,73.48,217.94z M74.93,220.67
		c-1.08,0.3-2.01-0.32-2.57-1.29C74.2,216.29,79.11,219.52,74.93,220.67z"/>
	<linearGradient id="SVGID_20_" gradientUnits="userSpaceOnUse" x1="90.0127" y1="216.1834" x2="93.49" y2="216.1834">
		<stop  offset="4.469269e-03" style="stop-color:#F63A20"/>
		<stop  offset="1" style="stop-color:#B26257"/>
	</linearGradient>
	<path class="st19" d="M90.6,213.97c-0.67-0.07-1.54,4.47,2.27,4.43C93.47,218.39,94.6,214.42,90.6,213.97z M93.2,217.1
		c-0.46,2.58-4.09-0.28-2.61-2.85C91.88,214.35,93.5,215.43,93.2,217.1z"/>
	<linearGradient id="SVGID_21_" gradientUnits="userSpaceOnUse" x1="89.9908" y1="222.5864" x2="93.4709" y2="222.5864">
		<stop  offset="4.469269e-03" style="stop-color:#F63A20"/>
		<stop  offset="1" style="stop-color:#B26257"/>
	</linearGradient>
	<path class="st20" d="M92.84,220.37c-2.6-0.01-3.45,2.5-2.43,4.44C94.21,224.81,93.75,220.37,92.84,220.37z M93.2,222.55
		c-0.21,1.06-2.99,3.47-2.9,0.53C90.39,220.41,93.8,219.56,93.2,222.55z"/>
	<linearGradient id="SVGID_22_" gradientUnits="userSpaceOnUse" x1="87.4594" y1="219.3874" x2="92.2385" y2="219.3874">
		<stop  offset="4.469269e-03" style="stop-color:#F63A20"/>
		<stop  offset="1" style="stop-color:#B26257"/>
	</linearGradient>
	<path class="st21" d="M90.64,220.94c3.36-1.02,0.75-4.04-1.75-2.92C85.31,219.62,89.42,221.32,90.64,220.94z M89.68,218.06
		c2.73-0.58,3.12,3.43-0.07,2.64C86.76,219.99,87.66,218.49,89.68,218.06z"/>
	<linearGradient id="SVGID_23_" gradientUnits="userSpaceOnUse" x1="92.9455" y1="225.9279" x2="94.1579" y2="225.9279">
		<stop  offset="4.469269e-03" style="stop-color:#F63A20"/>
		<stop  offset="1" style="stop-color:#B26257"/>
	</linearGradient>
	<path class="st22" d="M92.95,225.92c0.73,0.78,0.45,0.82,1.21,0C93.43,225.07,93.62,225.2,92.95,225.92z M93.17,225.92
		c0.44-0.47,0.32-0.51,0.76,0.01C93.48,226.41,93.63,226.42,93.17,225.92z"/>
	<linearGradient id="SVGID_24_" gradientUnits="userSpaceOnUse" x1="70.2727" y1="225.922" x2="71.4924" y2="225.922">
		<stop  offset="4.469269e-03" style="stop-color:#F63A20"/>
		<stop  offset="1" style="stop-color:#B26257"/>
	</linearGradient>
	<path class="st23" d="M71.49,225.92c-0.73-0.78-0.45-0.82-1.22,0C71.01,226.7,70.73,226.74,71.49,225.92z M71.27,225.92
		c-0.46,0.5-0.28,0.52-0.77,0C70.96,225.43,70.78,225.4,71.27,225.92z"/>
	<linearGradient id="SVGID_25_" gradientUnits="userSpaceOnUse" x1="70.2775" y1="212.8423" x2="71.4924" y2="212.8423">
		<stop  offset="4.469269e-03" style="stop-color:#F63A20"/>
		<stop  offset="1" style="stop-color:#B26257"/>
	</linearGradient>
	<path class="st24" d="M71.49,212.84c-0.73-0.78-0.45-0.81-1.21-0.01C71.01,213.7,70.81,213.58,71.49,212.84z M70.88,212.44
		c0.49,0.51,0.46,0.32,0,0.82C70.42,212.76,70.4,212.95,70.88,212.44z"/>
	<linearGradient id="SVGID_26_" gradientUnits="userSpaceOnUse" x1="92.9421" y1="212.8455" x2="94.1638" y2="212.8455">
		<stop  offset="4.469269e-03" style="stop-color:#F63A20"/>
		<stop  offset="1" style="stop-color:#B26257"/>
	</linearGradient>
	<path class="st25" d="M92.94,212.84c0.74,0.78,0.46,0.82,1.22,0C93.43,212.06,93.71,212.03,92.94,212.84z M93.17,212.84
		c0.46-0.49,0.29-0.51,0.77,0C93.47,213.34,93.65,213.36,93.17,212.84z"/>
	<linearGradient id="SVGID_27_" gradientUnits="userSpaceOnUse" x1="76.0067" y1="229.2054" x2="77.1125" y2="229.2054">
		<stop  offset="4.469269e-03" style="stop-color:#F63A20"/>
		<stop  offset="1" style="stop-color:#B26257"/>
	</linearGradient>
	<path class="st26" d="M76.86,229.72c0.09-0.29,0.17-0.56,0.25-0.85c-1.03-0.24-0.82-0.38-1.07,0.49
		C75.98,229.56,75.91,229.5,76.86,229.72z M76.91,228.99c-0.2,0.65-0.03,0.57-0.71,0.41C76.39,228.73,76.24,228.84,76.91,228.99z"/>
	<linearGradient id="SVGID_28_" gradientUnits="userSpaceOnUse" x1="87.3476" y1="229.1959" x2="88.4122" y2="229.1959">
		<stop  offset="4.469269e-03" style="stop-color:#F63A20"/>
		<stop  offset="1" style="stop-color:#B26257"/>
	</linearGradient>
	<path class="st27" d="M88.18,228.67c-1.08,0.25-0.91,0.03-0.6,1.05C88.52,229.51,88.58,229.73,88.18,228.67z M87.53,228.99
		c0.66-0.15,0.5-0.26,0.71,0.41C87.58,229.56,87.74,229.67,87.53,228.99z"/>
	<linearGradient id="SVGID_29_" gradientUnits="userSpaceOnUse" x1="81.6515" y1="219.3703" x2="82.8234" y2="219.3703">
		<stop  offset="4.469269e-03" style="stop-color:#F63A20"/>
		<stop  offset="1" style="stop-color:#B26257"/>
	</linearGradient>
	<path class="st28" d="M82.21,218.75c-0.69,0.73-0.67,0.55-0.29,0.96c0.38,0.4,0.21,0.42,0.91-0.33
		C82.2,218.72,82.35,218.87,82.21,218.75z M82.24,219.77c-0.58-0.37-0.33-0.46-0.02-0.79C82.67,219.47,82.69,219.28,82.24,219.77z"
		/>
	<linearGradient id="SVGID_30_" gradientUnits="userSpaceOnUse" x1="75.9953" y1="235.7268" x2="77.1164" y2="235.7268">
		<stop  offset="4.469269e-03" style="stop-color:#F63A20"/>
		<stop  offset="1" style="stop-color:#B26257"/>
	</linearGradient>
	<path class="st29" d="M76,235.4c0.27,1.03,0.09,0.89,1.12,0.65C76.8,235.03,77.08,235.15,76,235.4z M76.36,236.06
		c-0.2-0.64-0.31-0.5,0.38-0.66C76.95,236.07,77.02,235.9,76.36,236.06z"/>
	<linearGradient id="SVGID_31_" gradientUnits="userSpaceOnUse" x1="87.3264" y1="235.718" x2="88.4321" y2="235.718">
		<stop  offset="4.469269e-03" style="stop-color:#F63A20"/>
		<stop  offset="1" style="stop-color:#B26257"/>
	</linearGradient>
	<path class="st30" d="M88.38,235.65c0.09-0.31,0.17-0.22-0.79-0.44c-0.1,0.26-0.02,0.01-0.27,0.84
		C88.34,236.33,88.17,236.35,88.38,235.65z M87.53,235.93c0.2-0.65,0.02-0.57,0.71-0.41C88.04,236.17,88.22,236.09,87.53,235.93z"/>
	<linearGradient id="SVGID_32_" gradientUnits="userSpaceOnUse" x1="87.3523" y1="216.1225" x2="88.4175" y2="216.1225">
		<stop  offset="4.469269e-03" style="stop-color:#F63A20"/>
		<stop  offset="1" style="stop-color:#B26257"/>
	</linearGradient>
	<path class="st31" d="M87.58,216.65c1.04-0.25,0.93,0.01,0.61-1.05C87.08,215.8,87.3,215.71,87.58,216.65z M88.24,216.32
		c-0.69,0.16-0.51,0.24-0.71-0.41C88.19,215.76,88.04,215.65,88.24,216.32z"/>
	<linearGradient id="SVGID_33_" gradientUnits="userSpaceOnUse" x1="75.987" y1="216.1172" x2="77.1145" y2="216.1172">
		<stop  offset="4.469269e-03" style="stop-color:#F63A20"/>
		<stop  offset="1" style="stop-color:#B26257"/>
	</linearGradient>
	<path class="st32" d="M77.11,215.79c-1.05-0.24-0.8-0.42-1.13,0.65C77.03,216.68,76.79,216.86,77.11,215.79z M76.36,215.79
		c0.62,0.14,0.6,0.02,0.37,0.66C76.11,216.3,76.15,216.46,76.36,215.79z"/>
	<linearGradient id="SVGID_34_" gradientUnits="userSpaceOnUse" x1="76.0185" y1="222.6497" x2="77.0828" y2="222.6497">
		<stop  offset="4.469269e-03" style="stop-color:#F63A20"/>
		<stop  offset="1" style="stop-color:#B26257"/>
	</linearGradient>
	<path class="st33" d="M76.24,223.18c1.05-0.24,0.94,0.02,0.61-1.06C75.81,222.37,75.92,222.11,76.24,223.18z M76.91,222.86
		c-0.66,0.15-0.5,0.26-0.71-0.39C76.83,222.17,76.77,222.4,76.91,222.86z"/>
	<linearGradient id="SVGID_35_" gradientUnits="userSpaceOnUse" x1="87.3249" y1="222.6513" x2="88.4494" y2="222.6513">
		<stop  offset="4.469269e-03" style="stop-color:#F63A20"/>
		<stop  offset="1" style="stop-color:#B26257"/>
	</linearGradient>
	<path class="st34" d="M88.45,222.33c-1.05-0.24-0.8-0.42-1.12,0.65C88.37,223.22,88.12,223.4,88.45,222.33z M87.53,222.86
		c0.2-0.67,0.05-0.56,0.71-0.41C88.04,223.09,88.22,223.01,87.53,222.86z"/>
	<linearGradient id="SVGID_36_" gradientUnits="userSpaceOnUse" x1="81.6607" y1="232.4656" x2="82.7742" y2="232.4656">
		<stop  offset="4.469269e-03" style="stop-color:#F63A20"/>
		<stop  offset="1" style="stop-color:#B26257"/>
	</linearGradient>
	<path class="st35" d="M82.21,231.82c-0.72,0.77-0.75,0.48,0.01,1.29C82.95,232.32,82.97,232.58,82.21,231.82z M81.84,232.46
		c0.45-0.49,0.28-0.51,0.76,0C82.14,232.95,82.32,232.97,81.84,232.46z"/>
	<linearGradient id="SVGID_37_" gradientUnits="userSpaceOnUse" x1="83.068" y1="202.748" x2="86.3686" y2="202.748">
		<stop  offset="4.469269e-03" style="stop-color:#F63A20"/>
		<stop  offset="1" style="stop-color:#B26257"/>
	</linearGradient>
	<path class="st36" d="M85.57,203.57c2.2-1.24-0.79-2.06-1.38-1.9C81.82,202.31,83.66,204.64,85.57,203.57z M86.09,202.58
		c0.34,0.38-1.16,1.51-2.21,0.91C82.17,202.51,84.57,200.88,86.09,202.58z"/>
	<linearGradient id="SVGID_38_" gradientUnits="userSpaceOnUse" x1="77.8825" y1="204.9873" x2="78.6535" y2="204.9873">
		<stop  offset="4.469269e-03" style="stop-color:#F63A20"/>
		<stop  offset="1" style="stop-color:#B26257"/>
	</linearGradient>
	<path class="st37" d="M78.65,204.76c-0.72-0.17-0.55-0.29-0.77,0.45C78.6,205.38,78.43,205.5,78.65,204.76z M78.51,204.85
		c-0.14,0.44-0.02,0.39-0.49,0.28C78.16,204.67,78.06,204.74,78.51,204.85z"/>
	<linearGradient id="SVGID_39_" gradientUnits="userSpaceOnUse" x1="85.6594" y1="204.9848" x2="86.426" y2="204.9848">
		<stop  offset="4.469269e-03" style="stop-color:#F63A20"/>
		<stop  offset="1" style="stop-color:#B26257"/>
	</linearGradient>
	<path class="st38" d="M85.66,204.77c0.19,0.69,0.05,0.6,0.77,0.43C86.25,204.63,86.36,204.51,85.66,204.77z M85.91,205.21
		c-0.14-0.46-0.19-0.34,0.26-0.45C86.3,205.19,86.36,205.12,85.91,205.21z"/>
	<linearGradient id="SVGID_40_" gradientUnits="userSpaceOnUse" x1="130.8869" y1="273.7824" x2="134.4418" y2="273.7824">
		<stop  offset="4.469269e-03" style="stop-color:#F63A20"/>
		<stop  offset="1" style="stop-color:#B26257"/>
	</linearGradient>
	<path class="st39" d="M131.32,271.58c-1.82,3.06,2.66,6.39,3.1,3.04C134.75,272.11,131.46,271.35,131.32,271.58z M134.13,274.65
		c-0.34,2.1-2.47,0.58-2.77-0.43C130.14,270.08,134.53,272.2,134.13,274.65z"/>
	<linearGradient id="SVGID_41_" gradientUnits="userSpaceOnUse" x1="134.5413" y1="273.7664" x2="138.0409" y2="273.7664">
		<stop  offset="4.469269e-03" style="stop-color:#F63A20"/>
		<stop  offset="1" style="stop-color:#B26257"/>
	</linearGradient>
	<path class="st40" d="M135.19,275.99c2.58,0.03,3.46-2.5,2.42-4.44C133.46,271.81,134.49,275.98,135.19,275.99z M137.62,274.09
		c-0.35,1.57-3.27,2.71-2.81-0.2C135.05,272.41,138.49,270.23,137.62,274.09z"/>
	<linearGradient id="SVGID_42_" gradientUnits="userSpaceOnUse" x1="135.8067" y1="250.8351" x2="140.6925" y2="250.8351">
		<stop  offset="4.469269e-03" style="stop-color:#F63A20"/>
		<stop  offset="1" style="stop-color:#B26257"/>
	</linearGradient>
	<path class="st41" d="M136.71,252.08c1.79,1.19,4.3-0.91,3.94-1.39C138.35,247.56,133.89,250.19,136.71,252.08z M139.89,251.39
		c-2.26,1.94-5.44-0.38-2.77-1.73C138.31,249.06,141.24,250.23,139.89,251.39z"/>
	<linearGradient id="SVGID_43_" gradientUnits="userSpaceOnUse" x1="128.2033" y1="250.8218" x2="133.3113" y2="250.8218">
		<stop  offset="4.469269e-03" style="stop-color:#F63A20"/>
		<stop  offset="1" style="stop-color:#B26257"/>
	</linearGradient>
	<path class="st42" d="M133.27,250.93c0.43-0.75-2.95-3.46-5.07-0.11C129.06,252.34,131.77,253.54,133.27,250.93z M130.6,249.49
		c1.01-0.22,1.89,0.45,2.4,1.33C131.07,254.03,126.02,250.48,130.6,249.49z"/>
	<linearGradient id="SVGID_44_" gradientUnits="userSpaceOnUse" x1="134.5087" y1="254.0154" x2="138.0744" y2="254.0154">
		<stop  offset="4.469269e-03" style="stop-color:#F63A20"/>
		<stop  offset="1" style="stop-color:#B26257"/>
	</linearGradient>
	<path class="st43" d="M134.53,253.17c-0.33,2.47,2.94,3.31,3.11,3.03C139.46,253.23,134.98,249.8,134.53,253.17z M134.83,253.11
		c0.36-2.02,2.46-0.52,2.75,0.46C138.82,257.66,134.39,255.55,134.83,253.11z"/>
	<linearGradient id="SVGID_45_" gradientUnits="userSpaceOnUse" x1="130.9124" y1="254.0186" x2="134.418" y2="254.0186">
		<stop  offset="4.469269e-03" style="stop-color:#F63A20"/>
		<stop  offset="1" style="stop-color:#B26257"/>
	</linearGradient>
	<path class="st44" d="M133.75,251.81c-3.73,0.03-3.04,4.57-2.08,4.41C135.26,255.67,134.59,251.81,133.75,251.81z M131.76,255.94
		c-0.69,0.14-1.34-3.66,1.85-3.84C134.18,252.07,135.07,255.28,131.76,255.94z"/>
	<linearGradient id="SVGID_46_" gradientUnits="userSpaceOnUse" x1="139.5999" y1="270.418" x2="144.4672" y2="270.418">
		<stop  offset="4.469269e-03" style="stop-color:#F63A20"/>
		<stop  offset="1" style="stop-color:#B26257"/>
	</linearGradient>
	<path class="st45" d="M143.58,269.2c-1.88-1.27-4.26,0.96-3.96,1.37C141.92,273.69,146.36,271.07,143.58,269.2z M142.41,271.8
		c-0.72,0.06-3.59-0.85-1.73-2.14C143.57,267.65,145.73,271.53,142.41,271.8z"/>
	<linearGradient id="SVGID_47_" gradientUnits="userSpaceOnUse" x1="142.1852" y1="267.2463" x2="145.7759" y2="267.2463">
		<stop  offset="4.469269e-03" style="stop-color:#F63A20"/>
		<stop  offset="1" style="stop-color:#B26257"/>
	</linearGradient>
	<path class="st46" d="M142.65,265.06c-1.87,2.92,2.5,6.24,3.08,3.2C146.24,265.56,142.78,264.83,142.65,265.06z M145.45,268.2
		c-0.38,1.95-2.46,0.5-2.76-0.53C141.49,263.5,145.92,265.79,145.45,268.2z"/>
	<linearGradient id="SVGID_48_" gradientUnits="userSpaceOnUse" x1="124.4223" y1="270.4474" x2="129.2071" y2="270.4474">
		<stop  offset="4.469269e-03" style="stop-color:#F63A20"/>
		<stop  offset="1" style="stop-color:#B26257"/>
	</linearGradient>
	<path class="st47" d="M127.56,268.98c-1.67-0.63-4.74,1.09-2.13,2.74C127.35,272.94,131.51,270.47,127.56,268.98z M125.77,271.59
		c-2.75-1.41,0.94-4.03,3.23-1.26C129.29,270.68,127.24,272.34,125.77,271.59z"/>
	<linearGradient id="SVGID_49_" gradientUnits="userSpaceOnUse" x1="123.1651" y1="267.243" x2="126.7504" y2="267.243">
		<stop  offset="4.469269e-03" style="stop-color:#F63A20"/>
		<stop  offset="1" style="stop-color:#B26257"/>
	</linearGradient>
	<path class="st48" d="M123.91,266.03c-1.13,1.05-1.21,4.4,1.41,3.11C127.55,268.05,127.24,262.95,123.91,266.03z M123.88,269.17
		c-1.16-2,0.37-3.69,2.14-3.86C126.46,265.26,127.19,269.24,123.88,269.17z"/>
	<linearGradient id="SVGID_50_" gradientUnits="userSpaceOnUse" x1="134.5587" y1="260.6923" x2="138.0218" y2="260.6923">
		<stop  offset="4.469269e-03" style="stop-color:#F63A20"/>
		<stop  offset="1" style="stop-color:#B26257"/>
	</linearGradient>
	<path class="st49" d="M135.18,262.91c2.75,0,3.37-2.57,2.44-4.44C133.66,258.47,134.39,262.91,135.18,262.91z M134.82,260.77
		c0.19-1.07,3-3.54,2.91-0.57C137.65,262.74,134.28,263.8,134.82,260.77z"/>
	<linearGradient id="SVGID_51_" gradientUnits="userSpaceOnUse" x1="130.8785" y1="260.6928" x2="134.4493" y2="260.6928">
		<stop  offset="4.469269e-03" style="stop-color:#F63A20"/>
		<stop  offset="1" style="stop-color:#B26257"/>
	</linearGradient>
	<path class="st50" d="M132.17,262.54c2.6,1.42,2.72-1.86,1.6-2.98C130.53,256.33,130.03,261.37,132.17,262.54z M131.43,258.94
		c0.19-0.53,3.1,0.48,2.69,2.69C133.7,263.87,130.34,262,131.43,258.94z"/>
	<linearGradient id="SVGID_52_" gradientUnits="userSpaceOnUse" x1="134.4936" y1="267.1216" x2="138.0802" y2="267.1216">
		<stop  offset="4.469269e-03" style="stop-color:#F63A20"/>
		<stop  offset="1" style="stop-color:#B26257"/>
	</linearGradient>
	<path class="st51" d="M136.33,265.07c-2.31-0.81-2.13,2.21-1.16,3.17C138.55,271.61,139.05,266.02,136.33,265.07z M135.21,265.2
		c3.21-0.41,3.66,5.98,0.27,2.96C134.58,267.35,134.63,266.06,135.21,265.2z"/>
	<linearGradient id="SVGID_53_" gradientUnits="userSpaceOnUse" x1="130.9265" y1="267.113" x2="134.3917" y2="267.113">
		<stop  offset="4.469269e-03" style="stop-color:#F63A20"/>
		<stop  offset="1" style="stop-color:#B26257"/>
	</linearGradient>
	<path class="st52" d="M133.78,264.89c-2.65-0.04-3.42,2.45-2.44,4.44C135.22,269.33,134.6,264.91,133.78,264.89z M134.15,266.86
		c-0.17,1.76-3.83,3.71-2.81-0.12C131.73,265.24,134.4,264.18,134.15,266.86z"/>
	<linearGradient id="SVGID_54_" gradientUnits="userSpaceOnUse" x1="135.769" y1="263.8918" x2="140.4776" y2="263.8918">
		<stop  offset="4.469269e-03" style="stop-color:#F63A20"/>
		<stop  offset="1" style="stop-color:#B26257"/>
	</linearGradient>
	<path class="st53" d="M138.24,265.53c4.28-0.59,1.52-3.91-0.85-3.2C134.17,263.31,136.45,265.78,138.24,265.53z M140.34,263.8
		c0.28,0.36-2.69,3.02-4.4,0.1C137.15,261.94,139.14,262.31,140.34,263.8z"/>
	<linearGradient id="SVGID_55_" gradientUnits="userSpaceOnUse" x1="128.4116" y1="263.9044" x2="133.1835" y2="263.9044">
		<stop  offset="4.469269e-03" style="stop-color:#F63A20"/>
		<stop  offset="1" style="stop-color:#B26257"/>
	</linearGradient>
	<path class="st54" d="M131.47,265.49c3.44-0.89,0.96-3.75-1.14-3.14C126.25,263.51,129.68,265.95,131.47,265.49z M129.68,264.9
		c-2.64-1.4,0.94-2.75,2.12-2.17C134.24,263.91,131.84,266.04,129.68,264.9z"/>
	<linearGradient id="SVGID_56_" gradientUnits="userSpaceOnUse" x1="123.1673" y1="260.5568" x2="126.7215" y2="260.5568">
		<stop  offset="4.469269e-03" style="stop-color:#F63A20"/>
		<stop  offset="1" style="stop-color:#B26257"/>
	</linearGradient>
	<path class="st55" d="M125.38,258.69c-2.74-1.42-2.54,2.03-1.54,3.02C127.12,264.94,127.55,259.81,125.38,258.69z M126.18,262.33
		c-0.18,0.48-3.05-0.53-2.69-2.66C123.87,257.37,127.31,259.26,126.18,262.33z"/>
	<linearGradient id="SVGID_57_" gradientUnits="userSpaceOnUse" x1="123.1627" y1="254.1561" x2="126.7098" y2="254.1561">
		<stop  offset="4.469269e-03" style="stop-color:#F63A20"/>
		<stop  offset="1" style="stop-color:#B26257"/>
	</linearGradient>
	<path class="st56" d="M125.54,255.95c1.95-1.16,1.54-6.22-1.74-2.88C122.7,254.19,122.88,257.53,125.54,255.95z M126.1,252.22
		c1.46,2.87-2.25,5.41-2.63,2.76C123.25,253.39,124.75,252.4,126.1,252.22z"/>
	<linearGradient id="SVGID_58_" gradientUnits="userSpaceOnUse" x1="124.4439" y1="257.3508" x2="129.2025" y2="257.3508">
		<stop  offset="4.469269e-03" style="stop-color:#F63A20"/>
		<stop  offset="1" style="stop-color:#B26257"/>
	</linearGradient>
	<path class="st57" d="M125.74,255.92c-2.98,1.37-0.18,3.79,2.08,2.79C131.27,257.2,127.36,255.17,125.74,255.92z M127.18,258.65
		c-1.08,0.3-2.01-0.32-2.57-1.29C126.45,254.27,131.36,257.49,127.18,258.65z"/>
	<linearGradient id="SVGID_59_" gradientUnits="userSpaceOnUse" x1="142.2691" y1="254.1615" x2="145.7463" y2="254.1615">
		<stop  offset="4.469269e-03" style="stop-color:#F63A20"/>
		<stop  offset="1" style="stop-color:#B26257"/>
	</linearGradient>
	<path class="st58" d="M142.86,251.95c-0.67-0.07-1.54,4.47,2.27,4.43C145.73,256.37,146.86,252.4,142.86,251.95z M145.46,255.08
		c-0.46,2.58-4.09-0.28-2.61-2.85C144.14,252.33,145.75,253.41,145.46,255.08z"/>
	<linearGradient id="SVGID_60_" gradientUnits="userSpaceOnUse" x1="142.2471" y1="260.5645" x2="145.7273" y2="260.5645">
		<stop  offset="4.469269e-03" style="stop-color:#F63A20"/>
		<stop  offset="1" style="stop-color:#B26257"/>
	</linearGradient>
	<path class="st59" d="M145.1,258.35c-2.6-0.01-3.45,2.5-2.43,4.44C146.46,262.78,146,258.35,145.1,258.35z M145.45,260.53
		c-0.21,1.06-2.99,3.47-2.9,0.53C142.64,258.39,146.06,257.54,145.45,260.53z"/>
	<linearGradient id="SVGID_61_" gradientUnits="userSpaceOnUse" x1="139.7158" y1="257.3655" x2="144.4949" y2="257.3655">
		<stop  offset="4.469269e-03" style="stop-color:#F63A20"/>
		<stop  offset="1" style="stop-color:#B26257"/>
	</linearGradient>
	<path class="st60" d="M142.9,258.92c3.36-1.02,0.75-4.04-1.75-2.92C137.57,257.6,141.67,259.29,142.9,258.92z M141.93,256.04
		c2.73-0.58,3.12,3.43-0.07,2.64C139.01,257.96,139.92,256.47,141.93,256.04z"/>
	<linearGradient id="SVGID_62_" gradientUnits="userSpaceOnUse" x1="145.2014" y1="263.906" x2="146.4143" y2="263.906">
		<stop  offset="4.469269e-03" style="stop-color:#F63A20"/>
		<stop  offset="1" style="stop-color:#B26257"/>
	</linearGradient>
	<path class="st61" d="M145.2,263.9c0.73,0.78,0.45,0.82,1.21,0C145.68,263.05,145.88,263.18,145.2,263.9z M145.43,263.9
		c0.44-0.47,0.32-0.51,0.76,0.01C145.74,264.39,145.89,264.4,145.43,263.9z"/>
	<linearGradient id="SVGID_63_" gradientUnits="userSpaceOnUse" x1="122.5295" y1="263.9001" x2="123.7487" y2="263.9001">
		<stop  offset="4.469269e-03" style="stop-color:#F63A20"/>
		<stop  offset="1" style="stop-color:#B26257"/>
	</linearGradient>
	<path class="st62" d="M123.75,263.9c-0.73-0.78-0.45-0.82-1.22,0C123.26,264.68,122.99,264.72,123.75,263.9z M123.52,263.9
		c-0.46,0.5-0.28,0.52-0.77,0C123.21,263.41,123.04,263.38,123.52,263.9z"/>
	<linearGradient id="SVGID_64_" gradientUnits="userSpaceOnUse" x1="122.5334" y1="250.8204" x2="123.7487" y2="250.8204">
		<stop  offset="4.469269e-03" style="stop-color:#F63A20"/>
		<stop  offset="1" style="stop-color:#B26257"/>
	</linearGradient>
	<path class="st63" d="M123.75,250.82c-0.73-0.78-0.45-0.81-1.22-0.01C123.27,251.68,123.07,251.56,123.75,250.82z M123.14,250.41
		c0.49,0.51,0.46,0.32,0,0.82C122.68,250.74,122.66,250.93,123.14,250.41z"/>
	<linearGradient id="SVGID_65_" gradientUnits="userSpaceOnUse" x1="145.1984" y1="250.8236" x2="146.4201" y2="250.8236">
		<stop  offset="4.469269e-03" style="stop-color:#F63A20"/>
		<stop  offset="1" style="stop-color:#B26257"/>
	</linearGradient>
	<path class="st64" d="M145.2,250.82c0.74,0.78,0.46,0.82,1.22,0C145.69,250.04,145.97,250.01,145.2,250.82z M145.43,250.82
		c0.46-0.49,0.29-0.51,0.77,0C145.73,251.32,145.91,251.34,145.43,250.82z"/>
	<linearGradient id="SVGID_66_" gradientUnits="userSpaceOnUse" x1="128.263" y1="267.1835" x2="129.3689" y2="267.1835">
		<stop  offset="4.469269e-03" style="stop-color:#F63A20"/>
		<stop  offset="1" style="stop-color:#B26257"/>
	</linearGradient>
	<path class="st65" d="M129.11,267.7c0.09-0.29,0.17-0.56,0.25-0.85c-1.03-0.24-0.82-0.38-1.07,0.49
		C128.23,267.54,128.16,267.48,129.11,267.7z M129.16,266.97c-0.2,0.65-0.03,0.57-0.71,0.41
		C128.65,266.71,128.5,266.82,129.16,266.97z"/>
	<linearGradient id="SVGID_67_" gradientUnits="userSpaceOnUse" x1="139.6041" y1="267.174" x2="140.6684" y2="267.174">
		<stop  offset="4.469269e-03" style="stop-color:#F63A20"/>
		<stop  offset="1" style="stop-color:#B26257"/>
	</linearGradient>
	<path class="st66" d="M140.44,266.65c-1.08,0.25-0.91,0.03-0.6,1.05C140.78,267.48,140.83,267.71,140.44,266.65z M139.79,266.97
		c0.66-0.15,0.5-0.26,0.71,0.41C139.84,267.54,139.99,267.65,139.79,266.97z"/>
	<linearGradient id="SVGID_68_" gradientUnits="userSpaceOnUse" x1="133.9078" y1="257.3485" x2="135.0798" y2="257.3485">
		<stop  offset="4.469269e-03" style="stop-color:#F63A20"/>
		<stop  offset="1" style="stop-color:#B26257"/>
	</linearGradient>
	<path class="st67" d="M134.46,256.73c-0.69,0.73-0.67,0.55-0.29,0.96c0.38,0.4,0.21,0.42,0.91-0.33
		C134.45,256.7,134.6,256.85,134.46,256.73z M134.49,257.75c-0.58-0.37-0.33-0.46-0.02-0.79
		C134.93,257.44,134.95,257.26,134.49,257.75z"/>
	<linearGradient id="SVGID_69_" gradientUnits="userSpaceOnUse" x1="128.2517" y1="273.7049" x2="129.3728" y2="273.7049">
		<stop  offset="4.469269e-03" style="stop-color:#F63A20"/>
		<stop  offset="1" style="stop-color:#B26257"/>
	</linearGradient>
	<path class="st68" d="M128.25,273.38c0.27,1.03,0.09,0.89,1.12,0.65C129.06,273.01,129.33,273.13,128.25,273.38z M128.62,274.04
		c-0.2-0.64-0.31-0.5,0.38-0.66C129.21,274.05,129.27,273.88,128.62,274.04z"/>
	<linearGradient id="SVGID_70_" gradientUnits="userSpaceOnUse" x1="139.5827" y1="273.696" x2="140.6885" y2="273.696">
		<stop  offset="4.469269e-03" style="stop-color:#F63A20"/>
		<stop  offset="1" style="stop-color:#B26257"/>
	</linearGradient>
	<path class="st69" d="M140.64,273.63c0.09-0.31,0.17-0.22-0.79-0.44c-0.1,0.26-0.02,0.01-0.27,0.84
		C140.59,274.31,140.43,274.32,140.64,273.63z M139.79,273.91c0.2-0.65,0.02-0.57,0.71-0.41
		C140.3,274.15,140.48,274.07,139.79,273.91z"/>
	<linearGradient id="SVGID_71_" gradientUnits="userSpaceOnUse" x1="139.6089" y1="254.1005" x2="140.674" y2="254.1005">
		<stop  offset="4.469269e-03" style="stop-color:#F63A20"/>
		<stop  offset="1" style="stop-color:#B26257"/>
	</linearGradient>
	<path class="st70" d="M139.84,254.62c1.04-0.25,0.93,0.01,0.61-1.05C139.34,253.78,139.55,253.69,139.84,254.62z M140.5,254.3
		c-0.68,0.16-0.51,0.24-0.71-0.41C140.45,253.74,140.29,253.63,140.5,254.3z"/>
	<linearGradient id="SVGID_72_" gradientUnits="userSpaceOnUse" x1="128.2434" y1="254.0953" x2="129.3708" y2="254.0953">
		<stop  offset="4.469269e-03" style="stop-color:#F63A20"/>
		<stop  offset="1" style="stop-color:#B26257"/>
	</linearGradient>
	<path class="st71" d="M129.37,253.77c-1.05-0.24-0.8-0.42-1.13,0.65C129.29,254.66,129.05,254.84,129.37,253.77z M128.62,253.76
		c0.62,0.14,0.6,0.02,0.37,0.66C128.37,254.28,128.41,254.44,128.62,253.76z"/>
	<linearGradient id="SVGID_73_" gradientUnits="userSpaceOnUse" x1="128.2748" y1="260.6278" x2="129.3391" y2="260.6278">
		<stop  offset="4.469269e-03" style="stop-color:#F63A20"/>
		<stop  offset="1" style="stop-color:#B26257"/>
	</linearGradient>
	<path class="st72" d="M128.5,261.16c1.05-0.24,0.94,0.02,0.61-1.06C128.06,260.35,128.18,260.08,128.5,261.16z M129.16,260.83
		c-0.66,0.15-0.5,0.26-0.71-0.39C129.08,260.15,129.02,260.38,129.16,260.83z"/>
	<linearGradient id="SVGID_74_" gradientUnits="userSpaceOnUse" x1="139.5813" y1="260.6294" x2="140.7063" y2="260.6294">
		<stop  offset="4.469269e-03" style="stop-color:#F63A20"/>
		<stop  offset="1" style="stop-color:#B26257"/>
	</linearGradient>
	<path class="st73" d="M140.71,260.3c-1.05-0.24-0.8-0.42-1.12,0.65C140.62,261.2,140.38,261.38,140.71,260.3z M139.79,260.84
		c0.2-0.67,0.05-0.56,0.71-0.41C140.3,261.07,140.48,260.99,139.79,260.84z"/>
	<linearGradient id="SVGID_75_" gradientUnits="userSpaceOnUse" x1="133.917" y1="270.4437" x2="135.0305" y2="270.4437">
		<stop  offset="4.469269e-03" style="stop-color:#F63A20"/>
		<stop  offset="1" style="stop-color:#B26257"/>
	</linearGradient>
	<path class="st74" d="M134.47,269.8c-0.72,0.77-0.75,0.48,0.01,1.29C135.21,270.3,135.22,270.56,134.47,269.8z M134.1,270.44
		c0.45-0.49,0.28-0.51,0.76,0C134.4,270.93,134.57,270.95,134.1,270.44z"/>
	<linearGradient id="SVGID_76_" gradientUnits="userSpaceOnUse" x1="135.3243" y1="240.726" x2="138.6251" y2="240.726">
		<stop  offset="4.469269e-03" style="stop-color:#F63A20"/>
		<stop  offset="1" style="stop-color:#B26257"/>
	</linearGradient>
	<path class="st75" d="M137.83,241.55c2.21-1.24-0.79-2.06-1.38-1.9C134.07,240.29,135.91,242.62,137.83,241.55z M138.35,240.56
		c0.34,0.38-1.16,1.51-2.21,0.91C134.43,240.49,136.82,238.86,138.35,240.56z"/>
	<linearGradient id="SVGID_77_" gradientUnits="userSpaceOnUse" x1="130.1389" y1="242.9654" x2="130.9099" y2="242.9654">
		<stop  offset="4.469269e-03" style="stop-color:#F63A20"/>
		<stop  offset="1" style="stop-color:#B26257"/>
	</linearGradient>
	<path class="st76" d="M130.91,242.74c-0.72-0.17-0.55-0.29-0.77,0.45C130.85,243.36,130.69,243.48,130.91,242.74z M130.77,242.82
		c-0.14,0.44-0.02,0.39-0.49,0.28C130.42,242.64,130.31,242.72,130.77,242.82z"/>
	<linearGradient id="SVGID_78_" gradientUnits="userSpaceOnUse" x1="137.9157" y1="242.9629" x2="138.6828" y2="242.9629">
		<stop  offset="4.469269e-03" style="stop-color:#F63A20"/>
		<stop  offset="1" style="stop-color:#B26257"/>
	</linearGradient>
	<path class="st77" d="M137.92,242.75c0.19,0.69,0.05,0.6,0.77,0.43C138.5,242.61,138.62,242.49,137.92,242.75z M138.16,243.19
		c-0.14-0.46-0.19-0.34,0.26-0.45C138.56,243.17,138.62,243.09,138.16,243.19z"/>
	<linearGradient id="SVGID_79_" gradientUnits="userSpaceOnUse" x1="105.821" y1="216.477" x2="121.0344" y2="216.477">
		<stop  offset="4.469269e-03" style="stop-color:#F63A20"/>
		<stop  offset="1" style="stop-color:#B26257"/>
	</linearGradient>
	<polygon class="st78" points="116.72,218.31 121.03,214.77 115.46,214.44 113.43,209.24 111.39,214.44 105.82,214.77 
		110.14,218.31 108.73,223.71 113.43,220.7 118.13,223.71 	"/>
	<linearGradient id="SVGID_80_" gradientUnits="userSpaceOnUse" x1="112.8757" y1="207.1368" x2="113.9787" y2="207.1368">
		<stop  offset="4.469269e-03" style="stop-color:#F63A20"/>
		<stop  offset="1" style="stop-color:#B26257"/>
	</linearGradient>
	<path class="st79" d="M113.04,207.52c0.1,0.1,0.24,0.16,0.39,0.16c0.15,0,0.29-0.06,0.39-0.16c0.1-0.1,0.16-0.24,0.16-0.39
		c0-0.15-0.06-0.29-0.16-0.39c-0.15-0.15-0.4-0.2-0.6-0.12c-0.07,0.03-0.12,0.07-0.18,0.12c-0.1,0.1-0.16,0.24-0.16,0.39
		C112.88,207.28,112.93,207.42,113.04,207.52z"/>
	<linearGradient id="SVGID_81_" gradientUnits="userSpaceOnUse" x1="112.8757" y1="199.8853" x2="113.9787" y2="199.8853">
		<stop  offset="4.469269e-03" style="stop-color:#F63A20"/>
		<stop  offset="1" style="stop-color:#B26257"/>
	</linearGradient>
	<path class="st80" d="M113.43,200.44c0.31,0,0.55-0.24,0.55-0.55c0-0.3-0.24-0.55-0.55-0.55c-0.3,0-0.55,0.25-0.55,0.55
		C112.88,200.19,113.13,200.44,113.43,200.44z"/>
	<linearGradient id="SVGID_82_" gradientUnits="userSpaceOnUse" x1="112.8757" y1="192.6363" x2="113.9787" y2="192.6363">
		<stop  offset="4.469269e-03" style="stop-color:#F63A20"/>
		<stop  offset="1" style="stop-color:#B26257"/>
	</linearGradient>
	<path class="st81" d="M113.43,193.19c0.31,0,0.55-0.24,0.55-0.55c0-0.3-0.24-0.55-0.55-0.55c-0.3,0-0.55,0.25-0.55,0.55
		C112.88,192.94,113.13,193.19,113.43,193.19z"/>
	<linearGradient id="SVGID_83_" gradientUnits="userSpaceOnUse" x1="112.8757" y1="203.51" x2="113.9787" y2="203.51">
		<stop  offset="4.469269e-03" style="stop-color:#F63A20"/>
		<stop  offset="1" style="stop-color:#B26257"/>
	</linearGradient>
	<path class="st82" d="M113.43,204.06c0.31,0,0.55-0.24,0.55-0.55c0-0.3-0.24-0.55-0.55-0.55c-0.3,0-0.55,0.25-0.55,0.55
		C112.88,203.82,113.13,204.06,113.43,204.06z"/>
	<linearGradient id="SVGID_84_" gradientUnits="userSpaceOnUse" x1="112.8757" y1="181.7626" x2="113.9787" y2="181.7626">
		<stop  offset="4.469269e-03" style="stop-color:#F63A20"/>
		<stop  offset="1" style="stop-color:#B26257"/>
	</linearGradient>
	<path class="st83" d="M113.43,182.31c0.31,0,0.55-0.25,0.55-0.55c0-0.31-0.24-0.55-0.55-0.55c-0.3,0-0.55,0.24-0.55,0.55
		C112.88,182.06,113.13,182.31,113.43,182.31z"/>
	<linearGradient id="SVGID_85_" gradientUnits="userSpaceOnUse" x1="112.8757" y1="185.3873" x2="113.9787" y2="185.3873">
		<stop  offset="4.469269e-03" style="stop-color:#F63A20"/>
		<stop  offset="1" style="stop-color:#B26257"/>
	</linearGradient>
	<path class="st84" d="M113.43,185.94c0.31,0,0.55-0.25,0.55-0.55c0-0.31-0.24-0.55-0.55-0.55c-0.3,0-0.55,0.24-0.55,0.55
		C112.88,185.69,113.13,185.94,113.43,185.94z"/>
	<linearGradient id="SVGID_86_" gradientUnits="userSpaceOnUse" x1="112.8757" y1="189.0116" x2="113.9787" y2="189.0116">
		<stop  offset="4.469269e-03" style="stop-color:#F63A20"/>
		<stop  offset="1" style="stop-color:#B26257"/>
	</linearGradient>
	<path class="st85" d="M113.43,189.56c0.31,0,0.55-0.25,0.55-0.55c0-0.3-0.24-0.55-0.55-0.55c-0.3,0-0.55,0.25-0.55,0.55
		C112.88,189.31,113.13,189.56,113.43,189.56z"/>
	<linearGradient id="SVGID_87_" gradientUnits="userSpaceOnUse" x1="112.8757" y1="196.261" x2="113.9787" y2="196.261">
		<stop  offset="4.469269e-03" style="stop-color:#F63A20"/>
		<stop  offset="1" style="stop-color:#B26257"/>
	</linearGradient>
	<path class="st86" d="M113.43,196.81c0.31,0,0.55-0.25,0.55-0.55c0-0.3-0.24-0.55-0.55-0.55c-0.3,0-0.55,0.25-0.55,0.55
		C112.88,196.56,113.13,196.81,113.43,196.81z"/>
	<linearGradient id="SVGID_88_" gradientUnits="userSpaceOnUse" x1="64.5476" y1="165.403" x2="76.0349" y2="165.403">
		<stop  offset="4.469269e-03" style="stop-color:#F63A20"/>
		<stop  offset="1" style="stop-color:#B26257"/>
	</linearGradient>
	<polygon class="st87" points="64.55,164.11 67.81,166.79 66.74,170.87 70.29,168.59 73.84,170.87 72.77,166.79 76.03,164.11 
		71.83,163.87 70.29,159.94 68.76,163.87 	"/>
	<linearGradient id="SVGID_89_" gradientUnits="userSpaceOnUse" x1="69.8747" y1="158.3505" x2="70.7072" y2="158.3505">
		<stop  offset="4.469269e-03" style="stop-color:#F63A20"/>
		<stop  offset="1" style="stop-color:#B26257"/>
	</linearGradient>
	<path class="st88" d="M70,158.64c0.08,0.08,0.18,0.12,0.29,0.12c0.11,0,0.22-0.04,0.29-0.12c0.08-0.08,0.12-0.18,0.12-0.29
		c0-0.11-0.04-0.22-0.12-0.29c-0.12-0.12-0.3-0.15-0.46-0.09c-0.05,0.02-0.09,0.05-0.13,0.09c-0.08,0.08-0.12,0.18-0.12,0.29
		C69.87,158.46,69.92,158.57,70,158.64z"/>
	<linearGradient id="SVGID_90_" gradientUnits="userSpaceOnUse" x1="69.8747" y1="152.8751" x2="70.7072" y2="152.8751">
		<stop  offset="4.469269e-03" style="stop-color:#F63A20"/>
		<stop  offset="1" style="stop-color:#B26257"/>
	</linearGradient>
	<path class="st89" d="M70.29,153.29c0.23,0,0.42-0.18,0.42-0.42c0-0.23-0.18-0.42-0.42-0.42c-0.23,0-0.42,0.19-0.42,0.42
		C69.87,153.11,70.06,153.29,70.29,153.29z"/>
	<linearGradient id="SVGID_91_" gradientUnits="userSpaceOnUse" x1="69.8747" y1="155.612" x2="70.7072" y2="155.612">
		<stop  offset="4.469269e-03" style="stop-color:#F63A20"/>
		<stop  offset="1" style="stop-color:#B26257"/>
	</linearGradient>
	<path class="st90" d="M70.29,156.03c0.23,0,0.42-0.18,0.42-0.42c0-0.23-0.18-0.42-0.42-0.42c-0.23,0-0.42,0.19-0.42,0.42
		C69.87,155.85,70.06,156.03,70.29,156.03z"/>
	<linearGradient id="SVGID_92_" gradientUnits="userSpaceOnUse" x1="69.8747" y1="144.6648" x2="70.7072" y2="144.6648">
		<stop  offset="4.469269e-03" style="stop-color:#F63A20"/>
		<stop  offset="1" style="stop-color:#B26257"/>
	</linearGradient>
	<path class="st91" d="M70.29,145.08c0.23,0,0.42-0.19,0.42-0.42c0-0.23-0.18-0.42-0.42-0.42c-0.23,0-0.42,0.19-0.42,0.42
		C69.87,144.89,70.06,145.08,70.29,145.08z"/>
	<linearGradient id="SVGID_93_" gradientUnits="userSpaceOnUse" x1="69.8747" y1="150.1386" x2="70.7072" y2="150.1386">
		<stop  offset="4.469269e-03" style="stop-color:#F63A20"/>
		<stop  offset="1" style="stop-color:#B26257"/>
	</linearGradient>
	<path class="st92" d="M70.29,150.55c0.23,0,0.42-0.19,0.42-0.42c0-0.23-0.18-0.42-0.42-0.42c-0.23,0-0.42,0.19-0.42,0.42
		C69.87,150.37,70.06,150.55,70.29,150.55z"/>
	<linearGradient id="SVGID_94_" gradientUnits="userSpaceOnUse" x1="69.8747" y1="141.9282" x2="70.7072" y2="141.9282">
		<stop  offset="4.469269e-03" style="stop-color:#F63A20"/>
		<stop  offset="1" style="stop-color:#B26257"/>
	</linearGradient>
	<path class="st93" d="M70.29,142.34c0.23,0,0.42-0.19,0.42-0.42c0-0.23-0.18-0.42-0.42-0.42c-0.23,0-0.42,0.18-0.42,0.42
		C69.87,142.16,70.06,142.34,70.29,142.34z"/>
	<linearGradient id="SVGID_95_" gradientUnits="userSpaceOnUse" x1="69.8747" y1="147.4016" x2="70.7072" y2="147.4016">
		<stop  offset="4.469269e-03" style="stop-color:#F63A20"/>
		<stop  offset="1" style="stop-color:#B26257"/>
	</linearGradient>
	<path class="st94" d="M70.29,147.82c0.23,0,0.42-0.18,0.42-0.42c0-0.23-0.18-0.42-0.42-0.42c-0.23,0-0.42,0.19-0.42,0.42
		C69.87,147.63,70.06,147.82,70.29,147.82z"/>
	<linearGradient id="SVGID_96_" gradientUnits="userSpaceOnUse" x1="69.8747" y1="128.2444" x2="70.7072" y2="128.2444">
		<stop  offset="4.469269e-03" style="stop-color:#F63A20"/>
		<stop  offset="1" style="stop-color:#B26257"/>
	</linearGradient>
	<path class="st95" d="M70.29,128.66c0.23,0,0.42-0.19,0.42-0.42c0-0.23-0.18-0.42-0.42-0.42c-0.23,0-0.42,0.18-0.42,0.42
		C69.87,128.47,70.06,128.66,70.29,128.66z"/>
	<linearGradient id="SVGID_97_" gradientUnits="userSpaceOnUse" x1="69.8747" y1="122.7707" x2="70.7072" y2="122.7707">
		<stop  offset="4.469269e-03" style="stop-color:#F63A20"/>
		<stop  offset="1" style="stop-color:#B26257"/>
	</linearGradient>
	<path class="st96" d="M70.29,123.19c0.23,0,0.42-0.19,0.42-0.42c0-0.23-0.18-0.42-0.42-0.42c-0.23,0-0.42,0.18-0.42,0.42
		C69.87,123,70.06,123.19,70.29,123.19z"/>
	<linearGradient id="SVGID_98_" gradientUnits="userSpaceOnUse" x1="69.8747" y1="130.981" x2="70.7072" y2="130.981">
		<stop  offset="4.469269e-03" style="stop-color:#F63A20"/>
		<stop  offset="1" style="stop-color:#B26257"/>
	</linearGradient>
	<path class="st97" d="M70.29,131.4c0.23,0,0.42-0.19,0.42-0.42c0-0.23-0.18-0.42-0.42-0.42c-0.23,0-0.42,0.18-0.42,0.42
		C69.87,131.21,70.06,131.4,70.29,131.4z"/>
	<linearGradient id="SVGID_99_" gradientUnits="userSpaceOnUse" x1="69.8747" y1="139.1913" x2="70.7072" y2="139.1913">
		<stop  offset="4.469269e-03" style="stop-color:#F63A20"/>
		<stop  offset="1" style="stop-color:#B26257"/>
	</linearGradient>
	<path class="st98" d="M70.29,139.61c0.23,0,0.42-0.19,0.42-0.42c0-0.23-0.18-0.42-0.42-0.42c-0.23,0-0.42,0.18-0.42,0.42
		C69.87,139.42,70.06,139.61,70.29,139.61z"/>
	<linearGradient id="SVGID_100_" gradientUnits="userSpaceOnUse" x1="69.8747" y1="125.5075" x2="70.7072" y2="125.5075">
		<stop  offset="4.469269e-03" style="stop-color:#F63A20"/>
		<stop  offset="1" style="stop-color:#B26257"/>
	</linearGradient>
	<path class="st99" d="M70.29,125.92c0.23,0,0.42-0.19,0.42-0.42c0-0.23-0.18-0.42-0.42-0.42c-0.23,0-0.42,0.18-0.42,0.42
		C69.87,125.74,70.06,125.92,70.29,125.92z"/>
	<linearGradient id="SVGID_101_" gradientUnits="userSpaceOnUse" x1="69.8747" y1="133.7178" x2="70.7072" y2="133.7178">
		<stop  offset="4.469269e-03" style="stop-color:#F63A20"/>
		<stop  offset="1" style="stop-color:#B26257"/>
	</linearGradient>
	<path class="st100" d="M70.29,134.13c0.23,0,0.42-0.19,0.42-0.42c0-0.23-0.18-0.42-0.42-0.42c-0.23,0-0.42,0.18-0.42,0.42
		C69.87,133.95,70.06,134.13,70.29,134.13z"/>
	<linearGradient id="SVGID_102_" gradientUnits="userSpaceOnUse" x1="69.8747" y1="136.4547" x2="70.7072" y2="136.4547">
		<stop  offset="4.469269e-03" style="stop-color:#F63A20"/>
		<stop  offset="1" style="stop-color:#B26257"/>
	</linearGradient>
	<path class="st101" d="M70.29,136.87c0.23,0,0.42-0.19,0.42-0.42c0-0.23-0.18-0.42-0.42-0.42c-0.23,0-0.42,0.19-0.42,0.42
		C69.87,136.68,70.06,136.87,70.29,136.87z"/>
	<linearGradient id="SVGID_103_" gradientUnits="userSpaceOnUse" x1="172.5705" y1="209.0278" x2="184.0578" y2="209.0278">
		<stop  offset="4.469269e-03" style="stop-color:#F63A20"/>
		<stop  offset="1" style="stop-color:#B26257"/>
	</linearGradient>
	<polygon class="st102" points="179.85,207.49 178.31,203.57 176.78,207.49 172.57,207.74 175.83,210.41 174.76,214.49 
		178.31,212.22 181.86,214.49 180.8,210.41 184.06,207.74 	"/>
	<linearGradient id="SVGID_104_" gradientUnits="userSpaceOnUse" x1="177.8972" y1="201.9753" x2="178.7302" y2="201.9753">
		<stop  offset="4.469269e-03" style="stop-color:#F63A20"/>
		<stop  offset="1" style="stop-color:#B26257"/>
	</linearGradient>
	<path class="st103" d="M178.02,202.27c0.08,0.08,0.18,0.12,0.29,0.12c0.11,0,0.22-0.04,0.29-0.12c0.08-0.08,0.12-0.18,0.12-0.29
		c0-0.11-0.04-0.22-0.12-0.29c-0.12-0.12-0.3-0.15-0.46-0.09c-0.05,0.02-0.09,0.05-0.13,0.09c-0.08,0.08-0.12,0.18-0.12,0.29
		C177.9,202.08,177.94,202.19,178.02,202.27z"/>
	<linearGradient id="SVGID_105_" gradientUnits="userSpaceOnUse" x1="177.8972" y1="196.5" x2="178.7302" y2="196.5">
		<stop  offset="4.469269e-03" style="stop-color:#F63A20"/>
		<stop  offset="1" style="stop-color:#B26257"/>
	</linearGradient>
	<path class="st104" d="M178.31,196.92c0.23,0,0.42-0.18,0.42-0.42c0-0.23-0.18-0.42-0.42-0.42c-0.23,0-0.42,0.19-0.42,0.42
		C177.9,196.73,178.09,196.92,178.31,196.92z"/>
	<linearGradient id="SVGID_106_" gradientUnits="userSpaceOnUse" x1="177.8972" y1="199.2369" x2="178.7302" y2="199.2369">
		<stop  offset="4.469269e-03" style="stop-color:#F63A20"/>
		<stop  offset="1" style="stop-color:#B26257"/>
	</linearGradient>
	<circle class="st105" cx="178.31" cy="199.24" r="0.42"/>
	<linearGradient id="SVGID_107_" gradientUnits="userSpaceOnUse" x1="151.239" y1="226.8072" x2="164.1145" y2="226.8072">
		<stop  offset="4.469269e-03" style="stop-color:#F63A20"/>
		<stop  offset="1" style="stop-color:#B26257"/>
	</linearGradient>
	<polygon class="st106" points="159.4,225.09 157.68,220.68 155.96,225.09 151.24,225.36 154.89,228.36 153.7,232.93 157.68,230.38 
		161.66,232.93 160.46,228.36 164.11,225.36 	"/>
	<linearGradient id="SVGID_108_" gradientUnits="userSpaceOnUse" x1="157.2097" y1="218.9022" x2="158.1428" y2="218.9022">
		<stop  offset="4.469269e-03" style="stop-color:#F63A20"/>
		<stop  offset="1" style="stop-color:#B26257"/>
	</linearGradient>
	<path class="st107" d="M157.35,219.23c0.09,0.09,0.21,0.14,0.33,0.14c0.12,0,0.24-0.05,0.33-0.14c0.09-0.09,0.14-0.21,0.14-0.33
		c0-0.12-0.05-0.24-0.14-0.33c-0.13-0.13-0.34-0.17-0.51-0.1c-0.06,0.02-0.11,0.06-0.15,0.1c-0.09,0.09-0.14,0.21-0.14,0.33
		C157.21,219.02,157.26,219.14,157.35,219.23z"/>
	<linearGradient id="SVGID_109_" gradientUnits="userSpaceOnUse" x1="157.2097" y1="203.5624" x2="158.1428" y2="203.5624">
		<stop  offset="4.469269e-03" style="stop-color:#F63A20"/>
		<stop  offset="1" style="stop-color:#B26257"/>
	</linearGradient>
	<path class="st108" d="M157.68,204.03c0.26,0,0.47-0.21,0.47-0.47c0-0.25-0.21-0.47-0.47-0.47c-0.25,0-0.47,0.21-0.47,0.47
		C157.21,203.82,157.42,204.03,157.68,204.03z"/>
	<linearGradient id="SVGID_110_" gradientUnits="userSpaceOnUse" x1="157.2097" y1="209.6977" x2="158.1428" y2="209.6977">
		<stop  offset="4.469269e-03" style="stop-color:#F63A20"/>
		<stop  offset="1" style="stop-color:#B26257"/>
	</linearGradient>
	<path class="st109" d="M157.68,210.16c0.26,0,0.47-0.21,0.47-0.47c0-0.26-0.21-0.47-0.47-0.47c-0.25,0-0.47,0.21-0.47,0.47
		C157.21,209.95,157.42,210.16,157.68,210.16z"/>
	<linearGradient id="SVGID_111_" gradientUnits="userSpaceOnUse" x1="157.2097" y1="212.7651" x2="158.1428" y2="212.7651">
		<stop  offset="4.469269e-03" style="stop-color:#F63A20"/>
		<stop  offset="1" style="stop-color:#B26257"/>
	</linearGradient>
	<path class="st110" d="M157.68,213.23c0.26,0,0.47-0.21,0.47-0.47c0-0.26-0.21-0.47-0.47-0.47c-0.25,0-0.47,0.21-0.47,0.47
		C157.21,213.03,157.42,213.23,157.68,213.23z"/>
	<linearGradient id="SVGID_112_" gradientUnits="userSpaceOnUse" x1="157.2097" y1="206.6301" x2="158.1428" y2="206.6301">
		<stop  offset="4.469269e-03" style="stop-color:#F63A20"/>
		<stop  offset="1" style="stop-color:#B26257"/>
	</linearGradient>
	<path class="st111" d="M157.68,207.1c0.26,0,0.47-0.21,0.47-0.47c0-0.26-0.21-0.47-0.47-0.47c-0.25,0-0.47,0.21-0.47,0.47
		C157.21,206.89,157.42,207.1,157.68,207.1z"/>
	<linearGradient id="SVGID_113_" gradientUnits="userSpaceOnUse" x1="157.2097" y1="200.495" x2="158.1428" y2="200.495">
		<stop  offset="4.469269e-03" style="stop-color:#F63A20"/>
		<stop  offset="1" style="stop-color:#B26257"/>
	</linearGradient>
	<path class="st112" d="M157.68,200.96c0.26,0,0.47-0.21,0.47-0.47c0-0.26-0.21-0.47-0.47-0.47c-0.25,0-0.47,0.21-0.47,0.47
		C157.21,200.75,157.42,200.96,157.68,200.96z"/>
	<linearGradient id="SVGID_114_" gradientUnits="userSpaceOnUse" x1="157.2097" y1="215.8328" x2="158.1428" y2="215.8328">
		<stop  offset="4.469269e-03" style="stop-color:#F63A20"/>
		<stop  offset="1" style="stop-color:#B26257"/>
	</linearGradient>
	<path class="st113" d="M157.68,216.3c0.26,0,0.47-0.21,0.47-0.47c0-0.26-0.21-0.47-0.47-0.47c-0.25,0-0.47,0.21-0.47,0.47
		C157.21,216.09,157.42,216.3,157.68,216.3z"/>
	<linearGradient id="SVGID_115_" gradientUnits="userSpaceOnUse" x1="157.2097" y1="197.4273" x2="158.1428" y2="197.4273">
		<stop  offset="4.469269e-03" style="stop-color:#F63A20"/>
		<stop  offset="1" style="stop-color:#B26257"/>
	</linearGradient>
	<path class="st114" d="M157.68,197.89c0.26,0,0.47-0.21,0.47-0.47c0-0.26-0.21-0.47-0.47-0.47c-0.25,0-0.47,0.21-0.47,0.47
		C157.21,197.68,157.42,197.89,157.68,197.89z"/>
	<linearGradient id="SVGID_116_" gradientUnits="userSpaceOnUse" x1="64.4116" y1="143.5169" x2="260.5539" y2="143.5169">
		<stop  offset="4.469269e-03" style="stop-color:#F63A20"/>
		<stop  offset="1" style="stop-color:#B26257"/>
	</linearGradient>
	<path class="st115" d="M237.08,154.98c-4.49,4.1-9.29,7.66-14.3,10.7v-1.67h0.7v-9.65h0.01c0-1.76-0.39-3.37-1.03-4.69v-18.78h0.01
		c0-1.48-0.35-2.82-0.91-3.91v-13.51h0.01c0-1.01-0.2-1.95-0.55-2.74V97.9h0c0-1.94-0.88-3.57-2.07-4.07
		c0.03-0.12,0.06-0.23,0.06-0.36c0-0.48-0.22-0.88-0.54-1.06l-0.1-3.07c0.18-0.12,0.31-0.36,0.31-0.65c0-0.31-0.15-0.57-0.36-0.68
		l-0.22-6.69L217.88,88c-0.21,0.11-0.36,0.37-0.36,0.68c0,0.28,0.13,0.52,0.31,0.65l-0.1,3.07c-0.32,0.18-0.54,0.59-0.54,1.06
		c0,0.15,0.03,0.3,0.07,0.43c-1.12,0.57-1.92,2.14-1.92,4h0v12.84c-0.34,0.79-0.55,1.73-0.55,2.74h0v13.51
		c-0.56,1.08-0.91,2.43-0.91,3.9h0.01v18.78c-0.17,0.34-0.31,0.69-0.44,1.06c-3.36-5.19-11.93-9.09-14.67-12.3
		c0.05-0.17,0.09-0.35,0.09-0.55c0-0.52-0.2-0.97-0.49-1.17l-0.11-4.85c0.25-0.14,0.43-0.5,0.43-0.93c0-0.46-0.2-0.83-0.47-0.95
		l-0.1-4.26c0.2-0.05,0.35-0.31,0.35-0.64c0-0.36-0.19-0.66-0.42-0.66c-0.23,0-0.42,0.3-0.42,0.66c0,0.33,0.16,0.59,0.36,0.64
		l-0.1,4.26c-0.27,0.12-0.47,0.49-0.47,0.95c0,0.44,0.18,0.8,0.43,0.93l-0.12,4.85c-0.29,0.2-0.49,0.64-0.49,1.17
		c0,0.23,0.05,0.44,0.12,0.63c-2.06,2.33-7.12,5.04-11,8.33v-13.12h-1.64v-3.77h-0.05c-0.37-12.51-11.31-12.43-13.91-13.88
		c-1.26-0.71-2.06-1.94-2.56-3.04c0.2-0.18,0.32-0.44,0.32-0.72c0-0.4-0.24-0.75-0.59-0.9c0,0,0,0,0,0l-0.14-3.75
		c0.3-0.11,0.52-0.38,0.52-0.72c0-0.36-0.24-0.64-0.57-0.73l-0.13-3.61l-0.13,0.03l-0.13,3.58c-0.33,0.09-0.57,0.38-0.57,0.73
		c0,0.34,0.22,0.62,0.52,0.72l-0.14,3.75l0,0c-0.35,0.15-0.59,0.5-0.59,0.9c0,0.25,0.1,0.48,0.25,0.66c-0.49,1.11-1.3,2.38-2.58,3.1
		c-2.64,1.48-13.92,1.37-13.92,14.55h0.04v3.1h-1.68v13.58c-4-3.97-10.3-7.12-12.57-9.78c0.05-0.17,0.09-0.35,0.09-0.55
		c0-0.52-0.2-0.97-0.49-1.17l-0.11-4.85c0.25-0.14,0.43-0.5,0.43-0.93c0-0.46-0.2-0.83-0.47-0.95l-0.1-4.26
		c0.2-0.05,0.35-0.31,0.35-0.64c0-0.36-0.19-0.66-0.42-0.66c-0.23,0-0.42,0.3-0.42,0.66c0,0.33,0.16,0.59,0.36,0.64l-0.1,4.26
		c-0.27,0.12-0.47,0.49-0.47,0.95c0,0.44,0.18,0.8,0.43,0.93l-0.12,4.85c-0.29,0.2-0.49,0.64-0.49,1.17c0,0.23,0.05,0.44,0.12,0.63
		c-2.37,2.69-8.76,5.88-12.7,9.9v-16.61h0.01c0-1.48-0.35-2.82-0.91-3.91v-13.51h0.01c0-1.01-0.2-1.95-0.55-2.74V97.9h0
		c0-1.94-0.88-3.57-2.07-4.07c0.03-0.12,0.06-0.23,0.06-0.36c0-0.48-0.22-0.88-0.54-1.06l-0.1-3.07c0.18-0.12,0.31-0.36,0.31-0.65
		c0-0.31-0.15-0.57-0.36-0.68l-0.22-6.69L117.4,88c-0.21,0.11-0.36,0.37-0.36,0.68c0,0.28,0.13,0.52,0.31,0.65l-0.1,3.07
		c-0.32,0.18-0.54,0.59-0.54,1.06c0,0.15,0.03,0.3,0.07,0.43c-1.12,0.57-1.92,2.14-1.92,4h0v12.84c-0.34,0.79-0.55,1.73-0.55,2.74
		h0.01v13.51c-0.56,1.08-0.91,2.43-0.91,3.9h0.01v18.78c-0.53,1.09-0.88,2.39-0.98,3.8c-1.44-1.38-2.86-2.8-4.22-4.29
		c-33.98-37.19-31.39-94.89,5.8-128.87c10.71-9.79,23.14-16.54,36.2-20.3c-18.39,2.88-36.15,11-50.92,24.49
		c-27.26,24.91-37.22,61.66-29.23,95.2c-0.11,0.07-0.19,0.19-0.19,0.34c0,0.21,0.16,0.38,0.37,0.41c2.4,9.75,6.34,19.21,11.8,28.02
		c-0.01,7.69-0.01,14.8-0.01,30.85c-1.58,0.09-2.84,1.39-2.84,2.99c0,2.88,2.89,2.84,2.88,3.19c-0.04,1.15-0.04,1.11-0.04,1.12
		c-0.66,0.18-0.69,1.09-0.05,1.32c0,0.03,0-0.03-0.13,3.36c-0.03,0.41-5.76,1.51-4.27,6.59c-3.45,1.65-9.44,5.08-10.86,8.62
		c-3.18,0-2.85,3.75-0.31,3.75c0,16.13-0.01,20.19-0.01,21c0-0.17,0-0.34,0.01,0.17c0.1,4.74,11.1,11.52,15.07,12.89
		c-0.12,0.39,0.07,0.76,0.38,0.94c-0.31,1.37-0.1,3.82,0.4,3.82c0.58,0,0.66-2.65,0.39-3.82c0.31-0.17,0.49-0.52,0.4-0.9
		c3.63-1.18,14.97-8.01,15.07-12.93c0-21.5-0.09-21.16,0.02-21.16c2.61,0,2.62-3.75,0-3.75c-1.09,0,0.13-2.03-7.36-6.53
		c-5.17-3.1-3.75-1.15-3.75-3.44c0-2.78-1.9-4.11-4.47-5.23c-0.23-4.93,0.34-3.02,0.34-4.01c0-0.8-0.48,0.12-0.56-1.97
		c3.74-0.17,3.83-5.69,0.1-5.99c0-15.64,0-22.79-0.01-30.25c3.07,4.88,6.62,9.55,10.64,13.95c11.67,12.76,25.93,21.73,41.25,26.84
		c-0.01,7.05-0.02,8.94-0.02,27.42c-1.58,0.09-2.84,1.39-2.84,2.99c0,2.88,2.89,2.84,2.88,3.19c-0.04,1.15-0.04,1.11-0.04,1.12
		c-0.66,0.18-0.69,1.09-0.05,1.32c0,0.03,0-0.03-0.13,3.36c-0.03,0.41-5.76,1.51-4.27,6.59c-3.45,1.65-9.44,5.08-10.86,8.62
		c-3.18,0-2.85,3.75-0.31,3.75c0,16.13-0.01,20.19-0.01,21c0-0.17,0-0.34,0.01,0.17c0.1,4.74,11.1,11.52,15.07,12.89
		c-0.12,0.39,0.07,0.76,0.38,0.94c-0.31,1.37-0.1,3.82,0.4,3.82c0.58,0,0.66-2.65,0.39-3.82c0.31-0.17,0.49-0.52,0.4-0.9
		c3.63-1.18,14.97-8.01,15.07-12.93c0-21.5-0.09-21.16,0.02-21.16c2.61,0,2.62-3.75,0-3.75c-1.09,0,0.13-2.03-7.36-6.53
		c-5.17-3.1-3.75-1.15-3.75-3.44c0-2.78-1.9-4.11-4.47-5.23c-0.23-4.93,0.34-3.02,0.34-4.01c0-0.8-0.48,0.12-0.56-1.97
		c3.74-0.17,3.83-5.69,0.1-5.99c0-18.39-0.01-20.37-0.02-27.31c7.35,2.42,14.95,3.96,22.61,4.6c0.08,0.14,0.23,0.24,0.4,0.24
		c0.15,0,0.28-0.07,0.36-0.18c6.68,0.5,13.41,0.33,20.07-0.53c0.06,0.04,0.13,0.07,0.21,0.07c0.12,0,0.23-0.05,0.3-0.14
		c19.11-2.57,37.66-10.79,52.98-24.79c14.76-13.49,24.45-30.46,28.96-48.51C255.63,133.42,247.8,145.19,237.08,154.98z
		 M74.05,200.56c4.33-2.62,3.66-2.05,4.23-1.25c-10.12,4.83-8.33,7.18-10.79,7.18C68.33,204.71,70.58,202.66,74.05,200.56z
		 M88.45,202.3c-0.06,0.07-0.11,0.14-0.15,0.21c0.35-0.33,0.3-0.29,0.69-0.06c-0.06,0.08-0.13,0.17-0.24,0.3
		c0.75,0.82,0.2,0.77-0.57,0.12c0.02,0.5,0.92,0.42-0.65,0.22c-0.48,1.15-0.34,1.07-0.5,0.19c-1.61,0.57,0.39,0.12-0.65-1.26
		c0.11-0.01,0.18,0.02,0.65,0.2c0.17-0.71,0.1-0.82,0.21-0.55C87.73,202.88,87.35,202.18,88.45,202.3z M87.71,201.86
		c0.05,0.11,1.5,0.33,0.09,0.33C87.33,202.19,87.35,201.01,87.71,201.86z M93.03,205.76c-1.31,0-0.92,0.13-0.77-0.44
		c0.19-0.71-0.11-0.8,0.49-0.31C92.8,205.73,92.62,205.52,93.03,205.76z M94.75,232.56c-1.53,2.4-1.44,1.46-1.72,0.98
		c-0.16-0.27-1.34,0.06-1.72,0.25c-1.98,1.02-0.83,2.97-1.52,3.47c-0.41-1.02-0.37-1.72-0.37-2.4c-5.37-3.42,0.06-3.73,0-5.01
		c-0.16-3.56,1.57-3.77,4.13-2.14c0.53-0.33,0.96-0.59,1.71-0.78c0,0.89,0.13,0.14-0.93,1.12c-1.14,1.05-1.13,3.89,0.93,3.29
		C95.26,231.91,94.61,232.31,94.75,232.56z M90.35,236.85c-0.04-0.23-0.06-0.46-0.05-0.69C90.4,233.02,96.16,232.49,90.35,236.85z
		 M88.3,237.81c-0.11-0.04-1.5-0.97,0.45-0.59C89.48,234.99,90.13,238.4,88.3,237.81z M88.53,238.14c-0.06-0.08-0.12-0.15-0.18-0.23
		C88.87,238,88.72,238.01,88.53,238.14z M84.47,240.26c0.1,0.06,0.17,0.11,0.21,0.13c-0.21-0.11-0.88-0.4-1.76-0.41
		c-0.45,0-0.64,1.57-0.75,1.53c-0.12-1.58-0.88-1.96-2.33-1.11c-0.09-0.05,1.43-1.07,1.16-1.53c-1.13-1.95-3.11-1.92-4.56-0.48
		c-0.8-0.52,1.66-1.59,1.64-2.01c-0.14-3.12,1.32-3.96,3.94-2.26c0.59,0.38,4.63-3.36,4.31,2.28c-0.02,0.43,2.54,1.51,1.71,2.05
		C85.66,235.98,81.78,238.5,84.47,240.26z M87.82,238.61c-0.21,0.14-2.66,1.68-2.81,1.62C82.12,239.01,85.39,236.21,87.82,238.61z
		 M84.38,240.61c-2.08,1.08-1.84,0.87-1.8,0.67C82.74,240.33,83.04,239.89,84.38,240.61z M81.88,241.39
		c-0.13-0.05-1.81-0.8-1.68-0.85C81.36,240,81.72,240.22,81.88,241.39z M79.47,240.2c-2.48-1.35-3.84-1.98-1.09-2.54
		C79.71,237.39,82.02,239.16,79.47,240.2z M74.97,237.19c-0.05-0.25,0.16-1.87,0.71,0.02C78.15,236.82,75.27,238.79,74.97,237.19z
		 M74.67,237.18c-0.65-0.47-0.05-0.1-0.32-1.67c-0.29-1.7-2.68-2.94-3.26-1.34c-0.63-0.65-1.8-2.07-1.84-2.8
		c1.92,0.49,1.96-2.2,0.92-3.24c-1.02-1.02-0.92-0.23-0.92-1.18c0.7,0.19,1.13,0.45,1.62,0.76c2.51-1.58,4.31-1.48,4.13,2.17
		c-0.03,0.64,5.21,2.3,0.19,4.86C74.76,234.96,75.31,235.52,74.67,237.18z M74.1,236.76c-3.26-2.44-2.81-2.41-2.55-2.91
		C71.76,233.45,74.56,233.87,74.1,236.76z M71.55,205.18c0.54-0.46,0.39-0.4,0.45-0.05c0.14,0.81,0.64,0.63-0.73,0.63
		C71.64,205.55,71.54,205.7,71.55,205.18z M77.13,201.53c0.29,0.77-0.2,0.81,0.8,0.46c-0.31,0.9-0.96,0.23,0.01,1.51
		c-1.07-0.19-0.43-0.55-0.81,0.47c-0.44-1.05-0.19-0.92-1.3-0.74c0.07-0.12,0.17-0.19,0.52-0.47c-0.64-0.54-0.54-0.47-0.33-0.44
		C76.92,202.42,76.71,202.59,77.13,201.53z M76.52,201.99c0.79-0.94,0.23,0.2,0.01,0.2C75.6,202.19,76.19,201.98,76.52,201.99z
		 M79.34,200.42c0.54-0.25,0.34-0.28,0.44,0.27c0.09,0.49,0.27,0.83,0.48,1.05c-1.24-0.44-2.47,0.93-2.37,1.06
		c1.54,2.18,4.43,0.51,2.94-0.74c0.64,0.11,1.32-0.44,1.35-1.16c0,0.11,0.01,0.24,0.04,0.37c0.31,1.58,2.36,0.61,2.36-1.08
		c0.44,0.19,0.39,0.15,0.4,0.27c0.13,1.45,0.7,0.39,1.7,2.29c-0.88,1.65-1.64,1.07-1.69,2.17c-0.05,1.02-0.21,0.85-0.45,0.85
		c0.36-2.04-2.08-3.34-2.34-1.4c-0.08,0.58,0.1,1.03,0.49,1.4c-1.79,0-0.77,0.21-0.58-0.82c0.46-2.43-1.97-1.5-2.29-0.28
		c-0.29,1.13,0.27,1.1-0.33,1.1c-0.19-0.6-0.16-1-0.16-1.39c-1.72-0.83-2.4-2.09,0-3.25C79.32,200.86,79.31,200.72,79.34,200.42z
		 M82.4,199.34c1.12,0.35-0.22,0.2-0.22,1.48c-0.01-0.41-0.22-0.86-0.77-1.27c0.57-0.21,0.52-0.21,0.63-0.14
		C82.17,199.51,82.23,199.44,82.4,199.34z M82.93,199.76c0.24-0.19,0.1-0.24,1.45,0.35c0.03,1.15-0.68,1.8-1.73,1.76
		C82.22,201.11,82.24,200.32,82.93,199.76z M81.91,201.18c-0.25,1.39-1.71,0.39-1.91-0.37C79.63,199.41,82.27,199.19,81.91,201.18z
		 M80.9,203.09c-0.87,1.01-2.19,0.56-2.81-0.35C79.45,200.9,81.59,202.29,80.9,203.09z M95.26,212.82
		c-0.23-0.25-0.46-0.52-0.55-0.91C95.4,212.1,95.26,211.9,95.26,212.82z M95.12,213.67c-0.53,0.07-0.54,0.02,0.14-0.8
		C95.26,213.72,95.31,213.64,95.12,213.67z M94.94,212.99c-0.43,0.5-0.49,1.72-2,1.04c-0.63-0.28-0.15-0.37-0.88-1.17
		c0.72-1.04,0.41-0.98,0.65-1.09c0.82-0.41,0.79-0.48,0.95-0.39c0.67,0.37,0.85,0.42,0.87,0.51
		C94.65,212.6,95.16,212.72,94.94,212.99z M91.84,212.85c1.12,1.27,0.25,1.16-1,0.05C90.64,212.72,93.51,210.75,91.84,212.85z
		 M90.67,212.84c0.06,0.05,0.76,0.61,0.73,0.68c-1.67-0.21-1.22-0.42-1.86,1.1c-0.43-1.1,0.3-1.17-1.14-0.66
		c-0.04-0.06,0.33-0.49,0.38-0.55c0.54-0.71,0.55-0.38-0.42-1.65c0.05,0.01,0.1,0.02,0.15,0.03c-0.71-0.28-1.29-0.98,0.21-0.72
		c0.23-0.47,0.51-1.17,0.77-0.17c0.02,0.09,0.03,0.16,0.04,0.23c0.01-0.01,0.01-0.03,0.01-0.04c0.64,1.52,0.19,1.31,1.85,1.1
		C91.18,212.44,90.93,212.63,90.67,212.84z M89.16,215.71c0.13,0.1,0.06,0.12,0.05,1.06c-0.01,0.46-1.94,0.98-2.16,0.4
		c-0.25-0.63-0.53-0.6-0.51-0.85c0.05-0.94-0.01-0.94,0.12-1.02c0.67-0.41,1.12-0.57,1.42-0.58c-0.82,0.03-0.18-0.55,1.19-0.99
		c0.44,1.62,0,2.61-0.51,0.89c-0.27,0.06-0.48,0.08-0.64,0.09C88.77,214.7,88.78,215.4,89.16,215.71z M87.41,220.47
		c-1.56-0.28-0.63-0.81-1.18,0.68c-0.64-1.54-0.27-1.34-1.89-1.09c0.08-0.15,0.16-0.2,0.76-0.68c-0.2-0.17-0.34-0.29-0.45-0.38
		c0.27,0.38,0.15,0.91-1.28,1.31c0.08-0.39,0.31-0.66,0.57-0.92c-0.89-1.01-0.08-1.01,0.45-0.64c-0.04-0.07,0.07-0.03,0.23-0.01
		c1.31,0.17,1,0.41,1.61-1.13c0.42,1.12-0.28,1.18,1.16,0.67C86.93,219.61,85.96,218.57,87.41,220.47z M88.63,223.94
		c-0.36-0.05-0.68-0.11-1.03,0.02c-0.15,0.06-0.14-0.02-0.92-0.48c-0.16-0.1-0.08-0.12-0.13-1c-0.01-0.2,0.04-0.38,0.14-0.54
		c-0.05,0.05-0.1,0.11-0.18,0.17c-0.14-0.56-0.27-0.74-0.12-1.22c0.23-0.77-0.19-0.74,1.1-0.32c0.11,0.04,1.18,0.76,0.09,0.68
		c-0.97-0.08-0.42,0.08-0.82,0.61C87.54,220.88,90.25,221.16,88.63,223.94z M90.82,225.9c1.22-1.1,2.09-1.35,1.02,0.03
		c1.11,1.2,0.3,1.14-0.86,0.15c0.11,0.12,0.25,0.28,0.46,0.52c-1.6-0.2-1.31-0.34-1.64,0.46c-0.38,0.91-0.19,0.91-0.47-0.37
		c-0.59,0.23-0.34,0.14-0.94,0.33c0.45-1.32,1.45-0.27-0.03-2.21c1.56,0.32,0.66,0.77,1.18-0.67c0.64,1.54,0.27,1.34,1.89,1.09
		C91.02,225.96,90.62,225.67,90.82,225.9z M95.26,225.9c-0.24-0.25-0.47-0.52-0.54-0.9C95.4,225.17,95.26,224.98,95.26,225.9z
		 M94.75,226.84c-0.01-0.22,0.01-0.27,0.51-0.91C95.26,226.87,95.39,226.68,94.75,226.84z M94.93,226.08
		c-0.28,0.33-0.46,0.89-0.5,0.91c-0.85,0.43-0.82,0.49-0.97,0.4c-0.71-0.4-1.56-0.5-0.88-2.38c0.24-0.67,1.89-0.6,2.03,0.2
		C94.69,225.7,95.17,225.78,94.93,226.08z M87.02,234.23c-0.85,2.77-1.45-2.83,1.05,0.04C87.73,234.39,87.39,234.32,87.02,234.23z
		 M88.26,234.39c1.16,0.71,1.43,0.62,0.36,2.64c-0.9-0.2-2.05,0.44-2.09-1.53c0-0.02,0.42-0.54,0.57-0.99
		C87.11,234.48,87.9,234.55,88.26,234.39z M86.45,233.23c-0.3,1.19,0.01,1.52-0.75-0.27c-1.8,0.23-1.6,0.35-0.61-0.49
		c-0.89-0.85-1.3-0.75,0.59-0.51c0.72-1.29,0.44-1.96,0.76-0.27c0.06-0.02,0.92-0.35,0.96-0.3c-1.02,1.34-0.98,0.85,0.02,2.17
		C87.06,233.48,86.77,233.34,86.45,233.23z M77.4,234.23c-1.65,0.38-1.07-0.39,0.52-0.89C78.19,233.85,78.36,236.53,77.4,234.23z
		 M77.77,236.56c-0.65,0.39-0.79,0.52-0.88,0.49c-0.51-0.19-0.98-0.01-1.09-0.03c-0.13-0.34-0.24-0.65-0.54-0.89
		c-0.11-0.09-0.06-0.13-0.04-1.06c0-0.13-0.01-0.09,0.85-0.63c0.23-0.14,0.17,0.2,1.21-0.01C77.34,234.54,78.36,236.2,77.77,236.56z
		 M77.99,233.23c-1.34,0.48-1.13,0.57-0.16-0.76c-0.74-1.22-1.39-1.33,0.15-0.78c0.2-1.08,0.16-0.97,0.22-0.97
		c0.62,1.49,0.17,1.28,1.86,1.07c-0.08,0.16-0.22,0.26-0.73,0.67c0.06,0.05,0.74,0.6,0.72,0.67c-1.67-0.21-1.22-0.42-1.86,1.1
		C78.08,233.89,78.06,233.56,77.99,233.23z M69.72,226.85c-0.58-0.15-0.46,0.03-0.46-0.81C69.47,226.27,69.66,226.51,69.72,226.85z
		 M69.26,225.12c0.15-0.04,0.3-0.08,0.47-0.12C69.7,225.1,69.26,226.42,69.26,225.12z M69.41,225.96c-0.1-0.11,0.85-1.23,0.58-1.09
		c1.79-0.96,1.71,0.3,2.39,1.04c-0.21,0.26-0.45,0.52-0.51,0.91c-0.03,0.18-0.09,0.12-0.87,0.56
		C70.41,227.72,69.52,226.08,69.41,225.96z M72.58,225.95c-0.61-0.93-0.46-0.67-0.55-0.96C75.57,225.99,70.82,227.93,72.58,225.95z
		 M73.37,226.25c0.62-0.55,0.52-0.08-0.39-1.01c1.66,0.21,1.25,0.51,1.92-1.09c0.42,1.1-0.3,1.17,1.14,0.66
		c0.03,0.05-0.76,1.06-0.79,1.11c1.06,1.4,1.18,1.24-0.13,0.77c-0.28,1.22,0,1.51-0.73-0.24C73.12,226.46,72.6,226.93,73.37,226.25z
		 M69.73,213.78c-0.59-0.15-0.47,0.02-0.47-0.81c0.09,0.1,0.17,0.2,0.24,0.31c-0.23-0.52,0.31-0.88,0.39-1.32
		c0.03-0.18,0.1-0.13,0.87-0.56c0.61-0.35,1.48,1.3,1.59,1.42c0.1,0.11-0.13-0.02-0.48,0.94c-0.07,0.18,0.05,0.08-0.99,0.61
		c-0.72-0.36-1.1-0.66-1.29-0.92C69.65,213.54,69.7,213.65,69.73,213.78z M69.26,212.04c0.15-0.04,0.29-0.08,0.46-0.12
		C69.7,212.03,69.26,213.34,69.26,212.04z M72.61,212.84c-1.16-1.28-0.22-1.14,1.04,0.01C72.09,214.17,71.54,214.03,72.61,212.84z
		 M73.77,212.85c-0.95-0.85-1.23-0.74,0.6-0.51c0.7-1.67,0.49-1.55,0.74-0.27c1.23-0.41,1.27-0.71,0.15,0.76
		c0.73,1.2,1.4,1.37-0.15,0.79c-0.26,1.28-0.02,1.46-0.74-0.26C72.58,213.58,72.75,213.71,73.77,212.85z M77.41,204.7
		c0.19-0.16,0.26-0.38,0.35-0.6c0.24,0.04,0.46,0.08,0.71,0c0.47-0.15,0.95,0.94,0.7,1.15c-0.17,0.14-0.27,0.32-0.34,0.52
		c-1.27,0-1.46-0.16-1.47-0.33C77.35,204.81,77.3,204.79,77.41,204.7z M78.41,203.98c-0.2,0.1-0.48,0.03-0.73-0.01
		C77.11,205.71,76.7,202.19,78.41,203.98z M81.54,211.47c-0.15,0.28-1.77-0.03-2.29-1.04C81.97,210.43,82.26,210.1,81.54,211.47z
		 M81.68,203.67c0.43,0.82,0.28,1.48-0.12,1.89c-0.26,0.26-0.09,0.2-1.6,0.2C79.6,203.86,81.53,203.39,81.68,203.67z M79.22,205.35
		c0.04,0.16,0.11,0.38,0.11,0.41C79.15,205.76,78.64,205.87,79.22,205.35z M75.71,210.63c-0.11-0.29-0.44-0.2,2.01-0.2
		c-0.26,0.15-0.51,0.31-0.79,0.48C76.14,210.57,75.91,211.13,75.71,210.63z M75.07,210.43c0.37,0,0.38-0.13,0.61,0.63
		C78.32,210.64,74.3,213.35,75.07,210.43z M74.62,205.09c0.13-0.73,2.06-2.43,1.99-0.39c-0.01,0.37-0.09,0.78-0.31,1.07
		C74.58,205.76,74.46,205.96,74.62,205.09z M75,214.52c0.26-0.98-0.1-0.88,1.14-0.48c0.11,0.03,1.47,0.99-0.45,0.59
		C75.1,216.43,74.92,214.8,75,214.52z M75.25,215.73c0.33-0.27,0.42-0.6,0.55-0.91c0.39,0.05,0.67,0.12,1.04-0.01
		c0.14-0.05,0.08-0.05,1.02,0.56c0,1.58,0.2,0.56-0.48,1.81c-0.15,0.27,0.04,0.25-0.37,0.19c-0.69-0.11-0.74,0.18-0.97,0.02
		c-0.75-0.5-0.81-0.44-0.81-0.63C75.23,216.15,75.16,215.81,75.25,215.73z M77.41,217.61c0.55-1.66,0.88-0.79,0.54,0.83
		C77.89,218.76,74.9,217.13,77.41,217.61z M77.53,218.44c0.84,0.27,0.23,0.37,0.67-0.82c0.66,1.57,0.26,1.3,1.86,1.09
		c0.04,0.08,0.11-0.02-0.71,0.67c1.84,1.57-0.29-0.29-0.88,1.13c-0.38,0.9-0.2,0.93-0.47-0.36c-0.06,0.02-0.91,0.35-0.95,0.29
		c0.97-1.28,1.02-0.79,0-2.13C77.23,218.31,77.38,218.39,77.53,218.44z M77.86,228.18c-3.1-1.65-2.46-3.2,0.23-4.63
		c0-5.34,2.69-2.9,4.14-2.39c5.17-3.21,3.49,2.05,4.35,2.51c3.19,1.69,2.39,3.21-0.24,4.64c0,3.18-0.88,4.4-3.88,2.53
		c-0.42-0.26-3.17,1.47-3.65,0.62C77.58,229.3,78.51,228.53,77.86,228.18z M82.22,220.89c-0.79-0.4-0.96-0.45-0.97-0.55
		c-0.17-1.01-0.71-0.47-0.23-1.33c0.23-0.43,0.18-0.6,0.35-0.69c0.83-0.41,0.8-0.49,0.97-0.39c0.6,0.34,0.83,0.4,0.86,0.52
		c0.07,0.36,0.27,0.65,0.52,0.93c-0.22,0.28-0.44,0.52-0.51,0.92C83.18,220.44,83.2,220.38,82.22,220.89z M80.5,219.39
		c1.17,1.24,0.23,1.12-1.04-0.01C80.64,218.31,81.57,218,80.5,219.39z M78.02,220.69c0.22,1.08-0.07,2.13-0.6,0.48
		C75.09,221.48,77.83,219.77,78.02,220.69z M77.23,221.36c0.1-0.02,0.07,0.01,0.16,0.23c1.78,4.47-4.49,1.76-1.31-0.24
		C76.09,221.36,76.7,221.46,77.23,221.36z M75.68,224.14c1.78-0.36,0.72,0.53,0.19,0.67c-0.89,0.23-0.65,0.54-0.92-0.77
		C74.93,223.93,75.1,222.22,75.68,224.14z M75.18,226.81c1.62,0.52,2.21,1.25,0.52,0.9C75.04,229.57,74.73,227.8,75.18,226.81z
		 M75.81,227.91c1.72,0.17,0.55-0.44,2.05,0.53c0.07,1.36,0.21,0.73-0.56,2.04c-0.36-0.05-0.67-0.11-1.04,0.01
		c-0.13,0.04-0.13,0.01-1-0.55C75.2,229.12,74.98,229,75.81,227.91z M77.42,230.68c0.64-2.03,0.75-0.07,0.63,0.35
		c-0.19,0.67,0.19,0.65-1.1,0.24c-0.06-0.02-0.56-0.54-0.6-0.58C76.53,230.57,76.55,230.57,77.42,230.68z M79.56,232.37
		c1.12-1,2.16-1.16,0.94,0.09C82.28,234.31,79.18,232.71,79.56,232.37z M80.73,232.47c1.02-1.41-0.11-0.7,1.49-1.51
		c0.86,0.44,0.96,0.45,0.97,0.55c0.09,0.53,0.49,0.86,0.51,0.96c-0.21,0.26-0.43,0.51-0.5,0.89c-0.03,0.17-0.1,0.12-0.87,0.56
		C81.73,234.26,80.87,232.63,80.73,232.47z M83.94,232.46c-1.17-1.25-0.23-1.15,1.04,0.01C83.71,233.54,82.85,233.72,83.94,232.46z
		 M86.5,231.59c-0.25-1.18-0.15-2.43,0.33-1.42c0.48,1.03,0.21,0.13,1.28,0.5C87.37,231.41,87.76,231.19,86.5,231.59z M87.14,230.49
		c-0.13-0.33-0.23-0.63-0.53-0.9c-0.11-0.1-0.08-0.13-0.03-1.15c0.79-0.51,0.87-0.6,0.96-0.57c0.85,0.32,0.92-0.33,1.24,0.39
		c0.05,0.11,1.15,1.25,0.03,1.93C87.86,230.76,88.38,230.3,87.14,230.49z M88.75,227.71c-2.61,0.48,0.47-1.15,0.55-0.82
		C89.63,228.49,89.27,229.34,88.75,227.71z M89.37,224.53c-0.38,1.14-2.98-0.93-0.62-0.39C89.36,222.24,89.56,223.96,89.37,224.53z
		 M86.51,218.51c-0.29-0.99-0.3-3,0.52-0.9C88.7,217.29,88.13,217.99,86.51,218.51z M87.78,205.31c-0.78-2.78,2.28-1.29,1.87,0.45
		C87.97,205.76,87.95,205.91,87.78,205.31z M88.82,210.43c-0.05,0.09-0.09,0.18-0.12,0.28C88.56,211.08,84.6,210.43,88.82,210.43z
		 M86.59,215.09c-0.65,0.35,0.63,5.67-4.37,2.52c-2.51,1.53-4.31,1.52-4.13-2.16c0.02-0.34-2.85-1.96-2.37-2.79
		c0.66-1.12,1.76-2.23,3.22-2.23c0.54,1.2,2.94,2.53,3.23,0c0.33,0-0.1,2.34,2.31,1.07c1.47-0.78,0.24-1.07,1.89-1.07
		C86.53,210.74,91.26,212.61,86.59,215.09z M85.19,210.43c-0.43,0.82-2.37,2.03-2.64,0H85.19z M82.66,203.62
		c0.99,0.02,1.5,0.5,1.65,1.08c0.34,1.33-0.04,1.07-1.33,1.07C82.23,205.17,82.22,204.33,82.66,203.62z M84.98,205.76
		c0.04-0.13,0.07-0.26,0.11-0.41C85.64,205.85,85.16,205.76,84.98,205.76z M86.53,205.76c-1.19,0-1.46,0.1-1.39-1.29
		c0.81-0.53,1.4-0.39,1.46-0.23C86.73,204.58,87.46,205.17,86.53,205.76z M86.63,203.97c-1.75,0.32,0.52-1.34,0.5,0.09
		C87.12,204.83,86.86,204.7,86.63,203.97z M77.32,202.15c-0.25-0.84-0.18-0.64,0.26-0.87c0.03,0.08,0.06,0.16,0.1,0.25
		C78.83,201.31,78.43,201.79,77.32,202.15z M76.03,202.96c-0.3,0.33-0.54,0.33-0.86,0.42c0.14-0.65,0.54-0.4,0.19-0.87
		c0.13-0.08,0.26-0.15,0.39-0.23c0,0,0.01,0.01,0.02,0.01C76.45,202.89,76.29,202.67,76.03,202.96z M75.41,202.74
		c-0.15,0.19-0.3,0.35-0.35,0.63c-0.08,0.42-1.91,0.54-0.71-0.23C74.44,203.23,75.09,202.4,75.41,202.74z M74.39,203.96
		c3.57-2.21,2.4,1.41,2.98,1.72c0.21,0.11,0.27,0.08-0.84,0.08c0.61-0.97,0.38-3.42-1.62-1.56c-0.33,0.31-0.49,0.91-0.56,1.27
		c0.05-0.76-0.35-1.28-1.03-1.65C73.94,203.39,73.89,203.79,74.39,203.96z M74.11,205.76c-1.71,0-1.7,0.14-1.86-0.42
		c-0.21-0.71-0.18-0.63,0.9-1.4C73.91,204.33,74.31,204.92,74.11,205.76z M73.9,211.35c-0.12,0.31-1.46-0.24-2.13-0.92
		C74.32,210.43,74.37,210.14,73.9,211.35z M71.39,205.5c-0.46,0.3-0.37,0.26-0.49,0.26C71.48,205.21,71.4,205.27,71.39,205.5z
		 M72.99,211.53c2.06,0.73,0.61-1.1,1.88-1.1c-0.33,1.31-0.8,2.68-3.78,0.75c-0.55-0.36-1.82,1.43-1.82,0.13
		c0.34-0.18,0.66-0.41,0.95-0.7C71.04,209.79,71.81,211.11,72.99,211.53z M69.26,211c0-0.72-0.19-0.57,0.73-0.57
		C69.77,210.66,69.53,210.85,69.26,211z M70.72,214.53c0.7,0.65,4.29-3.83,4.29,2.48c2.73,1.45,3.3,2.98,0.24,4.62
		c-0.73,0.39,0.71,5.63-4.35,2.53c-0.17-0.11-1.65,1.35-1.65,0.23c2.38-1.24,1.95-4.42,0-3.91c0-0.71-0.08-0.11,0.47-1.08
		c-0.35-0.74-0.47-0.42-0.47-1.1c1.94,0.5,2.03-2.3,0.76-3.4C67.93,213.09,70.49,214.31,70.72,214.53z M70.07,215.34
		c0.74,0.8,0.84,3.12-0.81,2.66C69.26,214.47,68.99,214.17,70.07,215.34z M69.41,219.39c-0.05,0.08-0.1,0.15-0.15,0.22
		C69.26,219.08,69.21,219.05,69.41,219.39z M70.15,220.66c0.76,1.33,0.55,2.59-0.88,3.42C69.26,220.44,68.97,220.64,70.15,220.66z
		 M69.86,228.2c1.06,0.94,1.04,3.33-0.6,2.87C69.26,227.37,69.06,227.5,69.86,228.2z M94.32,231.19c-0.77-1.03-0.65-2.59,0.94-3.47
		C95.26,231.41,95.57,231.18,94.32,231.19z M94.56,223.63c-1-0.9-1.09-3.38,0.7-2.83C95.26,224.52,95.49,224.46,94.56,223.63z
		 M94.26,220.37c-0.37,0-1.73,2.73,1,4.07c0,1.29-1.34-0.53-1.92-0.15c-3.09,1.95-3.91,0.48-3.91-2.52c-2.5-1.21-3.51-3.05,0-4.74
		c0-3.04,0.86-4.51,3.96-2.49c0.36,0.24,0.4-0.29,1.88-0.68c0,0.87-3,1.79-1.13,4.54c1.3,0.07,1.13-0.43,1.13,0.2
		C93.79,220.2,96.81,220.36,94.26,220.37z M95.03,219.38c0.07-0.12,0.15-0.23,0.23-0.34C95.26,219.83,95.33,219.9,95.03,219.38z
		 M94.29,218.1c-0.78-1.38-0.51-2.64,0.97-3.45C95.26,218.26,95.57,218.15,94.29,218.1z M95.26,211.04
		c-0.35-0.19-0.61-0.4-0.81-0.61C95.47,210.43,95.26,210.27,95.26,211.04z M95.26,211.36c0,1.25-1.36-0.53-1.89-0.18
		c-4.22,2.73-4.27-2.47-3.03,0.39c0.21,0.49,1.73-0.25,2.28-0.7C93.97,209.75,94.09,210.79,95.26,211.36z M90.31,210.43h2.35
		C92.07,211.03,90.49,212.22,90.31,210.43z M92.9,205.43c0-0.1-0.01-0.2-0.01-0.29C94.29,206.31,92.9,205.62,92.9,205.43z
		 M90.19,205.76c-0.23-0.93,0.42-2.39,1.96-1.21C92.22,206.12,91.53,205.76,90.19,205.76z M89.9,205.39
		c0.01-1.53-2.06-2.04-2.15-1.84c-0.38,0.81-0.28,1.7,0.03,2.21c-1.11,0-1.14,0.06-0.68-0.16c0-2.12,0.58-3.04,2.66-1.75
		c0.46,0.29,0.55-0.62,1.33-0.08C90.27,204.18,89.98,204.97,89.9,205.39z M89.93,203.19c0.13-0.14,0.02-0.17,0.65,0.24
		C89.51,204.86,87.97,201.12,89.93,203.19z M86.98,202.14c-1.12-0.36-1.5-0.83-0.35-0.61C86.79,201.04,87.43,201.29,86.98,202.14z
		 M85.13,200.97c-0.05-0.92,0-0.38,0.72-0.19C87.84,201.73,85.16,201.4,85.13,200.97z M82.2,197.78c-3.08,0.37-2.94,2.22-3.75,0.45
		c3.8-1.75,3.68-1.75,7.5-0.01C85.19,199.9,85.04,198.12,82.2,197.78z M79.19,200.49c-0.02,0.45,0.1,0.9-1.03,0.87
		C77.03,201.32,78.17,200.96,79.19,200.49z M97.42,231.39c-0.09,4.38-10.63,11.01-15.39,12.35C79.09,242.98,67.2,236,67.1,231.4
		c0-23.52-0.4-21.16,0.91-21.16c0,23.24-1.98,22.43,6.43,28.31c3.73,2.61,7.13,4.18,7.88,4.33c0.75-0.15,4.12-1.71,7.82-4.32
		c8.19-5.78,6.37-4.54,6.37-28.32C97.79,210.24,97.42,207.16,97.42,231.39z M90.41,200.56c3.49,2.09,5.77,4.15,6.62,5.93
		c-2.45,0-0.71-2.37-10.9-7.19C86.7,198.5,86.02,197.92,90.41,200.56z M83,192.47c1.89,0.37,3.33,2.05,3.33,4.05
		c0,2.42-1.31-0.35-4.13-0.35c-2.81,0-4.13,2.8-4.13,0.35c0-2,1.43-3.67,3.33-4.05C81.72,193.15,82.68,193.15,83,192.47z
		 M84.48,182.3c0,3.02-4.56,3.01-4.56,0C79.91,179.28,84.48,179.29,84.48,182.3z M126.3,238.54c4.33-2.62,3.66-2.05,4.23-1.25
		c-10.12,4.83-8.33,7.18-10.79,7.18C120.58,242.69,122.84,240.63,126.3,238.54z M140.71,240.28c-0.06,0.07-0.11,0.14-0.15,0.21
		c0.35-0.33,0.3-0.29,0.69-0.06c-0.05,0.08-0.13,0.17-0.24,0.3c0.75,0.82,0.2,0.77-0.57,0.12c0.02,0.5,0.92,0.42-0.65,0.22
		c-0.48,1.15-0.34,1.07-0.5,0.19c-1.61,0.57,0.39,0.12-0.65-1.26c0.11-0.01,0.18,0.02,0.65,0.2c0.17-0.71,0.1-0.82,0.2-0.55
		C139.99,240.86,139.6,240.16,140.71,240.28z M139.97,239.84c0.05,0.11,1.5,0.33,0.09,0.33
		C139.59,240.16,139.61,238.99,139.97,239.84z M145.29,243.74c-1.31,0-0.92,0.13-0.77-0.44c0.19-0.71-0.11-0.8,0.49-0.31
		C145.05,243.71,144.88,243.5,145.29,243.74z M147.01,270.53c-1.54,2.39-1.44,1.46-1.72,0.98c-0.16-0.27-1.34,0.06-1.72,0.25
		c-1.98,1.02-0.83,2.97-1.52,3.47c-0.41-1.02-0.37-1.72-0.37-2.4c-5.37-3.42,0.06-3.73,0-5.01c-0.16-3.56,1.57-3.77,4.13-2.14
		c0.53-0.33,0.96-0.59,1.71-0.78c0,0.89,0.13,0.14-0.93,1.12c-1.14,1.05-1.13,3.89,0.93,3.29
		C147.51,269.89,146.86,270.28,147.01,270.53z M142.61,274.83c-0.04-0.23-0.06-0.46-0.05-0.69
		C142.66,271,148.42,270.47,142.61,274.83z M140.56,275.79c-0.11-0.04-1.5-0.97,0.44-0.59
		C141.74,272.97,142.38,276.38,140.56,275.79z M140.79,276.11c-0.06-0.08-0.12-0.15-0.18-0.23
		C141.13,275.98,140.97,275.99,140.79,276.11z M136.73,278.24c0.1,0.06,0.17,0.11,0.21,0.13c-0.21-0.11-0.88-0.4-1.76-0.41
		c-0.45,0-0.64,1.57-0.75,1.53c-0.12-1.58-0.88-1.96-2.33-1.11c-0.09-0.05,1.43-1.07,1.16-1.53c-1.13-1.95-3.11-1.92-4.56-0.48
		c-0.8-0.52,1.66-1.59,1.64-2.01c-0.14-3.12,1.32-3.96,3.94-2.26c0.59,0.38,4.63-3.36,4.31,2.28c-0.02,0.42,2.54,1.51,1.71,2.05
		C137.92,273.96,134.03,276.47,136.73,278.24z M140.07,276.59c-0.21,0.14-2.66,1.68-2.81,1.62
		C134.38,276.99,137.65,274.19,140.07,276.59z M136.63,278.59c-2.08,1.08-1.84,0.87-1.8,0.67C135,278.31,135.3,277.87,136.63,278.59
		z M134.14,279.37c-0.13-0.05-1.81-0.8-1.68-0.85C133.61,277.98,133.97,278.19,134.14,279.37z M131.72,278.18
		c-2.48-1.35-3.84-1.98-1.09-2.54C131.97,275.37,134.28,277.14,131.72,278.18z M127.23,275.17c-0.05-0.25,0.16-1.87,0.71,0.02
		C130.41,274.8,127.53,276.77,127.23,275.17z M126.93,275.16c-0.65-0.47-0.05-0.1-0.32-1.67c-0.29-1.7-2.68-2.94-3.26-1.34
		c-0.63-0.65-1.8-2.07-1.84-2.8c1.92,0.49,1.96-2.2,0.92-3.24c-1.02-1.02-0.92-0.23-0.92-1.18c0.7,0.19,1.13,0.45,1.62,0.76
		c2.51-1.58,4.31-1.48,4.13,2.17c-0.03,0.64,5.21,2.3,0.19,4.86C127.01,272.93,127.56,273.5,126.93,275.16z M126.36,274.74
		c-3.26-2.44-2.81-2.41-2.55-2.91C124.02,271.43,126.82,271.85,126.36,274.74z M123.8,243.16c0.54-0.46,0.39-0.4,0.45-0.05
		c0.14,0.81,0.64,0.63-0.73,0.63C123.89,243.52,123.79,243.68,123.8,243.16z M129.39,239.51c0.29,0.77-0.2,0.81,0.8,0.46
		c-0.31,0.9-0.96,0.23,0.01,1.51c-1.07-0.19-0.43-0.55-0.81,0.47c-0.44-1.05-0.19-0.92-1.3-0.74c0.07-0.12,0.17-0.19,0.52-0.47
		c-0.64-0.54-0.54-0.47-0.33-0.44C129.18,240.4,128.97,240.57,129.39,239.51z M128.78,239.97c0.79-0.94,0.23,0.2,0,0.2
		C127.86,240.17,128.44,239.95,128.78,239.97z M131.59,238.4c0.54-0.25,0.34-0.28,0.44,0.27c0.09,0.49,0.27,0.83,0.48,1.05
		c-1.24-0.44-2.47,0.93-2.37,1.06c1.54,2.18,4.43,0.51,2.94-0.74c0.64,0.11,1.32-0.44,1.35-1.16c0,0.12,0.01,0.24,0.04,0.38
		c0.31,1.58,2.36,0.61,2.36-1.08c0.44,0.19,0.39,0.15,0.4,0.27c0.13,1.45,0.7,0.39,1.7,2.29c-0.88,1.65-1.64,1.07-1.69,2.17
		c-0.05,1.02-0.21,0.85-0.45,0.85c0.36-2.04-2.08-3.34-2.34-1.4c-0.08,0.58,0.1,1.03,0.49,1.4c-1.79,0-0.77,0.21-0.58-0.82
		c0.46-2.43-1.97-1.5-2.29-0.28c-0.29,1.13,0.27,1.1-0.33,1.1c-0.19-0.6-0.16-1-0.16-1.39c-1.72-0.83-2.4-2.09,0-3.25
		C131.58,238.84,131.56,238.7,131.59,238.4z M134.65,237.32c1.12,0.35-0.22,0.2-0.22,1.48c-0.01-0.41-0.22-0.86-0.77-1.27
		c0.57-0.21,0.52-0.21,0.63-0.14C134.43,237.48,134.49,237.42,134.65,237.32z M135.19,237.74c0.24-0.19,0.1-0.24,1.45,0.35
		c0.03,1.15-0.68,1.8-1.73,1.76C134.48,239.08,134.5,238.3,135.19,237.74z M134.17,239.16c-0.25,1.39-1.71,0.39-1.91-0.37
		C131.89,237.39,134.52,237.17,134.17,239.16z M133.15,241.07c-0.87,1.01-2.19,0.56-2.81-0.35
		C131.7,238.88,133.85,240.27,133.15,241.07z M147.51,250.8c-0.23-0.25-0.46-0.52-0.55-0.91
		C147.66,250.08,147.51,249.88,147.51,250.8z M147.37,251.64c-0.53,0.07-0.54,0.02,0.14-0.8
		C147.51,251.69,147.56,251.62,147.37,251.64z M147.19,250.96c-0.43,0.5-0.49,1.72-2,1.04c-0.64-0.28-0.16-0.37-0.88-1.17
		c0.72-1.04,0.41-0.98,0.65-1.09c0.82-0.41,0.79-0.48,0.95-0.39c0.67,0.37,0.85,0.42,0.87,0.51
		C146.91,250.57,147.42,250.7,147.19,250.96z M144.09,250.83c1.12,1.27,0.25,1.16-1,0.05C142.9,250.7,145.76,248.73,144.09,250.83z
		 M142.92,250.82c0.06,0.05,0.76,0.61,0.73,0.68c-1.67-0.21-1.22-0.42-1.86,1.1c-0.43-1.1,0.3-1.17-1.14-0.66
		c-0.04-0.06,0.33-0.49,0.38-0.55c0.54-0.71,0.55-0.38-0.42-1.65c0.05,0.01,0.1,0.02,0.15,0.03c-0.71-0.28-1.29-0.98,0.21-0.72
		c0.23-0.47,0.51-1.17,0.77-0.17c0.02,0.09,0.03,0.16,0.04,0.23c0.01-0.01,0.01-0.03,0.01-0.04c0.64,1.52,0.19,1.31,1.85,1.1
		C143.44,250.42,143.19,250.61,142.92,250.82z M141.42,253.69c0.13,0.1,0.06,0.12,0.05,1.06c-0.01,0.46-1.94,0.98-2.16,0.4
		c-0.25-0.63-0.53-0.6-0.51-0.85c0.05-0.94-0.01-0.94,0.12-1.02c0.67-0.41,1.12-0.57,1.42-0.58c-0.82,0.03-0.18-0.56,1.19-0.99
		c0.44,1.62,0,2.61-0.51,0.89c-0.27,0.06-0.48,0.08-0.64,0.09C141.03,252.68,141.04,253.37,141.42,253.69z M139.67,258.45
		c-1.56-0.28-0.63-0.81-1.18,0.68c-0.64-1.54-0.27-1.34-1.89-1.09c0.08-0.15,0.16-0.2,0.75-0.68c-0.2-0.17-0.34-0.29-0.45-0.38
		c0.27,0.38,0.15,0.91-1.28,1.31c0.08-0.39,0.31-0.66,0.57-0.92c-0.89-1.01-0.08-1.01,0.45-0.64c-0.04-0.07,0.07-0.03,0.23-0.01
		c1.31,0.17,1,0.41,1.61-1.13c0.42,1.12-0.28,1.18,1.16,0.67C139.19,257.58,138.22,256.55,139.67,258.45z M140.88,261.92
		c-0.36-0.05-0.68-0.11-1.03,0.02c-0.15,0.06-0.14-0.02-0.92-0.48c-0.16-0.1-0.08-0.12-0.13-1c-0.01-0.2,0.04-0.38,0.14-0.54
		c-0.05,0.05-0.1,0.11-0.18,0.17c-0.14-0.56-0.27-0.74-0.12-1.22c0.23-0.77-0.19-0.74,1.1-0.32c0.11,0.04,1.18,0.76,0.09,0.68
		c-0.97-0.08-0.42,0.09-0.82,0.61C139.8,258.86,142.51,259.14,140.88,261.92z M143.07,263.88c1.22-1.1,2.09-1.35,1.02,0.03
		c1.11,1.2,0.3,1.14-0.86,0.15c0.11,0.12,0.25,0.28,0.46,0.52c-1.6-0.2-1.31-0.34-1.64,0.46c-0.38,0.91-0.19,0.91-0.47-0.37
		c-0.59,0.23-0.34,0.14-0.94,0.33c0.45-1.33,1.45-0.27-0.03-2.21c1.56,0.32,0.66,0.77,1.18-0.67c0.64,1.54,0.27,1.34,1.89,1.09
		C143.28,263.93,142.88,263.65,143.07,263.88z M147.51,263.87c-0.24-0.25-0.47-0.52-0.54-0.9
		C147.66,263.15,147.51,262.96,147.51,263.87z M147.01,264.82c-0.01-0.22,0.01-0.27,0.51-0.91
		C147.51,264.85,147.65,264.66,147.01,264.82z M147.18,264.06c-0.28,0.33-0.46,0.89-0.5,0.91c-0.85,0.43-0.82,0.49-0.97,0.4
		c-0.71-0.4-1.56-0.5-0.88-2.38c0.24-0.67,1.89-0.6,2.03,0.2C146.95,263.68,147.43,263.76,147.18,264.06z M139.28,272.21
		c-0.85,2.77-1.45-2.83,1.05,0.04C139.99,272.37,139.64,272.29,139.28,272.21z M140.52,272.37c1.16,0.71,1.43,0.62,0.36,2.64
		c-0.9-0.2-2.05,0.44-2.09-1.53c0-0.02,0.42-0.54,0.57-0.99C139.37,272.46,140.16,272.53,140.52,272.37z M138.71,271.21
		c-0.3,1.19,0.01,1.52-0.75-0.27c-1.8,0.23-1.59,0.35-0.61-0.49c-0.89-0.85-1.3-0.75,0.59-0.51c0.72-1.29,0.44-1.96,0.76-0.27
		c0.06-0.02,0.92-0.35,0.96-0.3c-1.02,1.34-0.98,0.85,0.02,2.17C139.32,271.46,139.03,271.32,138.71,271.21z M129.66,272.21
		c-1.65,0.38-1.07-0.39,0.52-0.89C130.44,271.83,130.61,274.51,129.66,272.21z M130.02,274.53c-0.65,0.39-0.79,0.52-0.88,0.49
		c-0.51-0.19-0.98-0.01-1.09-0.03c-0.13-0.34-0.24-0.65-0.54-0.89c-0.11-0.09-0.06-0.13-0.04-1.06c0-0.13-0.01-0.09,0.85-0.63
		c0.23-0.14,0.17,0.2,1.21-0.01C129.6,272.52,130.62,274.18,130.02,274.53z M130.25,271.21c-1.34,0.48-1.13,0.57-0.16-0.76
		c-0.74-1.22-1.39-1.33,0.15-0.78c0.2-1.08,0.16-0.97,0.22-0.97c0.62,1.49,0.17,1.28,1.86,1.07c-0.08,0.16-0.23,0.26-0.73,0.67
		c0.06,0.05,0.74,0.6,0.72,0.67c-1.67-0.21-1.22-0.42-1.86,1.1C130.33,271.87,130.32,271.54,130.25,271.21z M121.98,264.83
		c-0.58-0.15-0.46,0.03-0.46-0.81C121.73,264.25,121.91,264.49,121.98,264.83z M121.52,263.09c0.15-0.04,0.3-0.08,0.47-0.12
		C121.96,263.08,121.52,264.4,121.52,263.09z M121.67,263.94c-0.1-0.11,0.85-1.23,0.58-1.09c1.79-0.96,1.71,0.3,2.39,1.04
		c-0.21,0.26-0.45,0.52-0.51,0.91c-0.03,0.18-0.09,0.12-0.87,0.56C122.67,265.69,121.77,264.06,121.67,263.94z M124.84,263.93
		c-0.61-0.93-0.46-0.67-0.55-0.96C127.82,263.97,123.08,265.91,124.84,263.93z M125.63,264.23c0.62-0.55,0.52-0.08-0.39-1.01
		c1.66,0.21,1.25,0.51,1.92-1.09c0.42,1.1-0.3,1.17,1.14,0.66c0.03,0.05-0.76,1.06-0.79,1.11c1.06,1.4,1.18,1.24-0.13,0.77
		c-0.28,1.22,0,1.51-0.73-0.24C125.38,264.44,124.86,264.9,125.63,264.23z M121.98,251.75c-0.59-0.15-0.47,0.02-0.47-0.81
		c0.09,0.1,0.17,0.2,0.24,0.31c-0.23-0.52,0.31-0.88,0.39-1.32c0.03-0.18,0.1-0.13,0.87-0.56c0.61-0.35,1.48,1.3,1.59,1.42
		c0.1,0.11-0.13-0.02-0.48,0.94c-0.07,0.18,0.05,0.08-0.99,0.61c-0.72-0.36-1.1-0.66-1.29-0.92
		C121.91,251.51,121.96,251.63,121.98,251.75z M121.52,250.01c0.15-0.04,0.29-0.08,0.46-0.12
		C121.96,250.01,121.52,251.32,121.52,250.01z M124.86,250.82c-1.16-1.28-0.22-1.14,1.04,0.01
		C124.35,252.15,123.8,252.01,124.86,250.82z M126.03,250.83c-0.95-0.85-1.23-0.74,0.6-0.51c0.7-1.67,0.49-1.55,0.74-0.27
		c1.23-0.41,1.27-0.71,0.15,0.76c0.73,1.2,1.4,1.37-0.15,0.79c-0.26,1.28-0.02,1.46-0.74-0.26
		C124.84,251.56,125,251.69,126.03,250.83z M129.66,242.67c0.19-0.16,0.26-0.38,0.35-0.6c0.24,0.04,0.46,0.08,0.71,0
		c0.47-0.15,0.95,0.94,0.7,1.15c-0.17,0.14-0.27,0.32-0.34,0.52c-1.27,0-1.46-0.16-1.47-0.33
		C129.61,242.79,129.55,242.76,129.66,242.67z M130.66,241.96c-0.2,0.1-0.48,0.03-0.73-0.01
		C129.36,243.69,128.96,240.17,130.66,241.96z M133.79,249.45c-0.15,0.28-1.77-0.03-2.29-1.04
		C134.22,248.41,134.52,248.08,133.79,249.45z M133.94,241.65c0.43,0.82,0.28,1.48-0.12,1.89c-0.26,0.26-0.09,0.2-1.6,0.2
		C131.86,241.84,133.79,241.37,133.94,241.65z M131.47,243.33c0.04,0.16,0.11,0.38,0.11,0.41
		C131.41,243.74,130.9,243.84,131.47,243.33z M127.97,248.61c-0.11-0.29-0.44-0.2,2.01-0.2c-0.26,0.15-0.51,0.31-0.79,0.48
		C128.4,248.55,128.16,249.11,127.97,248.61z M127.33,248.41c0.37,0,0.38-0.13,0.61,0.63C130.58,248.62,126.55,251.33,127.33,248.41
		z M126.88,243.06c0.13-0.73,2.06-2.43,1.99-0.39c-0.01,0.37-0.09,0.78-0.31,1.07C126.83,243.74,126.72,243.94,126.88,243.06z
		 M127.26,252.5c0.26-0.98-0.1-0.88,1.14-0.48c0.11,0.03,1.47,0.99-0.45,0.59C127.36,254.41,127.18,252.78,127.26,252.5z
		 M127.51,253.71c0.33-0.27,0.42-0.6,0.55-0.91c0.39,0.05,0.67,0.12,1.04-0.01c0.14-0.05,0.08-0.05,1.02,0.56
		c0,1.58,0.2,0.56-0.48,1.81c-0.15,0.27,0.04,0.25-0.37,0.19c-0.69-0.11-0.74,0.18-0.97,0.02c-0.75-0.5-0.81-0.44-0.81-0.63
		C127.48,254.13,127.42,253.79,127.51,253.71z M129.67,255.59c0.55-1.66,0.88-0.79,0.54,0.83
		C130.14,256.73,127.15,255.11,129.67,255.59z M129.78,256.42c0.84,0.27,0.23,0.37,0.67-0.82c0.66,1.57,0.26,1.3,1.86,1.09
		c0.04,0.08,0.1-0.02-0.71,0.67c1.84,1.57-0.29-0.29-0.88,1.13c-0.38,0.9-0.2,0.93-0.47-0.36c-0.06,0.02-0.91,0.35-0.95,0.29
		c0.97-1.28,1.02-0.79,0-2.13C129.49,256.28,129.63,256.37,129.78,256.42z M130.11,266.16c-3.1-1.65-2.46-3.2,0.23-4.63
		c0-5.34,2.69-2.9,4.14-2.39c5.17-3.21,3.49,2.05,4.35,2.51c3.19,1.69,2.39,3.21-0.24,4.64c0,3.18-0.88,4.4-3.88,2.53
		c-0.42-0.26-3.17,1.47-3.65,0.62C129.83,267.28,130.77,266.5,130.11,266.16z M134.48,258.86c-0.79-0.4-0.96-0.45-0.97-0.55
		c-0.17-1.01-0.71-0.47-0.23-1.33c0.23-0.43,0.18-0.6,0.35-0.69c0.83-0.41,0.8-0.49,0.97-0.39c0.6,0.34,0.83,0.4,0.86,0.52
		c0.07,0.36,0.27,0.65,0.52,0.93c-0.22,0.28-0.44,0.52-0.51,0.92C135.43,258.41,135.46,258.36,134.48,258.86z M132.76,257.37
		c1.17,1.24,0.23,1.12-1.04-0.01C132.9,256.29,133.83,255.97,132.76,257.37z M130.28,258.67c0.22,1.08-0.07,2.13-0.6,0.48
		C127.35,259.46,130.09,257.75,130.28,258.67z M129.49,259.34c0.1-0.02,0.07,0.01,0.16,0.23c1.78,4.47-4.49,1.77-1.31-0.24
		C128.34,259.33,128.96,259.44,129.49,259.34z M127.94,262.12c1.78-0.36,0.72,0.53,0.19,0.67c-0.89,0.23-0.65,0.54-0.92-0.77
		C127.19,261.91,127.36,260.19,127.94,262.12z M127.43,264.79c1.62,0.52,2.21,1.25,0.52,0.9
		C127.3,267.55,126.99,265.78,127.43,264.79z M128.07,265.89c1.72,0.17,0.55-0.44,2.05,0.53c0.07,1.36,0.21,0.73-0.56,2.04
		c-0.36-0.05-0.67-0.11-1.04,0.01c-0.13,0.04-0.13,0.01-1-0.55C127.46,267.1,127.23,266.97,128.07,265.89z M129.67,268.66
		c0.64-2.03,0.75-0.07,0.63,0.35c-0.19,0.67,0.19,0.65-1.1,0.24c-0.06-0.02-0.56-0.54-0.6-0.58
		C128.79,268.54,128.81,268.54,129.67,268.66z M131.81,270.35c1.12-1,2.16-1.16,0.94,0.09
		C134.53,272.29,131.43,270.69,131.81,270.35z M132.98,270.45c1.02-1.41-0.11-0.7,1.49-1.51c0.86,0.44,0.96,0.45,0.97,0.55
		c0.09,0.53,0.49,0.86,0.51,0.96c-0.21,0.26-0.43,0.51-0.5,0.89c-0.03,0.17-0.1,0.12-0.87,0.56
		C133.99,272.24,133.12,270.6,132.98,270.45z M136.19,270.44c-1.17-1.25-0.23-1.15,1.04,0.01
		C135.97,271.52,135.11,271.7,136.19,270.44z M138.76,269.56c-0.25-1.18-0.15-2.43,0.33-1.42c0.48,1.03,0.2,0.13,1.28,0.5
		C139.63,269.39,140.02,269.16,138.76,269.56z M139.4,268.47c-0.13-0.33-0.23-0.63-0.53-0.9c-0.11-0.1-0.08-0.13-0.03-1.15
		c0.79-0.51,0.87-0.6,0.96-0.57c0.85,0.32,0.92-0.33,1.24,0.39c0.05,0.11,1.15,1.25,0.03,1.93
		C140.12,268.73,140.64,268.27,139.4,268.47z M141.01,265.68c-2.61,0.48,0.47-1.15,0.55-0.82
		C141.89,266.47,141.53,267.31,141.01,265.68z M141.63,262.51c-0.38,1.14-2.98-0.93-0.62-0.39
		C141.61,260.22,141.82,261.94,141.63,262.51z M138.77,256.48c-0.29-0.99-0.3-3,0.52-0.9C140.96,255.27,140.38,255.97,138.77,256.48
		z M140.04,243.29c-0.78-2.78,2.28-1.29,1.87,0.45C140.23,243.74,140.2,243.89,140.04,243.29z M141.07,248.41
		c-0.05,0.09-0.09,0.18-0.12,0.28C140.81,249.06,136.86,248.41,141.07,248.41z M138.85,253.07c-0.65,0.35,0.63,5.67-4.37,2.52
		c-2.51,1.53-4.31,1.52-4.13-2.16c0.02-0.34-2.85-1.96-2.37-2.79c0.66-1.12,1.76-2.23,3.22-2.23c0.54,1.2,2.94,2.53,3.23,0
		c0.33,0-0.1,2.34,2.31,1.07c1.47-0.78,0.24-1.07,1.89-1.07C138.79,248.72,143.52,250.59,138.85,253.07z M137.45,248.41
		c-0.43,0.82-2.37,2.03-2.64,0H137.45z M134.92,241.6c0.99,0.02,1.5,0.5,1.65,1.08c0.34,1.33-0.04,1.07-1.33,1.07
		C134.48,243.15,134.48,242.31,134.92,241.6z M137.24,243.74c0.04-0.13,0.07-0.26,0.11-0.41
		C137.89,243.82,137.41,243.74,137.24,243.74z M138.79,243.74c-1.19,0-1.46,0.1-1.39-1.29c0.81-0.53,1.4-0.39,1.46-0.23
		C138.99,242.56,139.72,243.14,138.79,243.74z M138.89,241.94c-1.75,0.32,0.52-1.34,0.5,0.09
		C139.37,242.81,139.11,242.67,138.89,241.94z M129.58,240.12c-0.25-0.84-0.18-0.64,0.26-0.87c0.03,0.08,0.06,0.16,0.1,0.25
		C131.08,239.29,130.69,239.77,129.58,240.12z M128.29,240.94c-0.3,0.33-0.54,0.33-0.86,0.42c0.14-0.65,0.54-0.4,0.19-0.87
		c0.13-0.08,0.26-0.15,0.39-0.23c0,0,0.01,0.01,0.02,0.01C128.7,240.87,128.55,240.65,128.29,240.94z M127.66,240.72
		c-0.15,0.19-0.3,0.35-0.35,0.63c-0.08,0.42-1.91,0.54-0.71-0.23C126.69,241.21,127.35,240.38,127.66,240.72z M126.64,241.94
		c3.57-2.21,2.4,1.41,2.98,1.72c0.21,0.11,0.27,0.08-0.84,0.08c0.61-0.97,0.38-3.42-1.62-1.56c-0.33,0.31-0.49,0.91-0.56,1.27
		c0.05-0.76-0.35-1.28-1.03-1.65C126.2,241.37,126.14,241.77,126.64,241.94z M126.37,243.74c-1.71,0-1.7,0.14-1.86-0.42
		c-0.21-0.71-0.18-0.63,0.9-1.4C126.17,242.31,126.57,242.89,126.37,243.74z M126.15,249.33c-0.12,0.31-1.46-0.24-2.13-0.92
		C126.57,248.41,126.63,248.12,126.15,249.33z M123.65,243.48c-0.46,0.3-0.37,0.26-0.49,0.26
		C123.74,243.19,123.66,243.25,123.65,243.48z M125.24,249.51c2.06,0.73,0.61-1.1,1.88-1.1c-0.33,1.31-0.8,2.68-3.78,0.75
		c-0.55-0.36-1.82,1.43-1.82,0.13c0.34-0.18,0.66-0.41,0.95-0.7C123.29,247.77,124.06,249.09,125.24,249.51z M121.52,248.98
		c0-0.72-0.19-0.57,0.73-0.57C122.03,248.64,121.78,248.83,121.52,248.98z M122.98,252.51c0.7,0.65,4.29-3.83,4.29,2.48
		c2.73,1.45,3.3,2.98,0.24,4.62c-0.73,0.39,0.71,5.63-4.35,2.53c-0.17-0.11-1.65,1.35-1.65,0.23c2.38-1.24,1.95-4.42,0-3.91
		c0-0.71-0.08-0.11,0.47-1.08c-0.35-0.74-0.47-0.42-0.47-1.1c1.94,0.5,2.03-2.3,0.76-3.4C120.19,251.06,122.75,252.29,122.98,252.51
		z M122.33,253.32c0.74,0.8,0.84,3.12-0.81,2.66C121.52,252.45,121.25,252.14,122.33,253.32z M121.66,257.37
		c-0.05,0.08-0.1,0.15-0.15,0.22C121.52,257.06,121.47,257.03,121.66,257.37z M122.4,258.64c0.76,1.33,0.55,2.59-0.88,3.42
		C121.52,258.41,121.22,258.62,122.4,258.64z M122.12,266.18c1.07,0.94,1.04,3.33-0.6,2.87
		C121.52,265.35,121.32,265.48,122.12,266.18z M146.57,269.17c-0.77-1.03-0.65-2.59,0.94-3.47
		C147.51,269.39,147.82,269.16,146.57,269.17z M146.82,261.61c-1-0.9-1.09-3.38,0.7-2.83C147.51,262.49,147.75,262.44,146.82,261.61
		z M146.52,258.34c-0.37,0-1.73,2.73,1,4.07c0,1.29-1.34-0.53-1.92-0.15c-3.09,1.95-3.91,0.48-3.91-2.52c-2.5-1.21-3.51-3.05,0-4.74
		c0-3.04,0.86-4.51,3.96-2.49c0.36,0.24,0.4-0.29,1.88-0.68c0,0.87-3,1.79-1.13,4.54c1.3,0.07,1.13-0.43,1.13,0.2
		C146.04,258.18,149.07,258.34,146.52,258.34z M147.29,257.36c0.07-0.12,0.15-0.23,0.23-0.34
		C147.51,257.81,147.59,257.88,147.29,257.36z M146.54,256.08c-0.78-1.38-0.51-2.64,0.97-3.45
		C147.51,256.24,147.83,256.13,146.54,256.08z M147.51,249.02c-0.35-0.19-0.61-0.4-0.81-0.61
		C147.73,248.41,147.51,248.25,147.51,249.02z M147.51,249.34c0,1.25-1.36-0.53-1.89-0.18c-4.22,2.73-4.27-2.47-3.03,0.39
		c0.21,0.49,1.73-0.25,2.28-0.7C146.23,247.73,146.35,248.76,147.51,249.34z M142.57,248.41h2.35
		C144.33,249.01,142.75,250.2,142.57,248.41z M145.16,243.41c0-0.1-0.01-0.2-0.01-0.29C146.55,244.29,145.16,243.6,145.16,243.41z
		 M142.45,243.74c-0.22-0.93,0.42-2.39,1.96-1.21C144.48,244.1,143.79,243.74,142.45,243.74z M142.15,243.37
		c0.01-1.53-2.06-2.05-2.15-1.84c-0.38,0.81-0.28,1.7,0.03,2.21c-1.11,0-1.14,0.06-0.68-0.16c0-2.12,0.58-3.04,2.66-1.75
		c0.46,0.29,0.55-0.62,1.33-0.08C142.52,242.16,142.24,242.94,142.15,243.37z M142.18,241.17c0.13-0.14,0.02-0.17,0.65,0.24
		C141.76,242.84,140.22,239.09,142.18,241.17z M139.24,240.12c-1.12-0.36-1.5-0.83-0.35-0.61
		C139.05,239.01,139.69,239.27,139.24,240.12z M137.39,238.95c-0.05-0.92,0-0.38,0.72-0.19
		C140.1,239.71,137.41,239.38,137.39,238.95z M134.46,235.76c-3.08,0.37-2.94,2.22-3.75,0.45c3.8-1.75,3.68-1.75,7.5-0.01
		C137.45,237.88,137.3,236.09,134.46,235.76z M131.45,238.46c-0.02,0.45,0.1,0.9-1.03,0.87
		C129.29,239.3,130.43,238.94,131.45,238.46z M149.68,269.37c-0.09,4.38-10.63,11.01-15.39,12.35c-2.95-0.77-14.83-7.74-14.93-12.34
		c0-23.52-0.4-21.16,0.91-21.16c0,23.24-1.98,22.43,6.43,28.31c3.73,2.61,7.13,4.18,7.88,4.33c0.75-0.15,4.12-1.71,7.82-4.32
		c8.19-5.78,6.37-4.54,6.37-28.32C150.05,248.22,149.68,245.14,149.68,269.37z M142.67,238.54c3.49,2.09,5.77,4.15,6.62,5.93
		c-2.45,0-0.71-2.37-10.9-7.19C138.96,236.48,138.27,235.9,142.67,238.54z M135.25,230.45c1.89,0.37,3.33,2.05,3.33,4.05
		c0,2.42-1.31-0.35-4.13-0.35c-2.81,0-4.13,2.8-4.13,0.35c0-2,1.43-3.67,3.33-4.05C133.98,231.13,134.93,231.13,135.25,230.45z
		 M136.73,220.28c0,3.02-4.56,3.01-4.56,0C132.17,217.26,136.73,217.27,136.73,220.28z"/>
</g>
</svg>
