<svg id="Group_4" data-name="Group 4" xmlns="http://www.w3.org/2000/svg" xmlns:xlink="http://www.w3.org/1999/xlink" width="18.814" height="18.814" viewBox="0 0 18.814 18.814">
  <defs>
    <clipPath id="clip-path">
      <rect id="Rectangle_5" data-name="Rectangle 5" width="18.814" height="18.814" fill="#fc1c15"/>
    </clipPath>
  </defs>
  <g id="Group_3" data-name="Group 3" transform="translate(0 0)" clip-path="url(#clip-path)">
    <path id="Path_9" data-name="Path 9" d="M18.636,17.791l-4.858-4.78A7.683,7.683,0,0,0,15.832,7.79,7.855,7.855,0,0,0,7.915,0,7.853,7.853,0,0,0,0,7.79a7.853,7.853,0,0,0,7.915,7.79A7.96,7.96,0,0,0,12.9,13.84l4.877,4.8a.616.616,0,0,0,.861,0,.594.594,0,0,0,0-.848m-10.72-3.41a6.645,6.645,0,0,1-6.7-6.591A6.645,6.645,0,0,1,7.915,1.2a6.645,6.645,0,0,1,6.7,6.591,6.645,6.645,0,0,1-6.7,6.591" transform="translate(0 0)" fill="#fc1c15"/>
  </g>
</svg>
