<svg xmlns="http://www.w3.org/2000/svg" width="25.147" height="25.147" viewBox="138.427 111.426 25.147 25.147"><path d="M163.335 136.339a.823.823 0 0 1-1.15 0l-6.519-6.414a10.64 10.64 0 0 1-6.659 2.325c-5.843 0-10.58-4.661-10.58-10.412 0-5.75 4.737-10.412 10.58-10.412s10.58 4.662 10.58 10.412c0 2.688-1.044 5.131-2.744 6.979l6.493 6.389a.793.793 0 0 1-.001 1.133Zm-5.376-14.5c0-4.866-4.008-8.81-8.952-8.81s-8.952 3.944-8.952 8.81c0 4.865 4.008 8.81 8.952 8.81s8.952-3.945 8.952-8.81Z" fill="#5d686f" fill-rule="evenodd" data-name="Vector"/></svg>