<svg xmlns="http://www.w3.org/2000/svg" xmlns:xlink="http://www.w3.org/1999/xlink" width="32" height="32" viewBox="0 0 32 32">
  <defs>
    <clipPath id="clip-path">
      <rect id="Rectangle_655" data-name="Rectangle 655" width="32" height="32" transform="translate(271 720)" fill="#fff" stroke="#707070" stroke-width="1"/>
    </clipPath>
  </defs>
  <g id="Mask_Group_150" data-name="Mask Group 150" transform="translate(-271 -720)" clip-path="url(#clip-path)">
    <g id="card" transform="translate(270.043 725.369)">
      <path id="Path_1075" data-name="Path 1075" d="M11.482,20.518H10.1a2.341,2.341,0,0,1-.85-.106c-.425-.106-.957-.213-1.382-.319a9.088,9.088,0,0,1-4.89-3.508,11.456,11.456,0,0,1-1.488-2.764,9,9,0,0,1-.425-1.807c0-.319-.106-.638-.106-.85a8.046,8.046,0,0,1,.106-1.595A3.617,3.617,0,0,1,1.169,8.5a16.874,16.874,0,0,1,.744-2.126A10.7,10.7,0,0,1,3.721,3.721,7.32,7.32,0,0,1,5.1,2.551c.319-.213.744-.425,1.063-.638l1.276-.638A12.361,12.361,0,0,1,9.355.85c.425,0,.85-.106,1.276-.106H11.8c.425,0,.744.106,1.169.106a8.593,8.593,0,0,1,2.339.744,6.581,6.581,0,0,1,1.807,1.169l-.106.106a8.5,8.5,0,0,0-1.382,1.382A10.878,10.878,0,0,0,14.14,6.591a9.967,9.967,0,0,0-.85,3.827v.638a4.361,4.361,0,0,0,.106,1.169,8.229,8.229,0,0,0,1.169,3.189,12.292,12.292,0,0,0,2.126,2.658l.319.319h0L16.9,18.5a13.07,13.07,0,0,1-2.658,1.488,15.086,15.086,0,0,1-2.339.532Z" fill="red"/>
      <path id="Path_1076" data-name="Path 1076" d="M17.01,18.392h0a10.6,10.6,0,0,0,2.126-2.233,9.826,9.826,0,0,0,1.595-4.252,10.246,10.246,0,0,0,0-2.551A11.214,11.214,0,0,0,20.093,6.8a10.335,10.335,0,0,0-2.02-3.083,6.878,6.878,0,0,0-.957-.85A10.436,10.436,0,0,1,21.688.85,7.019,7.019,0,0,1,23.176.744h.957A3.822,3.822,0,0,1,25.3.957a9.355,9.355,0,0,1,1.595.532,9.987,9.987,0,0,1,5,4.359,8.441,8.441,0,0,1,1.063,2.87v2.764a2.943,2.943,0,0,1-.106.957,8.857,8.857,0,0,1-.425,1.595A9.642,9.642,0,0,1,29.236,18.5a9.793,9.793,0,0,1-5.1,2.02H22.538a.391.391,0,0,1-.319-.106c-.319-.106-.744-.106-1.063-.213a14.771,14.771,0,0,1-2.02-.638A5.21,5.21,0,0,1,17.01,18.392Z" fill="#f90"/>
      <path id="Path_1077" data-name="Path 1077" d="M17.01,2.87h0c.319.319.744.638,1.063.957a9.677,9.677,0,0,1,2.02,3.083,9.977,9.977,0,0,1,.638,2.551,10.246,10.246,0,0,1,0,2.551,10.359,10.359,0,0,1-1.595,4.252,7.736,7.736,0,0,1-2.02,2.126H17.01l-.319-.319a8.7,8.7,0,0,1-2.126-2.658A12.894,12.894,0,0,1,13.4,12.226a4.361,4.361,0,0,1-.106-1.169v-.638a9.171,9.171,0,0,1,.85-3.827,10.878,10.878,0,0,1,1.488-2.339A8.5,8.5,0,0,1,17.01,2.87Q16.85,2.87,17.01,2.87Z" fill="#ff4f00"/>
    </g>
  </g>
</svg>
