<svg xmlns="http://www.w3.org/2000/svg" xmlns:xlink="http://www.w3.org/1999/xlink" width="32" height="32" viewBox="0 0 32 32">
  <defs>
    <clipPath id="clip-path">
      <rect id="Rectangle_652" data-name="Rectangle 652" width="32" height="32" transform="translate(229 720)" fill="#fff" stroke="#707070" stroke-width="1"/>
    </clipPath>
  </defs>
  <g id="Mask_Group_147" data-name="Mask Group 147" transform="translate(-229 -720)" clip-path="url(#clip-path)">
    <path id="visa" d="M12.15,11.014l-4.189,10H5.227l-2.06-7.976a1.1,1.1,0,0,0-.615-.88A10.872,10.872,0,0,0,0,11.3l.063-.29h4.4a1.205,1.205,0,0,1,1.192,1.019l1.089,5.785,2.69-6.8H12.15Zm10.709,6.731c.012-2.637-3.648-2.78-3.622-3.96.007-.36.348-.741,1.1-.837a4.88,4.88,0,0,1,2.55.446l.454-2.119a6.949,6.949,0,0,0-2.418-.443c-2.556,0-4.355,1.359-4.37,3.3-.017,1.438,1.284,2.241,2.264,2.72,1.007.49,1.344.8,1.34,1.243-.007.671-.8.964-1.547.977a5.411,5.411,0,0,1-2.657-.632l-.468,2.191a7.888,7.888,0,0,0,2.876.532c2.716,0,4.493-1.345,4.5-3.423m6.749,3.265H32l-2.087-10H27.7a1.179,1.179,0,0,0-1.1.733L22.726,21.01H25.44l.539-1.493H29.3Zm-2.885-3.541,1.362-3.753.783,3.753ZM15.845,11.014l-2.139,10H11.12l2.14-10h2.586Z" transform="translate(229 720)" fill="#1a2adf"/>
  </g>
</svg>
