<svg xmlns="http://www.w3.org/2000/svg" width="18.183" height="20.961" viewBox="934 446.039 18.183 20.961"><g data-name="Group 64"><path d="M952.143 452.666c.03.283-.212.535-.505.535h-17.092a.507.507 0 0 1-.505-.535c.202-2.414 1.525-4.04 4.253-4.293v-1.576c0-.414.343-.758.757-.758s.758.344.758.758v1.515h6.566v-1.515c0-.414.343-.758.757-.758.415 0 .758.344.758.758v1.576c2.727.252 4.05 1.879 4.253 4.293ZM952.183 455.727v6.222c0 3.03-1.515 5.051-5.05 5.051h-8.082c-3.536 0-5.051-2.02-5.051-5.05v-6.223c0-.556.455-1.01 1.01-1.01h16.163c.555 0 1.01.454 1.01 1.01Zm-11.617 6.727c0-.262-.111-.525-.293-.717a1.166 1.166 0 0 0-.333-.212 1.01 1.01 0 0 0-.768 0c-.121.05-.232.121-.333.212a1.062 1.062 0 0 0-.293.717c0 .263.11.526.293.718.1.09.212.161.333.212.121.05.253.08.384.08s.263-.03.384-.08.232-.122.333-.212c.182-.192.293-.455.293-.718Zm0-3.535c0-.132-.03-.263-.08-.384a1.166 1.166 0 0 0-.213-.333 1.166 1.166 0 0 0-.333-.213 1.01 1.01 0 0 0-.768 0c-.121.051-.232.122-.333.213-.091.1-.162.212-.212.333-.051.121-.081.252-.081.384 0 .131.03.262.08.384.051.12.122.232.213.333.1.09.212.162.333.212.121.05.253.08.384.08s.263-.03.384-.08.232-.121.333-.212c.091-.101.162-.212.212-.333.05-.122.081-.253.081-.384Zm3.536 0c0-.263-.112-.525-.293-.717a1.166 1.166 0 0 0-.334-.213.926.926 0 0 0-.767 0c-.122.051-.233.122-.334.213a1.062 1.062 0 0 0-.293.717c0 .262.111.525.293.717.101.09.212.162.334.212.12.05.252.08.383.08.132 0 .263-.03.384-.08.122-.05.233-.121.334-.212.181-.192.293-.455.293-.717Z" fill="#3c4a53" fill-rule="evenodd" data-name="Vector"/></g></svg>